<?xml version="1.0" standalone="no"?>
<!DOCTYPE svg PUBLIC "-//W3C//DTD SVG 1.1//EN" "http://www.w3.org/Graphics/SVG/1.1/DTD/svg11.dtd" >
<svg xmlns="http://www.w3.org/2000/svg" xmlns:xlink="http://www.w3.org/1999/xlink" version="1.1">
<metadata>
Created by FontForge 20170924 at Wed Dec 18 02:28:10 2019
 By www-data
(c) Copyright Tianjin ZHUOMAN Technology Co.,Ltd.
</metadata>
<defs>
<font id="YingHuaYuLuo-" horiz-adv-x="900" >
  <font-face 
    font-family="YingHuaYuLuo"
    font-weight="500"
    font-stretch="normal"
    units-per-em="900"
    panose-1="2 0 6 3 0 0 0 0 0 0"
    ascent="720"
    descent="-180"
    x-height="509"
    cap-height="658"
    bbox="11.7143 -81.2667 889 848.04"
    underline-thickness="50"
    underline-position="-150"
    unicode-range="U+0021-FF5A"
  />
<missing-glyph horiz-adv-x="364" 
d="M106 717q2 3 7 2q4 -1 7 -1q8 0 9 -26.5t1 -184.5q0 -156 -1 -186.5t-9 -43.5q-7 -16 -14 -8q-6 10 -6 199q0 239 6 249zM58 210q8 7 22 -4t39 -14q10 -2 10 -4t-21 -1.5t-30 7.5q-9 8 -12 7.5t-2 -11.5q1 -12 -3 -19.5t-6 -7.5t-1 -9q2 -8 0 -8.5t-7 3.5q-7 9 1 26
q6 11 6 21q0 12 4 14zM176 202q0 1 3.5 0.5t3.5 -10.5q0 -7 1 -20q0 -10 -5 -18t-5 -12t-13 -22.5t-18 -20.5q-9 -4 -11 -1q-1 1 5 4q1 3 3 3q7 3 14 15q7 14 6 16t-13 -5q-10 -5 -12.5 -5t-2.5 -1q0 -4 -6 -13q-10 -16 -3 -16q9 0 1 -4q-2 -1 -5 -1q-8 -3 -16 -7t-18 -4
t-16 7q-18 15 -18 38q0 6 1.5 10t5.5 3q1 -2 1 -11q0 -16 11 -28q7 -8 16 -8q16 0 30 18q7 14 12 16q4 2 9 6q6 5 7.5 5t10.5 6q7 6 14 18t5 20q-1 3 -8 3q-6 -1 -17 0.5t-11 3.5t8 2q6 0 16.5 5t13.5 8zM155 173q16 5 16 1q0 -2 -8 -11t-13 -11q-33 -19 -32 -14q2 2 3.5 2
t16 9.5t15.5 12.5t-1 4t-3 0q-5 -4 -29 -5h-7l4 1q26 6 38 11z" />
    <glyph glyph-name=".notdef" horiz-adv-x="364" 
d="M106 717q2 3 7 2q4 -1 7 -1q8 0 9 -26.5t1 -184.5q0 -156 -1 -186.5t-9 -43.5q-7 -16 -14 -8q-6 10 -6 199q0 239 6 249zM58 210q8 7 22 -4t39 -14q10 -2 10 -4t-21 -1.5t-30 7.5q-9 8 -12 7.5t-2 -11.5q1 -12 -3 -19.5t-6 -7.5t-1 -9q2 -8 0 -8.5t-7 3.5q-7 9 1 26
q6 11 6 21q0 12 4 14zM176 202q0 1 3.5 0.5t3.5 -10.5q0 -7 1 -20q0 -10 -5 -18t-5 -12t-13 -22.5t-18 -20.5q-9 -4 -11 -1q-1 1 5 4q1 3 3 3q7 3 14 15q7 14 6 16t-13 -5q-10 -5 -12.5 -5t-2.5 -1q0 -4 -6 -13q-10 -16 -3 -16q9 0 1 -4q-2 -1 -5 -1q-8 -3 -16 -7t-18 -4
t-16 7q-18 15 -18 38q0 6 1.5 10t5.5 3q1 -2 1 -11q0 -16 11 -28q7 -8 16 -8q16 0 30 18q7 14 12 16q4 2 9 6q6 5 7.5 5t10.5 6q7 6 14 18t5 20q-1 3 -8 3q-6 -1 -17 0.5t-11 3.5t8 2q6 0 16.5 5t13.5 8zM155 173q16 5 16 1q0 -2 -8 -11t-13 -11q-33 -19 -32 -14q2 2 3.5 2
t16 9.5t15.5 12.5t-1 4t-3 0q-5 -4 -29 -5h-7l4 1q26 6 38 11z" />
    <glyph glyph-name="exclam" unicode="!" horiz-adv-x="224" 
d="M106 717q2 3 7 2q4 -1 7 -1q8 0 9 -26.5t1 -184.5q0 -156 -1 -186.5t-9 -43.5q-7 -16 -14 -8q-6 10 -6 199q0 239 6 249zM58 210q8 7 22 -4t39 -14q10 -2 10 -4t-21 -1.5t-30 7.5q-9 8 -12 7.5t-2 -11.5q1 -12 -3 -19.5t-6 -7.5t-1 -9q2 -8 0 -8.5t-7 3.5q-7 9 1 26
q6 11 6 21q0 12 4 14zM176 202q0 1 3.5 0.5t3.5 -10.5q0 -7 1 -20q0 -10 -5 -18t-5 -12t-13 -22.5t-18 -20.5q-9 -4 -11 -1q-1 1 5 4q1 3 3 3q7 3 14 15q7 14 6 16t-13 -5q-10 -5 -12.5 -5t-2.5 -1q0 -4 -6 -13q-10 -16 -3 -16q9 0 1 -4q-2 -1 -5 -1q-8 -3 -16 -7t-18 -4
t-16 7q-18 15 -18 38q0 6 1.5 10t5.5 3q1 -2 1 -11q0 -16 11 -28q7 -8 16 -8q16 0 30 18q7 14 12 16q4 2 9 6q6 5 7.5 5t10.5 6q7 6 14 18t5 20q-1 3 -8 3q-6 -1 -17 0.5t-11 3.5t8 2q6 0 16.5 5t13.5 8zM155 173q16 5 16 1q0 -2 -8 -11t-13 -11q-33 -19 -32 -14q2 2 3.5 2
t16 9.5t15.5 12.5t-1 4t-3 0q-5 -4 -29 -5h-7l4 1q26 6 38 11z" />
    <glyph glyph-name="quotedbl" unicode="&#x22;" horiz-adv-x="237" 
d="M178 761q9 10 15 1q4 -9 -2 -56q-12 -74 -18 -133q-5 -39 -6 -41q-6 -12 -16 11q-1 6 -3 12q-3 13 0 44q13 144 30 162zM67 756q5 6 11 4q11 -7 7 -49q-6 -59 -16 -144q-3 -17 -6.5 -24t-8.5 -5q-14 6 -3 97q3 31 6 69q4 48 10 52z" />
    <glyph glyph-name="numbersign" unicode="#" horiz-adv-x="662" 
d="M434 712q3 8 10 3q6 -2 9 -13q1 -14 1 -58t-1 -82l-4 -43l81 -1q64 -1 76 -4t12 -14q0 -8 -4 -14t-11 -6h-9.5t-26.5 -0.5t-32 -0.5q-53 0 -70 -3t-20 -12q-2 -13 -6.5 -56t-4.5 -55q2 -20 13 -22.5t69 0.5q8 0 22 1q57 3 66.5 2.5t11.5 -7.5q0 -1 1 -3
q5 -16 -14.5 -21.5t-101.5 -10.5q-58 -3 -64 -7q-5 -2 -7 -21t-4 -100q-1 -64 -2.5 -79.5t-6.5 -19.5q-5 -7 -10.5 -4t-7.5 12q-3 6 -3 107q0 99 -2 101q-5 2 -54.5 3t-59.5 0q-11 -3 -14 -11.5t-7 -46.5q-4 -36 0 -55q4 -16 -0.5 -32.5t-14.5 -24.5q-19 -15 -23 12
q-4 24 2 97q2 49 -1 52q-6 5 -44 6.5t-76 -3.5q-39 -4 -50.5 -2t-11.5 13q0 6 2 8.5t10 4.5q24 6 111 13q45 3 55 5t13 10t5 77v12q1 54 -4 63t-37 10h-7q-39 4 -68 4q-33 0 -44 4q-7 2 -9.5 4t-2.5 8q0 9 6 11q5 1 84 4q79 2 80 3q3 3 7 80q2 76 3 82q2 7 8 8.5t9 -4.5
q2 -4 5 -84q3 -79 5 -82q3 -2 35.5 -7t64.5 -6q39 -3 44 2q8 11 12 112q5 73 7 81zM355 480q-58 7 -64 9q-12 1 -15 -3q-5 -6 -9 -80t1 -79q3 -4 53.5 -5t63.5 1q10 3 11.5 6t4.5 22q5 37 8 77.5t1 42.5q-4 3 -55 9z" />
    <glyph glyph-name="dollar" unicode="$" horiz-adv-x="446" 
d="M227 713q4 3 10 -1q12 -6 19 -40q3 -25 6 -27t33 -4q27 -2 35.5 -5.5t8.5 -11.5q0 -7 -4 -9q-4 -3 -35 -3q-30 0 -35 -3q-4 -4 -6 -16q-2 -15 -5 -83.5t-2 -75.5q1 -6 6.5 -8t33.5 -9q59 -14 86 -38q28 -24 28 -42q0 -35 -14 -62t-39 -43t-79 -34q-15 -4 -17 -9
q-2 -4 -7 -47t-9 -48q-3 -6 -13.5 -5.5t-13.5 6.5q-4 5 -5.5 45t-4.5 44q-2 4 -6.5 5t-26.5 6q-24 5 -54 16t-38 17q-15 14 -27 34t-9 29q6 15 40 -16q50 -47 106 -47q13 0 15.5 11.5t2.5 74.5v77l-24 6q-58 14 -78 49q-5 9 -8.5 29t-2.5 35q2 30 31 60t76 51l22 10v39
q0 40 4 43zM217 585q-1 9 -8.5 8.5t-24.5 -11.5q-49 -32 -54 -77t38 -66q13 -8 27.5 -9t17.5 5q4 10 6 73t-2 77zM306 376q-47 15 -50 9q-4 -10 -9.5 -71.5t-2.5 -70.5q1 -8 7 -13q4 -3 9 -2.5t28 9.5q31 12 48 27q23 20 30 41.5t-3 36.5q-16 20 -57 34z" />
    <glyph glyph-name="percent" unicode="%" horiz-adv-x="495" 
d="M431 718q6 10 14 8.5t9 -13.5q1 -13 -46 -102.5t-106 -182.5q-6 -12 -33.5 -56t-38.5 -62q-34 -57 -83.5 -132t-61.5 -90q-15 -18 -29 -18q-9 0 -12.5 2.5t-3.5 7t3.5 10t10.5 14.5q17 23 23 34q2 3 14.5 21t18.5 27q26 38 83 131q50 79 79 124q26 38 131 228
q24 44 28 49zM185 679q15 5 40 4q37 -3 52 -20.5t15 -55.5q0 -28 -9 -47.5t-43 -53.5q-25 -26 -32 -30t-22 -2q-20 2 -32 15q-11 9 -13 18t-3 48q-1 51 4 71q7 35 43 53zM244 642q-7 10 -21 11q-15 1 -30 -11q-14 -14 -19 -28t-5 -47t3.5 -44t15.5 -11q8 0 33 27t30 41
q5 13 2.5 32.5t-9.5 29.5zM315 272q19 21 25 25t21 4q63 0 66 -63q2 -39 -21.5 -91.5t-49.5 -66.5q-12 -5 -30.5 -5t-31.5 4q-19 9 -24 23t-5 54q1 34 3 44.5t9 23.5q11 22 38 48zM376 260q-8 5 -21 8q-14 2 -20 -8q-37 -51 -37 -110q0 -20 9 -28q16 -16 39 1q18 15 34 59
t8 62q-3 9 -12 16z" />
    <glyph glyph-name="ampersand" unicode="&#x26;" horiz-adv-x="517" 
d="M213 687q25 7 44.5 3t46.5 -21q40 -27 45 -44q3 -17 -15 -69q-7 -19 -24 -41t-60 -66q-55 -57 -55 -63q0 -17 35 -56q31 -35 40 -35q6 0 16 58q13 84 18 93t18.5 22t24.5 18q15 8 28.5 10t14.5 -4q2 -5 -22 -28q-24 -21 -28 -29q-8 -15 -20.5 -95t-8.5 -87q7 -14 64 -51
q38 -27 89 -37q8 -2 10 -4t3 -9q0 -11 -8 -18q-15 -15 -56 0q-38 12 -73 39q-18 15 -30 23q-8 6 -10 6t-7 -4q-5 -6 -26 -42q-16 -38 -40 -53.5t-55 -16.5t-53 8.5t-42 32.5q-20 21 -28 36q-9 15 -9 45q0 57 15 90q17 34 48 63q11 12 21 24l12 13l-13 29q-19 48 -16 128
q1 31 6 44.5t18 31.5q33 44 82 56zM266 648q-46 20 -91 -23q-17 -14 -22.5 -31t-7.5 -49q-1 -36 6.5 -73.5t17.5 -37.5q5 0 34.5 27t57.5 56q24 25 33.5 40.5t11.5 35.5q3 16 -2 24q-4 8 -16 18.5t-22 12.5zM207 295q-50 54 -55 54q-7 0 -29 -24.5t-29 -38.5q-9 -15 -11 -33
q-4 -15 -4 -40t4 -33q2 -7 17.5 -23t26.5 -23q13 -9 34 -9q43 0 60 19q12 14 26.5 48.5t12.5 43.5q-2 8 -53 59z" />
    <glyph glyph-name="parenleft" unicode="(" horiz-adv-x="277" 
d="M146 632q22 22 32 22q24 0 11 -21q-6 -9 -19 -24q-41 -46 -69 -132q-13 -42 -16.5 -65.5t-3.5 -89.5q0 -60 0.5 -72.5t6.5 -29.5q29 -77 64 -90q12 -5 37 -10q42 -7 47 -22q1 -6 -6 -11q-8 -3 -35 -3t-42 5q-33 9 -51 25.5t-37 58.5q-15 31 -20 59.5t-5 83.5q0 50 3 73.5
t19 76.5q18 62 36.5 98t47.5 68z" />
    <glyph glyph-name="parenright" unicode=")" horiz-adv-x="244" 
d="M46 662q3 6 14.5 4t29.5 -12t34 -25q19 -18 38 -57q19 -38 26 -63q16 -62 11 -187q-1 -46 -8 -72t-30 -72q-34 -70 -57 -86q-8 -6 -25 -11.5t-29 -5.5q-10 0 -6 7q3 4 9 7q9 5 31 29q52 55 78 162q7 34 3 108t-16 119q-9 29 -24 57.5t-27 40.5q-55 51 -52 57z" />
    <glyph glyph-name="asterisk" unicode="*" horiz-adv-x="458" 
d="M212 582q5 5 11 0q10 -6 14 -25t5 -66q0 -29 1 -36q2 -13 13 -6q7 5 27 24q76 72 108 72q27 0 -11 -32q-23 -21 -42 -39q-21 -20 -27 -22q-21 -11 -50 -40q-19 -17 -16 -31q8 -24 30 -65q42 -74 42 -88q0 -4 -3 -12q-7 -12 -21 -3q-10 8 -18 25q-8 23 -32.5 73.5
t-28.5 52.5q-3 4 -5 1q-3 -6 -21 -30q-19 -27 -43 -65.5t-32 -45.5q-7 -9 -16.5 -9t-14.5 6q-5 7 -3.5 12.5t10.5 17.5q11 13 26 35q51 74 62 88q8 14 2 14q-7 0 -43 13q-21 7 -52 29.5t-39 36.5q-5 9 -1 13q8 14 41 -7q20 -12 31 -17q30 -14 62 -24q5 -1 16 -6
q11 -6 12 -3.5t0 72.5q-1 53 0 67t6 20z" />
    <glyph glyph-name="plus" unicode="+" horiz-adv-x="514" 
d="M264 636q6 4 13 -1q12 -10 12 -108q0 -63 2 -84l3 -17h85h86l5 -14q4 -16 1 -18q-3 -4 -72 -8q-67 -2 -83 -4q-10 -2 -12 -4t-3 -16q-3 -21 -6 -99q-4 -83 -6 -95q-1 -10 -3 -12t-10 -2q-11 -2 -20 7q-6 6 -6.5 15.5t0.5 61.5q6 129 -2 138q-6 6 -92 8q-88 1 -96 7
q-20 12 6 17q13 4 45 6q46 4 94 6l45 2l3 21q2 26 5 105q1 86 6 88z" />
    <glyph glyph-name="comma" unicode="," horiz-adv-x="204" 
d="M120 183q7 9 12 -1q2 -5 6 -8q4 -1 9 -9q5 -9 12 -43q5 -22 -1 -29q-2 -4 -4 -11q-1 -6 -4 -14q-5 -9 -5 -10t-6.5 -10t-8.5 -9q-1 -1 -4 -5q-10 -12 -41 -16q-12 -1 -14 -2.5t-13.5 -3.5t-13.5 0q-4 8 6 27q10 24 10 49q0 38 7 46q3 4 3 2q2 -2 -1 -8q-2 -9 -1 -40
q1 -30 -5 -44q-2 -8 -3.5 -12t-1.5 -6.5t1 -3.5t3 -1q4 0 5 3q7 8 24 8q11 0 15 7t4 27q0 15 2 16q8 8 8 24q0 5 2 8q12 12 12 30q0 14 -2 21q-6 12 -15 5q-5 -5 -15 -10q-12 -4 -18 -8q-6 -5 -6 -2q0 8 19 15q11 3 23 18zM151 123q-3 8 -4 8t-14 -14q-6 -6 -11 -21
q-5 -14 -4 -24q2 -10 2 -22q-2 -14 0 -14t9 6q15 14 22 48q5 20 0 33zM120 153q6 9 9 2q1 -5 -6 -32q-2 0 -3 7q0 10 -3 10l-3 -5q-3 -5 -6 -7.5t-6 -11.5q-6 -17 -9 -17q0 7 8 27.5t11 20.5q4 0 8 6z" />
    <glyph glyph-name="hyphen" unicode="-" horiz-adv-x="372" 
d="M264 399q25 6 34.5 5.5t17.5 -9.5q16 -15 5 -25q-9 -8 -63 -17q-30 -3 -118.5 -4t-94.5 3q-5 5 -3.5 11.5t8.5 11.5t62 7q84 2 152 17z" />
    <glyph glyph-name="period" unicode="." horiz-adv-x="131" 
d="M52 104q13 13 23 4.5t15 -24.5q1 -8 -1 -13q-5 -8 -17.5 -13t-19.5 -2q-4 2 -8 10t-4 14q0 13 12 24z" />
    <glyph glyph-name="slash" unicode="/" horiz-adv-x="366" 
d="M302 735q12 7 16 -4q8 -21 -45 -167q-7 -21 -11 -31q-50 -140 -72 -188q-19 -42 -51 -132q-52 -143 -70 -160q-6 -6 -9.5 -5.5t-10.5 8.5q-9 7 -7 15.5t13 28.5q32 64 53 125q4 14 8 23q1 2 12 28q8 23 12 32q4 6 4 8q0 1 7 18q8 18 8 18.5t6 15.5q17 34 63 159
q2 9 8.5 27.5t9.5 24.5q16 47 31 95q15 55 25 61z" />
    <glyph glyph-name="zero" unicode="0" horiz-adv-x="499" 
d="M297.5 660q20.5 -4 34 -12.5t30.5 -25.5q18 -22 19.5 -24t7.5 4q12 13 36 11q14 -1 18 -5q2 -2 1 -2t-6 1q-10 1 -24 1q-8 0 -18.5 -8.5t-10.5 -14.5l-3 -7v4q0 9 -9 0q-3 -4 -20 -17q-16 -12 -16 -15q0 -1 -3.5 -1t-3.5 -2q0 -3 3.5 -3t9 1.5t10.5 3.5q8 4 19 16
q10 11 10 8q0 -12 -22 -26q-14 -10 -22 -9q-7 2 -10 4t-3 -2q0 -9 16.5 -13.5t31.5 -0.5q11 4 18 5q6 1 29 24q23 22 28 22q12 0 5 8.5t-3 9.5q4 2 12 -7q7 -9 4 -15t-9 -6q-21 0 -30 -11q-8 -8 -12 -15q-3 -7 -6 -10q-1 -1 0 -18q1 -18 -3 -48q-9 -74 -35 -155
q-28 -79 -31 -84q1 -1 19 2t23 6q9 4 11 2.5t2 -16.5q0 -22 -6.5 -35t-26.5 -25q-14 -7 -25 -7l-8 1l1 2q4 2 10 2q9 0 8 5q0 1 -11.5 -2.5t-17.5 -12.5t-12.5 -9t-13 -9.5t-18.5 -22.5t-27 -20.5t-34 -7.5t-32 5t-22 12q-11 8 -17.5 6t-6.5 0t9 7.5t17 18.5q7 12 4 13
q-5 0 -14 -5q-7 -4 -12 -4q-9 0 10 9q1 1 4 3q18 8 25 24q8 20 1 24q-10 -3 -52 -0.5t-47 5.5t-11 8q-8 6 -10 4t-1 -11q2 -20 -9 -28q-3 -4 -2 -12q1 -6 -0.5 -7t-7.5 5q-10 9 1 26q5 8 5 19q0 15 9 18.5t21 -6.5q15 -12 19 -8q1 2 -3 17q-12 46 -10 99.5t9.5 85.5t19 71
t36.5 82.5t52.5 68t52.5 30t45.5 1.5zM307 613q-26 13 -52 0q-48 -20 -86 -119q-17 -38 -26.5 -77.5t-14.5 -92.5q-3 -38 2 -57q3 -23 11.5 -46t13.5 -25q2 -1 13.5 3.5t16.5 8.5q7 6 8 -7q1 -7 1 -23q0 -12 -4 -18q-12 -16 -2 -28q26 -28 60 2q22 24 40 68q26 66 45 133
t26 106q8 41 8 65q0 6 -1 6.5t-10 0.5q-26 1 -33 13q-4 6 -11 14q-6 7 -3 10.5t9 -0.5q6 -2 12 4q7 6 13 11t3 11q-5 9 -17 21t-22 16zM384 222h-12t-23 -1t-17 -2q-3 -1 -7.5 -3.5t-6.5 -5t-1 -3.5t-3 -11q-3 -8 -3 -10q1 -2 4.5 -2t9 1.5t7.5 3.5q8 7 19 14t15 7t11 4.5
t7 7.5zM386 201q0 7 -7 4q-5 -3 -17 -5q-14 -4 -26 -13q-16 -12 -16 -10l2 3q1 3 0 2q-2 0 -4 -1q-4 -3 -8 -13t-3 -14q1 0 2.5 1t3 1.5t4.5 2.5q8 5 15 6q8 3 8 5q0 6 10.5 14.5t19.5 8.5q16 0 16 8zM374 181q5 6 4.5 7t-6.5 1q-18 -3 -26 -14q-4 -5 -3.5 -5.5t9.5 0.5
q15 0 22 11zM164 180q12 3 15 1q1 -1 -4.5 -7t-13 -13t-13.5 -8q-9 -2 -18 -7q-10 -5 -10 -4q-1 0 0.5 1.5t3.5 2.5t4.5 3t5 3l2.5 1q1 0 13 7q15 10 11 12h-4q-34 -8 -38 -7l18 7q4 2 9 2zM44 139q6 13 9 -9q2 -19 17 -30q7 -7 18 -4q18 2 30 20q8 13 12 14q6 3 6 -1
q0 -3 -6 -12q-12 -15 -4 -15q12 0 -7 -8q-19 -7 -34 -8q-13 -1 -21 5q-11 8 -17.5 23.5t-2.5 24.5z" />
    <glyph glyph-name="one" unicode="1" horiz-adv-x="200" 
d="M125 657q2 7 14 6t14 -10q4 -9 4 -76q0 -83 -11 -135q-9 -52 -17 -113q-1 -10 -7 -41t-7 -43q0 -3 -3 -19t-4 -23q-8 -50 -15 -89q-4 -16 -7 -22t-13 -10q-19 -6 -25 4q-5 9 7 71q1 5 7 41q6 35 10 58q4 21 9 51q15 84 21 111q11 55 15 127q4 98 8 112z" />
    <glyph glyph-name="two" unicode="2" horiz-adv-x="493" 
d="M65 693q6 4 23 4t23 -4q19 -7 29 -25q5 -10 6 -38.5t-2 -28.5t-3 16q1 23 -12 49q-9 19 -17 14q-4 -4 -6.5 -1t-3.5 2q-1 -2 4 -8q22 -22 23 -45l1 -11l-5 14q-6 15 -13 23q-6 9 -15 17t-12 8t-11 -10q-6 -6 -6 -8t4 -5q6 -5 7 -10q4 -7 -14 -24q-6 -9 -7.5 -12.5
t2.5 -14.5q2 -11 17.5 -22.5t28.5 -11.5q17 1 21 7q-4 2 -28.5 18t-22.5 17q1 3 12 -4q26 -15 39 -17h6l-14 14q-17 16 -24 21q-12 6 -12 11q-1 1 3 -1q3 -2 5 -4q2 -3 8 -3t14 -8q28 -25 34 -25q1 0 0.5 4t17 20t32.5 24q26 16 52.5 22.5t58.5 3.5t59 -21t38 -56.5
t-4 -90.5q-8 -23 -8 -24q1 -1 12 -4q18 -3 35 4q15 6 15 -9q0 -8 2 -12q6 -6 -7 -51q-5 -13 -12 -27.5t-11 -14.5q-1 0 -11 -8q-18 -17 -41 -28q-19 -8 -52 -3q-10 1 -12 0t-6 -8q-15 -28 -76 -105q-46 -58 -49 -66q0 -6 17 -6q14 0 87 6q98 8 128 7q19 -1 24 -9
q7 -14 -3 -25q-8 -6 -18 -6.5t-74.5 -4t-96 -6.5t-78.5 -8q-95 -10 -89 -1q4 7 14 17q14 14 10 14l-4 -1q-7 -1 -14 -4q-6 -3 -14 -3t-18 8q-6 7 -9.5 17t-1.5 15q5 8 8 -6q2 -16 14 -25q5 -3 14 -0.5t14 9.5q16 18 17 16q3 -2 -4 -10q-4 -7 -5 -8.5t4 -2.5q4 -1 6 2t5 3
q7 0 17 18q4 5 4 5.5t-4 0.5t-8 -4q-9 -3 -11 -1q1 1 13 7q7 5 15 15t7 16q-1 3 -15 3q-12 -1 -14 2q1 2 5 2q6 0 17 5q9 6 11 5q2 -3 3 -26l1 -5q2 2 15 16q24 29 71 95q36 48 36 50.5t-9 6.5q-21 7 10 29q20 14 30 25t30 50q13 27 21.5 46.5t12 41t-3 46.5t-31 38.5
t-54 12t-54.5 -13t-55 -41.5q-29 -35 -37 -48t-16.5 -24.5t-18 0.5t8.5 50q0 2 -1.5 2.5t-5.5 0.5q-23 0 -52 38q-14 19 0 35q6 5 6 6q2 3 -6 -2q-6 -3 -6.5 -2t3.5 13q5 11 2 20q-5 10 0 19.5t15 14.5zM68 673l4 9q-2 1 -6.5 -3.5t-4.5 -8.5q0 -13 7 3zM63 637q2 3 0 6
q-1 3 -3 -2q-1 -4 0 -6q0 -1 3 2zM414 458q-12 2 -19 3q-4 0 -15.5 -2.5t-16.5 -6.5q-20 -17 -45 -67q-4 -6 -12 -14q-15 -14 -21.5 -21t-5.5 -8q1 -3 14 -3t19 -4t14 -7q15 -2 32 27q10 13 21 23q10 6 16 15q4 7 8 6q3 -2 11.5 3t13.5 11q16 18 15 34q-1 7 -2.5 8.5
t-6.5 0.5q-7 0 -20 2zM438 399q0 1 -2 1t-6 -1.5t-8 -2.5q-6 -2 -11 -3q-5 0 -19 -14q-24 -19 -24 -30q0 -2 -10 -15q-9 -12 -9 -13.5t3.5 -1.5t8 0.5t9.5 1.5q21 7 47 36q17 17 20 28q1 12 1 14zM422 440q11 6 12 -3q0 -2 -7 -10.5t-14.5 -16.5t-8.5 -6.5t5 12.5t5 12
q-2 0 -8 -4q-7 -4 -10.5 -4t-13.5 -8q-11 -10 -16 -12q-4 -3 -5 -3t3 4q8 12 26.5 25t24.5 11q2 -1 7 3zM88 656h2q4 -5 10 -15.5t6 -14.5q0 -10 -7 5q-2 3 -3 8q-6 12 -8 17zM435 241q4 1 15 1l12 -1v-16q0 -17 -5 -24q-15 -19 -41 -19q-19 0 -39 13l-7 6l10 5q12 6 26 19
q15 14 21 15q7 1 8 1zM448 234q-2 1 -10.5 1.5t-12.5 -1.5q-10 -4 -22 -18q-9 -11 -16 -12q-5 -2 -5 -3t6 -5q14 -11 26 -1q3 5 20 14t18 12l-6 -2q-17 -12 -20 -8l1 0.5l3 1.5l4 2q9 4 11 7q3 2 -1 2h-4q-15 -3 -31 -17l-7 -6q0 3 7 9q12 14 33 19l10 2q-3 2 -4 3zM457 212
q0 4 -1 4q-4 0 -20.5 -10t-19.5 -13q-2 -4 -8 -5q-2 -3 7 -3q12 0 20 4t15 11t7 12zM45 206q2 2 9 1t11 -5q14 -11 35 -11q6 0 6 -2t-18 -1q-17 1 -26 6l-9 6l-2 -11q0 -13 -4 -17.5t-2 -10.5q0 -5 -1 -5.5t-6 3.5q-8 8 1 20q5 8 5 17t1 10zM129 177q13 5 13 2t-5.5 -8
t-9.5 -9l-28 -11h1q11 8 16 10q12 9 11 11q-1 1 -13 -1q-12 -4 -17 -4l9 5q14 3 23 5z" />
    <glyph glyph-name="three" unicode="3" horiz-adv-x="384" 
d="M217.5 663q30.5 -1 53.5 -8.5t46 -28.5t30 -57.5t-6.5 -73t-43.5 -70.5q-24 -26 -23 -31.5t25 -26.5q21 -18 34 -40t17.5 -49.5t1.5 -52t-10 -45t-19 -39t-28 -31t-41 -22.5t-66 -12t-88 14q-33 12 -53 41q-14 29 -4 38q4 4 7 4q11 0 30 -26q11 -13 25 -20.5t29 -11
t45.5 -3.5t65 15t50.5 51.5t15 69.5q-1 30 -17 61q-17 30 -41 41q-12 6 -39 6q-30 0 -46 -2q-20 -4 -33 -4t-19 5q-8 7 -1 16t38 15q49 10 76 25.5t50 46.5q29 36 32 87q-3 35 -27.5 55t-46.5 23q-23 3 -47 0q-87 -12 -130 -71q-8 -10 -12 -12.5t-10 3.5q-7 6 -6 18.5
t10 23.5q8 12 30.5 30.5t49.5 29.5t46.5 15t50 3z" />
    <glyph glyph-name="four" unicode="4" horiz-adv-x="433" 
d="M195 660q5 4 18 3q25 -3 32 -14q7 -16 1 -196q-2 -83 -1.5 -110t4.5 -30q2 -2 29 -3q31 -1 102 7q10 2 15 -4q7 -7 7.5 -19.5t-6.5 -14.5q-12 -4 -84 -8q-35 -1 -45 -3.5t-13 -8.5q-5 -6 -4 -87q0 -60 -0.5 -71.5t-4.5 -14.5q-4 -5 -13.5 -6t-14.5 2q-5 4 -8.5 89
t-4.5 89t-5 4q-22 -1 -110 -14q-42 -5 -51 2q-8 8 2 34q5 13 26 56.5t28 54.5q16 26 46.5 92.5t39.5 93.5t9 51q1 22 6 26zM214 564q0 11 -2 12l-1 -4q-2 -4 -14 -32q-16 -41 -67 -145q-35 -70 -35 -71t-6 -12q-5 -14 -3.5 -16t14.5 -2q18 0 45 3q25 2 45 4l16 1l1 76
q2 76 4 99q4 41 3 87z" />
    <glyph glyph-name="five" unicode="5" horiz-adv-x="526" 
d="M368 688q2 2 8.5 1.5t11.5 -3.5q12 -11 32 -11q6 0 6 -2t-17 -1q-16 1 -25 7l-7 5l-2 -12q-1 -10 -4.5 -14.5t-2.5 -10.5q1 -4 -0.5 -4.5t-4.5 3.5q-7 7 0 17q4 7 4 15.5t1 9.5zM455.5 678.5q8.5 5.5 10.5 4.5q3 0 3 -23q0 -6 -4 -12t-4 -8t-4 -9q-4 -5 -4 -12
q2 -13 -3 -20.5t-27 -10.5q-24 -4 -64 -9q-48 -6 -80 -11q-2 -6 -8 -27q-8 -27 -17 -55q-16 -56 -19 -68q18 5 50 2q25 -6 31 -3.5t25 19.5q18 15 26 16q6 2 17 1t15 -4q6 -4 2 -4q-2 0 -4 1q-6 2 -18 2q-13 0 -23 -9q-13 -9 -11 -12q1 -5 0 -7q-2 -1 -3 0.5t-1 2.5
q0 5 -0.5 5t-3.5 -4q-4 -4 -18 -15q-13 -9 -17 -13q-3 -4 -8 -6q-2 -2 4 -3q13 -3 33 17q10 10 10 9q0 -10 -19 -25q-13 -8 -21 -7t-8 3q-3 3 -5 -2q0 -5 9 -10q17 -9 40 -2q10 4 16 4q5 1 11 7q30 32 36 36q4 2 9 2q6 0 1 10q-5 4 -3 7q2 2 6 -2t8.5 -9t4.5 -7
q0 -9 -21 -11q-11 -1 -17 -7q-6 -7 -6 -9q0 -1 9 -12q30 -30 32 -86q2 -41 -9 -80t-32 -67.5t-53 -45.5q-44 -22 -106 -20q-39 2 -69.5 16.5t-45.5 35t-16 26.5q0 7 -8 16l-8 8l5 -2q6 -3 19 -18q12 -13 16.5 -15.5t15.5 -4.5q11 -1 10 2q0 2 -5 3t-16 14q-9 10 -19 20
q-7 7 -4.5 7t18.5 -17q16 -19 24 -21l8 -1q1 0 -1 2t-5 5.5t-7 7.5q-9 9 -12 13l1 1q4 -4 15 -13q17 -18 26 -19q17 -4 36 15q12 12 12 13q0 2 -1.5 1t-4 -1.5t-5.5 -1.5q-11 -6 -27 -6q-11 0 -16 1.5t-20 10.5q-21 12 -29 12q-19 3 -40 -6q-2 -1 -3 -0.5t1 1.5q0 5 13.5 9
t24.5 5t17 -1t22 -13q22 -16 37 -11q4 3 -8 10q-10 9 -15 11l-16 10q2 0 20 -8.5t24 -13.5q4 -3 9 -3t5 3q0 2 -13.5 9.5t-23.5 12.5q-13 4 -24 10q-12 7 -30 9h-19l19 1q20 0 31 -6q12 -7 24 -11q15 -5 27 -12q20 -9 26 -2q3 4 2 4.5t-10 2.5q-6 2 -32 19q-35 24 -61 24
l-10 2h4q7 2 23 0t36 -13q43 -27 56 -27q12 0 5 -8q-3 -6 -3 -8q0 -5 -7.5 -15.5t-14.5 -17.5q-17 -16 -36 -16l-21 -2q2 -2 12 -7q21 -9 57 -14q41 -5 73 8t49 30t28.5 41t15.5 57q6 36 0 63q-5 25 -20 39q-10 9 -17 8q-9 -1 -16 -5q-13 -4 -26 -1t-21 13q-7 9 -11 11
t-20 2t-34 -4l-21 -5l-14 -3q1 7 3.5 18.5t16.5 67.5q18 67 25 92t14 67q2 18 4 28t6 13.5t7 3.5t9 -2q12 -6 14 -36v-19q31 4 52 6.5t31 3.5l-2 8t1 12q7 7 7 -5q0 -15 12 -24q5 -3 13 -1t14 9q14 17 16 14q2 -1 -4.5 -9.5t-1.5 -9.5t13.5 5t14.5 17q3 4 3 4.5t-3 0.5
q-4 0 -10 -4q-7 -2 -9 -1q1 1 12 7q8 4 14.5 14t5.5 15q-1 3 -13 3q-12 -1 -13 1q1 2 3 2q8 0 16.5 5.5zM447 663q12 4 12 1.5t-5 -8t-9 -8.5l-27 -10h2q10 8 14 9q12 8 11 10q-1 1 -12 -2q-11 -2 -16 -2l10 4q11 2 20 6zM86 363l3 1q7 -1 13 -1q4 0 4.5 -1.5t-0.5 -7.5
q-4 -22 -21 -31l-9 -3q2 1 8 6q18 12 7 14q-12 0 -18 -11q-2 -1 -7 -6q-2 -2 -2 -2.5t4 -2.5l-2 -1q-6 0 -12 3l-12 6q-4 2 -6 4l-2 2q2 2 10 7q8 4 18 14q9 10 11 10t-12 -14.5t-16.5 -14.5t-2.5 -2.5t4 -2.5q3 0 6 -3q6 -6 17 5q9 7 17 11q6 2 11.5 8t3.5 8q-1 1 -5 2
q-4 0 -10 3zM81 351.5q3 1.5 7 2t7 0.5t3 -1t-4.5 -5t-6.5 -4t1 3t-1.5 3t-6.5 -2.5t-4 -0.5q0 1 1 2t4 2.5zM476 326h2h14q3 0 3.5 -1.5t-0.5 -7.5q-2 -23 -20 -31l-9 -3q2 1 9 5q17 13 5 14q-11 0 -18 -10q-1 -1 -5 -6q-4 -2 -4 -2.5t4 -2.5l-2 -2q-6 0 -11 4q-6 3 -13 6
q-3 1 -5.5 3l-2.5 2q2 3 10 8q8 4 19 14q9 10 10.5 10t-12 -15t-16.5 -15t-3 -2t5 -2q3 0 6 -3q5 -6 17 5q10 7 17 11q8 2 12.5 7.5t2.5 8.5q-1 1 -5 1q-2 1 -10 4zM471 314q2 2 6 2.5t7 0.5t3 -1t-4.5 -5t-6 -4.5t1 2.5t-2 3t-6 -2t-4.5 0l2 1t4 3zM92 242l4 -1l4 2
q0 1 -3 1t-5 -2zM52 227q14 8 13 6q0 -2 -12 -8q-19 -11 -17 -20q3 -7 13 -1q3 2 3.5 2t0.5 -3q-1 -5 2.5 -10t6.5 -5t3 -4q0 -7 -11 0q-2 1 -4 4q-6 5 -10 6.5t-7 5.5t3 12q6 9 16 15z" />
    <glyph glyph-name="six" unicode="6" horiz-adv-x="389" 
d="M279 661q22 -7 -11 -26q-25 -13 -53 -37t-46 -46q-20 -26 -45 -76t-37 -105q-9 -32 -14 -93q0 -54 10 -83t51 -60q32 -16 65.5 -15.5t64.5 23t43.5 58.5t13 63t-13.5 45.5t-34 27t-43 11t-41.5 -5t-34.5 -18.5t-25 -22q-14 -17 -26 -14q-4 1 -9 8t-5 13q0 15 35 40
t63.5 32t49.5 5t39.5 -9t41.5 -25t32 -39t8.5 -54t-9.5 -63q-14 -42 -34 -64t-50 -36t-75 -15q-38 2 -73 15q-30 16 -45 34t-26 43q-16 33 -14 103q3 77 30 160.5t84 150.5q29 33 53.5 51t43 23t36.5 0z" />
    <glyph glyph-name="seven" unicode="7" horiz-adv-x="459" 
d="M353 704q4 7 22 -1q8 -3 21 -2q14 1 15 -2.5t0 -7.5q-3 -3 -0.5 -7t-3.5 -18q-5 -14 -5 -17q0 -1 10 -2q16 -3 16.5 -11.5t-11.5 -33.5q-9 -17 -14 -28q0 -2 -1.5 -5.5t-3 -6t-1.5 -4.5q-43 -93 -78 -232q-9 -37 -9.5 -37t-0.5 -0.5t1 -1t4 -0.5h7.5h7h4.5t3 -1t-1 -3
v-12q0 -10 -5 -18q-13 -14 -29 -14q-6 0 -6 -0.5t-16 -65t-18 -70.5q-3 -8 -8 -16q-5 -7 -13 -7q-9 1 -12.5 5t-3.5 13q0 13 20 81q12 46 17 64q4 17 5 21l5.5 21.5t9.5 37.5q13 55 21 86q7 31 22.5 76.5t38.5 92.5q6 14 10 21.5t6 12t1.5 5t-0.5 1.5l-21 -10
q-37 -18 -61 -9q-11 5 -18 11t-11 6h-10q-14 -1 -37 -2q-41 -2 -73 -3q-21 0 -26 5q-7 7 -5 15q4 13 32 14q116 7 127 9.5t33 24.5q20 21 26 21q7 0 -9 -15q-13 -12 -22 -24q-9 -13 -21 -19q-18 -12 -18 -14q-1 -1 8 -2q8 -2 16 -8q6 -6 11 -6q12 0 24 15q6 9 15 13
q10 5 15 10q6 6 8 4q5 -4 18.5 7.5t16.5 19.5q1 7 -0.5 9t-6.5 2q-7 0 -17.5 4t-16.5 4q-1 0 -3 0.5t-1 3.5zM388 648h-5l-10 -1q-9 -1 -22 -8.5t-17 -13.5t-12 -14q-7 -7 -7 -9q0 -1 9 -1q13 0 34 13t27 25zM321.5 281q2.5 2 -5.5 2t-11.5 -2t-12.5 -12q-13 -14 -15.5 -14
t-0.5 -2q5 -3 11.5 -3.5t8.5 3.5l9 6q5 2 4 3q-3 2 5 7l5 3q-3 3 -20 -9l-10 -6q0 3 3 6q4 6 14 10.5t18 4.5q-1 0 -3 0.5t0.5 2.5zM320 267q4 3 4.5 3t-5.5 -5q-4 -2 -4 -1q1 0 5 3zM329 264v1q-3 0 -14 -6.5t-15 -8.5q-4 -6 -6.5 -6h-2.5l1.5 -0.5t6 0t9.5 1.5q6 1 13.5 8
t7.5 11zM356 675q7 4 15.5 5.5t14 1t5.5 -4.5q0 -3 -9.5 -11t-14.5 -10q-4 -1 -4 1l1 2q2 5 7 9t4 5l-2 -1q-6 -3 -10 -3q-5 0 -16 -6t-13 -6q-7 0 6 8q7 5 16 10zM63 581q21 4 37 -6q23 -12 26 -37q2 -7 2 -17t-1.5 -19t-3.5 -9t-3 17q0 18 -5 32t-10 17.5t-13 3.5h-5l6 -6
q20 -25 20 -41q0 -7 -1.5 -7t-5.5 11q-7 23 -28 37q-8 5 -10.5 5t-8.5 -9q-5 -6 -3 -8q10 -8 10 -16q0 -3 -11 -14t-11 -14q0 -16 10 -26q26 -22 48 -15q7 3 6 3q0 1 -1 1q-7 0 -42 26l-6 6q5 1 21 -7q29 -15 34 -13q-1 1 -15.5 14.5l-14.5 13.5q-3 0 -9 5q-12 8 -8 9
q2 1 7 -1q3 -3 10 -4q7 -2 14 -10q20 -21 34 -21q16 0 2 -8q-3 -3 -1 -4q12 -6 -9 -16q-28 -11 -51 -2q-7 1 -18.5 12t-18.5 20q-5 8 -4.5 17.5t6.5 13.5q6 5 6 5.5t-5 -3.5q-6 -4 -8 -1q-1 1 2 12q5 10 2 20t1 17q6 13 27 16zM53 559q3 8 3 7q0 1 -2.5 -0.5t-3.5 -4.5
t-1 -4q0 -9 4 2zM49.5 526.5q1.5 1.5 -0.5 3.5q-1 1 -1 0q-2 -3 -1 -4t2.5 0.5zM73 538q-5 7 -3.5 7t5.5 -3q5 -4 10.5 -15t2 -14t-7.5 9q-2 10 -7 16zM122 190q2 2 9.5 1.5t11.5 -3.5q12 -11 32 -11q7 0 7 -3t-18 -1q-16 1 -25 6l-6 4l-2 -9q-1 -11 -4.5 -15.5t-2.5 -9.5
t-1 -5.5t-6 3.5q-8 6 0 18q4 6 4 14.5t1 10.5zM210.5 180.5q8.5 4.5 10.5 4.5q3 0 4 -24q0 -6 -4 -12q-5 -5 -5 -9q0 -3 -11 -15.5t-16 -13.5h-4q-10 1 2 4q8 3 16 18q3 4 1 4q-4 0 -9 -4q-8 -2 -11 1q3 1 12 6q8 5 14.5 14t5.5 14q-1 2 -12 2q-12 -1 -15 2q2 4 7 4
q6 0 14.5 4.5zM202 165q13 5 13 1.5t-5.5 -9t-9.5 -8.5l-22 -8h-4q11 7 14 9q12 6 11 7t-11 -2q-11 -2 -22 -2l15 6q12 2 21 6zM119 139q7 1 9 -7q0 -15 12 -23q5 -4 12.5 -1.5t12.5 9.5q15 17 18 14q4 -1 -3 -9.5t-4 -8.5q11 -4 -8 -10q-26 -8 -36 0q-5 4 -10 13.5t-5 13.5
q0 5 2 9z" />
    <glyph glyph-name="eight" unicode="8" horiz-adv-x="404" 
d="M232 660.5q31 -2.5 55 -13.5q19 -9 31 -26q21 -27 24 -61q4 -45 -20 -81q-25 -37 -60 -65q-17 -11 -21 -18q13 -6 39 -26q47 -36 71 -74q15 -24 19 -38.5t4 -38t-10.5 -49t-40 -49t-67.5 -36.5q-38 -11 -82 -2q-96 22 -128 100q-16 33 -6 68q18 62 80 109q24 16 38 28
q0 6 -34 22q-14 8 -26 16t-24 26q-13 19 -15 46q0 26 7 50q13 31 24 46.5t34.5 33.5t50 26.5t57.5 6zM257 622q-30 11 -62 3q-21 -5 -43.5 -21.5t-37.5 -47.5q-40 -73 23 -113q17 -10 37.5 -17.5t27.5 -5.5q4 2 12 8t26 19q53 47 58 75q5 29 1.5 47.5t-11.5 30t-31 22.5z
M202 370q-7 0 -70 -56q-25 -29 -37 -49q-13 -21 -14 -37.5t13 -45.5q17 -28 39 -43t58 -23q18 -4 29 -2.5t34 11.5q37 14 56 45q17 27 19 44.5t-1.5 31t-14.5 32.5t-32.5 41t-43.5 35t-35 16z" />
    <glyph glyph-name="nine" unicode="9" horiz-adv-x="418" 
d="M152 669q28 6 50 -9q8 -4 9 -4q35 19 64.5 18.5t50.5 -10.5q28 -14 45 -36.5t17 -38.5q0 -22 -45 -133q-31 -77 -45 -136q-4 -15 -7 -23q-3 -9 -2 -9q1 -1 5 2q13 10 52 10q29 0 31.5 -2.5t-1.5 -9.5q-3 -7 -2 -12q2 -4 2 -14.5t-3 -15.5q-13 -26 -57 -40q-13 -5 -36 -4
q-22 1 -24 -1q-1 -4 -14 -44q-20 -61 -34 -70q-8 -6 -18 -6q-13 0 -14 6t6 28l18 51q13 36 16 44q4 13 2 15q-1 2 -9 5t-8 5q0 1 13 6q11 4 14.5 9t9.5 25q4 12 14 44q12 45 12 54q0 7 -16 -2q-16 -8 -34 -12.5t-42 -0.5q-73 19 -87 86q-9 31 -2 69t24 63q14 20 20 19
q1 0 1 7.5t6 12t6 6t-6 -1.5t-6 0t4 10q3 7 1 12q-5 9 1 17.5t18 10.5zM150 652q2 5 2 7t-6 -3q-7 -7 -2 -9q1 -1 2.5 1t3.5 4zM198 655q-9 9 -9 2q0 -2 -5 -1h-3q0 -1 3 -5q20 -19 21 -32l1 -9l-5 9q-5 10 -11 18q-6 7 -15 13.5t-12 6.5q-1 0 -7 -7q-5 -5 -5.5 -6.5
t2.5 -4.5q7 -5 6.5 -10t-8.5 -12q-10 -8 -11.5 -12t1.5 -10q5 -11 23 -21q17 -9 35 -4q5 2 5.5 3t-3.5 2q-5 0 -24 12l-20 13v0q1 1 15 -5q15 -8 27 -10l12 -4l-13 13q-14 11 -24 16q-10 4 -11 7t2 2q1 0 3 -3q7 -4 11 -4t19 -11t24 -11t8 -4q0 -1 -4 -2q-3 -4 2 -7
q3 -2 2 -3.5t-10 -4.5q-10 -5 -26 -7q-23 -1 -36 7l-7 3.5l-3 1.5q-2 -3 -9.5 -13t-13.5 -29q-19 -58 5 -102q10 -15 24.5 -24.5t41.5 -11.5q32 4 60 27q40 36 55 82q12 35 19 58q6 19 7 32t-4 19q-8 15 -26 23q-31 11 -60 2q-19 -6 -23.5 -9.5t-4.5 -15.5t-2 -13
q-3 -3 -3 12q0 29 -16 44zM146 626q1 3 -1 3q-3 1 -4 -2q-1 -2 1 -3q2 0 4 2zM145 578.5q0 1.5 -6 6.5t-6 3t6 -6.5t6 -3zM344 291q-16 0 -23 1q-25 3 -59 -36q-15 -16 -33 -19l-10 -1l13 -9q23 -14 41 -6q10 2 13 6q4 5 18 13q44 20 49 23t4 4q-2 1 -11 -4q-4 -3 -14 -7
t-17.5 -6.5t-7.5 -1.5q0 2 19 10q28 13 13 12h-2q-30 -3 -60 -24q-12 -10 -16 -10l3 5q4 4 12 10q19 15 21 15q4 0 6 2q5 3 22 7.5t25 4.5q13 0 13 3h-3l-5 2h-9q-7 0 -2 3q2 2 8 2q4 0 -1 0q-2 1 -7 1zM364 255q0 5 -3 5t-3 -1.5t-27 -12.5q-28 -13 -40 -23t-19 -10t-8 -2
q-4 -4 22 -3h5q39 2 59 22q14 16 14 25zM166 639l2 1q3 -3 8.5 -10.5t5.5 -10.5q0 -10 -6 3q-1 2 -2 3q-4 9 -8 14zM92 141l-12 2l12 -1q11 0 24 -7q25 -13 35 -13q5 0 5 -2t-5 -12q-7 -11 -17 -16t-29 -6q-15 -1 -20 0.5t-16 11.5q-5 7 -6 8q0 2 12 -8q10 -10 18 -10h6
q-1 0 -8 7q-6 5 -5 3h2q10 -7 12 -6t-8 10q-1 1 -1 2t7 -6q13 -10 17 -10q5 0 13 4t11 6q3 5 2 5t-9 -2q-15 -4 -38 7q-9 5 -14 5t-22 -2q-4 -1 -4 -0.5t4 2.5q8 3 17 4q10 1 24 -5q15 -7 21 -7t6 0.5t-4 2.5q-7 5 -11 7q-5 3 0 2q4 -1 11 -5q6 -4 10 -4t0 4q-8 4 -25 10
t-26 8l-11 1l11 1q10 0 18 -4q39 -17 45 -15q4 3 0 5q-4 0 -22 10q-17 10 -30 13zM31.5 121.5q1.5 3.5 2 0t5.5 -2.5t6 -3t3.5 -4t2.5 -2q0 -5 -8 1q-1 2 -7 5q-6 2 -4.5 5.5z" />
    <glyph glyph-name="colon" unicode=":" horiz-adv-x="218" 
d="M84 587q24 4 44 -5.5t29 -29.5q5 -10 6 -37q2 -38 -3 -38q-3 0 -3 20q0 21 -6 36q-10 30 -21 36q-3 1 -5.5 -2t-7.5 0q-6 3 -5.5 0t8.5 -11q22 -28 25 -48q1 -11 -1 -11t-4 10.5t-10 22.5q-6 9 -17 20.5t-17 13.5q-6 3 -11 -2t-10 -11q-3 -7 0 -9q4 -2 7.5 -8.5
t3.5 -11.5q0 -6 -12 -18q-18 -16 -13 -31q2 -8 2 -11q0 -2 12 -11.5t21 -15.5q10 -6 22 -5t20 5l7 2l-6 4q-6 2 -10 3q-1 2 -25 17q-24 16 -24 18q0 5 8 -1q14 -8 37 -18t26 -7l-0.5 1t-2.5 2.5t-4 3.5q-9 6 -17 16q-10 10 -17 14q-16 7 -20 17q-2 3 0 2l3 -2q6 -4 7 -5
q4 -2 11 -4q7 -1 18 -12q27 -25 40 -25q8 0 8 -2q0 -6 -8 -9q-4 -1 2.5 -4t5.5 -5q-2 -9 -29 -17q-10 -4 -27 -4q-18 0 -29 5.5t-24 20.5q-23 26 -23 39q0 9 7 17q9 8 6 10q-1 0 -6 -4q-6 -4 -7 -2q-5 2 5 16q2 5 1 14q-3 27 4 37q8 11 29 14zM73 560q5 10 2 10
q-1 0 -6.5 -4t-4.5 -10q2 -12 9 4zM67 522q0 5 -1 5q-2 0 -3.5 -4.5t-0.5 -6.5q4 0 5 6zM94 538q-3 5 -1.5 4.5t6.5 -5.5q5 -4 11 -16t6 -15q-2 -9 -6 -2q-1 2 -1 3q-7 23 -15 31zM114 227q19 13 38 -9q16 -17 -5 -35q-7 -7 -19 -6q-19 2 -25 15q-11 22 11 35z" />
    <glyph glyph-name="semicolon" unicode=";" horiz-adv-x="273" 
d="M165 609q9 3 25 -4q8 -3 24 -2q12 1 15.5 -1t1.5 -8q-3 -4 -0.5 -9.5t-2 -17t-4.5 -13.5q0 -4 -10.5 -20t-15.5 -21q-6 -6 -13 -10q-8 -3 -11 -6q-2 -3 -4 -3q-4 0 -11 -4q-17 -10 -35 -10q-11 0 -24 5.5t-19 11.5q-5 6 -13 7.5t-17 7.5q-11 6 -10 9q0 7 22 18
q27 13 35 22q39 43 49 41q3 0 -7 -10q-12 -8 -24 -23q-26 -31 -38 -37l-14 -8q-6 -5 -4 -8q2 -2 9 -2q9 0 21 -11q12 -9 22 -3t22 20q7 10 9 10q9 0 23 13q6 6 10 5q3 -2 12 2t15 8q13 14 16 26q1 7 -1.5 8.5t-9.5 1.5t-18.5 5t-17.5 5q-5 2 -7 5zM207 542q0 3 -17 1
q-7 -3 -10 -1q-2 1 -16 -9q-27 -14 -27 -24q0 -2 -9 -11q-10 -8 -10 -10t11 -2q23 0 54 23q14 11 19 21q5 8 5 12zM168 572q21 10 24 8t7.5 0t7.5 0q6 -5 -7 -14q-8 -5 -14 -10q-8 -5 -9 -3.5t6.5 9.5t7 9t-7.5 -2q-6 -2 -9 -1t-18 -7q-14 -7 -15 -6t6 6t21 11zM125 267
q13 8 30 -7q9 -9 9 -20q0 -21 -47 -91q-37 -51 -48 -47q-5 8 2 27q6 15 12 27q1 3 10 22q21 47 21 70q0 12 11 19z" />
    <glyph glyph-name="less" unicode="&#x3c;" horiz-adv-x="446" 
d="M335 605q6 10 13 9.5t10 -10.5q8 -24 -27 -68q-17 -24 -93 -105q-125 -129 -125 -135t122 -60q27 -12 47 -26q42 -28 114 -68q7 -4 8.5 -7t-0.5 -10q-2 -12 -8 -18q-8 -8 -24.5 -1t-78.5 47q-25 15 -106 56.5t-105 50.5q-42 15 -42 31q0 6 24 24q21 15 86.5 79t109.5 112
q52 57 75 99z" />
    <glyph glyph-name="equal" unicode="=" horiz-adv-x="486" 
d="M385 483q3 0 7.5 0.5t5.5 0.5q6 1 14.5 -6.5t8.5 -13.5q0 -8 -6.5 -14.5t-12.5 -8.5q-12 -3 -120.5 -9.5t-157.5 -7.5q-70 -2 -75 2q-9 11 0 21q9 8 90 12q125 7 198 18q28 3 48 6zM420 333q2 2 8 1.5t10 -2.5q5 -4 7 -23l1 -19l-37 -2q-203 -8 -267 -21q-17 -4 -50 -5
q-31 -1 -39.5 1.5t-8.5 14.5q0 8 7 11t34 8q25 3 78 12q65 11 168 17q88 6 89 7z" />
    <glyph glyph-name="greater" unicode="&#x3e;" horiz-adv-x="529" 
d="M68 588q5 4 13 4t14 -5q10 -6 145.5 -73t171.5 -83q54 -23 65 -35q12 -15 5 -26t-43 -32q-76 -47 -128 -86q-2 -2 -14 -11t-34 -26t-38 -29q-86 -64 -101 -75q-25 -19 -38 -19q-46 0 8 40q13 10 47 39q31 25 55 41q52 36 131 99q18 13 31 22q17 8 36 26l18 18l-11 10
q-10 9 -25 14q-17 7 -45 23q-56 30 -172 91q-34 18 -52.5 29t-30 20t-12 13.5t3.5 10.5z" />
    <glyph glyph-name="question" unicode="?" horiz-adv-x="332" 
d="M129 695q38 12 81 7q53 -8 67.5 -42t2.5 -70.5t-36 -83.5q-50 -77 -65.5 -118.5t-27.5 -124.5q-7 -45 -11 -50t-11 -1.5t-11 13.5q-10 19 7 99q9 48 21 79.5t40 76.5q53 88 65 123q5 31 -8.5 46t-28.5 18t-32 3t-39 -4t-47.5 -23t-24.5 -67q1 -22 -2.5 -30t-9.5 -8
q-7 0 -13 10t-6 37.5t17 59t72 50.5zM94 184q25 7 47.5 -1.5t32.5 -27.5q4 -7 7.5 -36t0.5 -37q-3 -14 -6 0q-1 6 -1 17q0 18 -6 37t-14 25q-3 3 -9 4.5t-10.5 1.5t-4.5 -2q0 -1 6 -7q7 -6 16 -22.5t10 -24.5q0 -4 0.5 -6.5t0.5 -3.5v-1q-1 0 -10 20q-8 15 -23 30.5
t-21 15.5q-4 0 -12 -11q-6 -7 -6 -9.5t6 -9.5q9 -8 7 -15t-14 -17q-9 -10 -11 -14t-1 -12q3 -20 28 -37q26 -18 49 -6q5 4 5.5 4.5t-5.5 1.5q-6 3 -26 17q-24 16 -27 17q-5 2 -3 5q2 1 25 -11q24 -12 33 -15q9 -1 8.5 1t-14.5 14q-16 17 -30 25q-13 8 -13 12t7 -1
q6 -5 12 -5q5 0 27 -19q21 -18 31 -18q8 0 10 -3t-5 -7q-5 -3 0 -8q5 -3 4 -4.5t-7 -5.5q-16 -12 -39 -13.5t-39 5.5q-13 7 -28 26q-27 31 -9 51q10 8 5 8q-2 0 -7 -5q-6 -8 -6 0q-1 5 2 11q5 12 3 29q-3 18 6 26q7 9 18 11zM91 159q5 8 2.5 9.5t-8.5 -6.5q-6 -6 -2 -9
q3 -4 8 6zM86 116q2 2 0 6q-1 4 -3 0q-3 -4 0 -6q1 -2 3 0zM122 120q-6 17 -3.5 17t9 -12t6.5 -18q0 -14 -9 9q-1 2 -3 4z" />
    <glyph glyph-name="at" unicode="@" horiz-adv-x="567" 
d="M295 691q44 11 82 -1.5t83 -53.5q33 -29 45 -64t13 -104q0 -48 -5.5 -74t-25.5 -67q-31 -65 -71 -84q-19 -9 -33 -6t-33 22l-20 20l-29 -22q-78 -58 -120 -13q-18 19 -24 70q-12 88 53 166q22 25 40.5 36.5t44.5 15.5q33 6 47.5 1.5t32.5 -24.5q19 -21 19.5 -37
t-15.5 -80q-11 -45 -13 -57.5t2 -24.5q4 -16 13.5 -26t18.5 -8q10 3 26.5 22.5t27.5 41.5q37 69 27 172q-5 46 -10 58q-5 13 -23.5 32t-40.5 35q-19 14 -28.5 16t-44.5 2t-45.5 -2t-36.5 -15q-35 -18 -70 -53q-30 -30 -44.5 -55.5t-32.5 -79.5q-15 -45 -19.5 -71t-4.5 -69
q0 -44 5.5 -66.5t25.5 -65.5q17 -35 43 -55.5t71 -33.5q33 -10 77.5 -6t86.5 20q34 14 78 81q16 24 23 29t13 -3q8 -10 -8.5 -41t-46.5 -64q-17 -19 -31 -28t-37 -18q-24 -8 -94 -8q-53 0 -66 2t-36 11q-33 13 -49.5 24t-29.5 28q-15 20 -33 58t-26 67q-6 22 -6.5 35.5
t2.5 55.5t6.5 60t19.5 65q21 62 40 95t53 65q57 54 133 74zM342 505q-28 11 -63 -6q-18 -9 -40.5 -34.5t-38.5 -54.5q-10 -18 -11 -27t0 -44q1 -46 9.5 -63t29.5 -17q12 0 32.5 12t34.5 27q14 16 23 38.5t24 82.5q12 47 12 64t-12 22z" />
    <glyph glyph-name="A" unicode="A" horiz-adv-x="502" 
d="M225 656q6 7 20 1q13 -6 26.5 -36t38.5 -114q37 -127 67 -209q61 -159 79 -193q6 -12 6 -14.5t-5 -6.5q-7 -5 -16 -5q-11 0 -19 9.5t-15 33.5q-12 35 -44.5 117t-37.5 84q-4 4 -34 2q-74 -4 -110 -13q-28 -6 -35.5 -11.5t-16.5 -29.5q-34 -72 -52 -136q-6 -20 -10 -26
t-10 -5q-9 4 -13 12.5t-3 19.5q2 21 31 77q10 19 55 155q12 36 42 117q46 122 48 147q2 18 8 24zM251 578q-7 9 -11.5 3.5t-22.5 -51.5q-26 -67 -46 -123t-16 -58q1 -2 63.5 4t76.5 10q16 2 16.5 9t-27.5 103.5t-33 102.5z" />
    <glyph glyph-name="B" unicode="B" horiz-adv-x="527" 
d="M196 648q17 7 33 10t44 2q45 -2 70 -15t35 -27.5t15.5 -27t4 -28t-6.5 -28.5q-7 -28 -36 -63q-19 -21 -21.5 -26.5t3 -8.5t15.5 -3q14 -2 33.5 -7.5t37 -15.5t26.5 -19.5t16 -20.5q22 -42 -25 -112q-16 -26 -44.5 -54.5t-55.5 -46.5q-12 -8 -43.5 -24.5t-49.5 -23.5
q-31 -13 -72 -22q-39 -7 -61 -4t-28 18q-2 4 -5 4t-13 -5q-13 -6 -20.5 -3t-5.5 7q6 14 46 204q11 60 19 139q12 81 16 117q6 36 9 63q-1 12 5 19q11 12 25 -1l9 -7zM254 630.5q-24 -0.5 -48 -6.5q-20 -6 -28 -8.5t-10.5 -6t-3.5 -11.5q-5 -19 -7.5 -52.5t-21.5 -168.5
q4 -2 28.5 5t47.5 17q33 14 69 40q35 30 48 45.5t22 35.5q19 37 11 58q-6 24 -31 37q-18 9 -35 12.5t-41 3zM378 394q-15 5 -33 4q-27 0 -56 -8.5t-88 -31.5q-44 -19 -61 -24q-14 -5 -15 -8.5t-10 -46.5q-14 -74 -21 -105.5t0 -43.5q19 -16 40.5 -16t58.5 10q25 7 55 20.5
t53 26.5q26 18 46 36q39 34 64 70t25 58q0 15 -8 27q-15 23 -50 32z" />
    <glyph glyph-name="C" unicode="C" horiz-adv-x="541" 
d="M68 701q11 5 25 4.5t23 -5.5q9 -4 18 -14q6 -7 7.5 -12.5t1.5 -23.5q2 -25 -1 -25t-3 16.5t-8 30.5q-4 12 -8.5 16t-12.5 4q-6 0 -6.5 -1t5.5 -6q7 -7 14 -20.5t7 -19.5q0 -5 -2 -2q0 1 -3 6q-8 23 -28 36q-8 4 -9.5 4t-7.5 -5q-11 -13 -4 -13q3 0 5 -6q6 -10 -12 -25
q-7 -6 -6 -15q2 -12 17 -24t27 -12q12 3 21 9q-3 0 -15 6.5t-22.5 14l-10.5 7.5q1 1 18 -7q18 -8 26 -10l9 -1q-2 1 -12 11q-15 12 -24 19q-10 5 -10 7q0 4 3.5 0.5t7 -3.5t3.5 3q0 5 -6 16q-6 10 -3 10q5 -3 10 -13.5t4 -13.5q-1 -4 17 -17.5t24.5 -13.5t8 -2t-4.5 -6
q-5 -2 0 -3q9 -3 -6 -11q-2 0 -4 -2q-32 -14 -55 -1q-9 5 -22 20q-24 26 -7 35q5 4 5 6t-4 -1q-6 -5 -7 -1q0 3 2 9q4 9 3 17q-4 22 12 28zM73 685q2 5 1 7t-6 -3q-7 -6 0 -11q1 0 2 4zM69 659q-4 6 -4 -3q0 -3 3 -1q2 1 1 4zM297 655q22 5 59 0t65 -18q21 -10 15 -16
q-3 -4 -55 2q-44 5 -57.5 4.5t-36.5 -12.5q-32 -15 -50 -40q-40 -56 -72 -153t-32 -162q0 -18 1.5 -25t8.5 -21q8 -13 11 -16.5t9 -3.5q9 -1 10 -4q2 -2 -3 -3h-3q-9 -2 -27.5 1t-28.5 9q-11 7 -13 7q-3 0 -1 -15q1 -15 -7 -22t-5 -12q4 -10 0 -10q-5 0 -10 5.5t-5 9.5
q0 7 6 14q6 9 7 20q2 20 14 20q3 0 3.5 2t-0.5 11q-6 35 4 95q14 75 45.5 158.5t59.5 118.5q34 41 88 56zM418 598q0 1 5.5 1.5t12.5 0t12 -2.5q11 -5 29 -3q14 1 18.5 -2t0.5 -9q-3 -6 0 -11q5 -7 -18 -47q-9 -21 -19.5 -29.5t-39.5 -21.5q-25 -12 -51.5 -11t-44.5 16
q-7 6 -18 8q-9 1 -18 7.5t-9 10.5q0 5 5.5 9t27.5 15q27 13 38.5 26.5t26.5 25t21 11.5t-12 -15q-20 -17 -33 -34q-15 -16 -30 -24t-20 -12q-6 -5 -2 -7.5t11.5 -2.5t20.5 -10q13 -8 21 -6.5t23 16.5q15 14 28 21q13 6 19 10.5t19 6.5t25 15q22 21 15 33q-1 1 -11 1t-23 5.5
t-21.5 5.5t-8.5 3zM465 518q4 9 1.5 10.5t-18.5 -0.5q-19 -3 -39.5 -15t-21.5 -21q0 -2 -11 -12q-12 -9 -9 -11q3 -4 16.5 -1.5t26.5 7.5q44 21 55 43zM425 561q17 9 20.5 9.5t5.5 -2t7.5 0t8.5 1.5q9 -5 -13 -21q-17 -11 -18 -7q-1 0 5 6q7 8 6.5 9.5t-10.5 -0.5
q-12 -2 -30 -10l-14 -5q1 1 4 2q8 8 28 17zM445 200q16 21 27 14q6 -3 4.5 -16t-9.5 -24q-13 -18 -50 -47t-55 -35q-31 -10 -70 -10q-41 0 -71 13q-12 5 -16 5.5t-10 -1.5q-12 -6 -14 -3q-2 2 6 5q7 5 17.5 16.5t10.5 15.5q0 6 -21 -5q-9 -4 -19.5 -14.5t-10.5 -14.5t5 -4
q12 0 -8 -8q-4 -1 -10 -3q-26 -8 -39 -4.5t-25 19.5q-8 13 -7 25q1 11 5 13q2 0 3 -3q1 -2 1 -6q3 -18 15 -30q7 -9 10.5 -10t12.5 0q13 2 19 6.5t14 16.5q10 13 15.5 13t5.5 2t18 12q14 6 23.5 18t8.5 21q0 5 -2 6t-8 0q-27 -1 -33 5q2 2 12.5 2t22.5 7t15 6t3 -8
q0 -10 2 -17q4 -7 -1.5 -18t-9.5 -14q-3 -2 -3 -8t19 -15q19 -8 49 -8t48 8q23 10 52.5 33t47.5 44zM202 172q24 7 24 2q0 -3 -9 -11t-16 -12q-10 -5 -25 -10.5t-15 -3.5l23 12t23 14q0 5 -22 -1q-22 -5 -25 -3l10 4q6 2 32 9z" />
    <glyph glyph-name="D" unicode="D" horiz-adv-x="537" 
d="M149 623q0 31 1 36t7 5q12 0 17.5 -6.5t6.5 -22.5q3 -16 4 -30q0 -13 2.5 -13t5.5 13q3 7 5 9t11 5q15 8 49 7t67 -8q43 -7 86 -30q32 -17 49.5 -36t23.5 -31q8 -13 10.5 -35.5t0 -46t-8.5 -38.5q-23 -64 -68 -114q-42 -48 -76 -77t-84 -62q-58 -36 -96.5 -50
t-70.5 -17.5t-44 2.5q-7 2 -6.5 6t8.5 24q8 21 15 45t20 77q13 56 21 93.5t12 60.5q8 36 20 115t12 119zM294 589q-42 5 -59 1l-7 -0.5t-12 -0.5q-30 -5 -38 -33q-5 -14 -11 -61q-12 -92 -25.5 -152t-33.5 -143q-7 -26 -10.5 -42t-3.5 -26.5t1.5 -14t7.5 -3.5q16 0 59 18
t70 36q45 30 101.5 82.5t84.5 90.5q15 19 27.5 58.5t12.5 66.5q0 34 -16 53q-12 14 -45 33.5t-59 27.5q-16 6 -44 9z" />
    <glyph glyph-name="E" unicode="E" horiz-adv-x="515" 
d="M113 727q9 4 34 4q20 0 31.5 -3t28.5 -14q19 -13 28 -36l4 -12l57 -1q56 -2 63 -3q11 -4 2 -12q-6 -4 -98 -10l-22 -1l1 -16q3 -34 -6 -34q-4 0 -4 28q0 25 -7 43q-13 33 -25 43q-11 10 -15 2q-2 -2 -9 -1q-11 5 -7 -1q1 -2 8 -8q17 -16 30 -41t8 -35q-1 -4 -4 2
q-2 3 -3 9q-5 14 -13 27q-8 12 -25 27.5t-25 18.5q-8 2 -12.5 -1t-14.5 -15q-6 -8 -6 -9.5t4 -4.5q15 -10 15 -24q0 -7 -18 -24q-18 -16 -20 -22q-1 -7 4.5 -20t13.5 -22q10 -8 26 -17.5t24 -11.5q23 -5 45 6q9 4 3 5q-9 3 -49 27q-7 3 -14 7.5t-12.5 7.5t-5.5 4q-5 2 -3 5
t10 -2q35 -20 62 -27q22 -6 22 -4q1 1 -22 21q-28 25 -37 28q-5 3 -11 8t-10 9l-4 4q2 2 10.5 -4t18.5 -8q11 -1 30 -17q38 -32 55 -31q11 1 12 -2.5t-7 -9.5l-9 -4l9 -5q7 -2 7 -5t-15.5 -11t-25.5 -11q-9 -2 -27 -5q-15 0 -17.5 -4t-9.5 -43q-6 -33 -13 -54
q-11 -34 -6 -38.5t40 6.5q22 8 66 20q33 9 46 12q16 5 37 5t27 -4q8 -7 0 -21q-6 -7 -18 -8q-50 -7 -126.5 -27t-84.5 -29q-15 -18 -33 -131q-7 -45 -10 -61q-4 -18 -4 -23t5 -9q6 -4 12 -3q8 1 31 3q18 1 21.5 2t4.5 8q0 7 2 8.5t8 1.5q8 1 13 -2q15 -11 57 -11q31 0 38 3
q7 5 11 0q2 -2 68 -1h51t27.5 -2.5t10 -7.5t-1.5 -12q-5 -11 -16 -13t-70 -1q-56 2 -67.5 0.5t-11.5 -8.5q0 -4 -13.5 -18.5t-19.5 -16.5q-5 -1 -8 -1q-3 1 4 5q11 4 22 20q4 7 0 7q-5 -1 -11 -5q-11 -4 -12 -1q1 1 14 7q11 6 19.5 16.5t5.5 15.5q-1 5 -6 5q-4 -1 -43 1
q-38 2 -49 9l-11 5l-1 -13q-1 -13 -6 -17t-2 -9q1 -5 -5 -6q-7 -1 -53 -1q-58 0 -61 3q-4 4 2 23q13 47 21 95q7 41 15 81q29 128 36 152q5 15 10 55t2 42q-29 25 -48 49q-8 11 -8 25q0 10 1 12.5t10 8.5q10 8 9 11q0 2 -9 -3q-10 -7 -12 -3q-4 3 -6 2q-5 -1 -11 3t-6 12
q0 11 11 15q10 3 12.5 2t1.5 -10v-11q1 1 5 8q5 7 0 38q-3 14 7 25.5t26 14.5zM115 699q6 9 3.5 10.5t-11.5 -5.5q-6 -3 -7 -10t4 -10q3 -3 3 1t8 14zM103 641q3 3 2 9q-1 5 -1.5 5t-3.5 -4q-6 -10 -1 -11q1 0 4 1zM146 667l-4 6l1 -1q12 -5 23 -26q13 -23 4 -23
q-4 0 -11 18.5t-13 25.5zM394 364q9 4 29 -3q19 -8 37 -2q4 2 9.5 -1.5t1.5 -9t-1 -10.5t-2 -16.5t-5 -12.5q0 -10 -23 -38q-11 -13 -52 -31q-17 -7 -41 -7t-27 2q-4 3 -11 4t-13 8q-6 8 -12 8q-13 0 -30 12q-6 4 -2.5 10t29.5 17t34 20q43 43 54 43q5 0 5.5 -0.5t-5.5 -5.5
q-19 -14 -40 -36q-19 -21 -38.5 -32t-19 -13t12.5 -4q12 -3 18 -8q14 -12 25 -9q6 1 19 11.5t13 13.5t14 8q10 5 22 12q10 8 12 7q3 -1 14 1q10 3 21.5 14t12.5 20q3 9 1 11t-10 2q-9 0 -21.5 4.5t-18.5 4.5t-11 1q-4 3 -1 5zM442 296q-1 2 -4 2t-5 -2t-14 -2q-10 0 -29 -9
t-23 -18q-6 -7 -17 -18q-12 -10 -12 -11.5t14.5 -1.5t30.5 8q33 13 48 29q5 5 8.5 13t2.5 10zM394 325q23 10 36 9q15 0 16 -3q1 -1 -3 -5t-21 -15q-13 -9 -14 -7t11 14q5 7 3 8q-3 0 -6 -2q-6 -3 -11.5 -3t-21.5 -7q-19 -9 -18 -5q0 1 4 2q4 3 25 14zM263 100q15 3 15 0.5
t-6 -8.5t-11 -8l-35 -14l1 1q15 8 20 11q14 9 13 11q-1 1 -15 -2q-14 -4 -20 -4l11 6q15 3 27 7zM159 69q6 1 7 -8q0 -16 17 -25q6 -5 17 -2t17 10q18 18 21 17q3 -2 -5.5 -12t-3.5 -11q10 -1 -10 -8q-32 -9 -44 0q-6 4 -13 14.5t-7 16.5q0 4 4 8z" />
    <glyph glyph-name="F" unicode="F" horiz-adv-x="538" 
d="M273 667q2 1 71.5 0.5t74.5 -4.5q2 -3 0 -9q-4 -6 -13 -10q-11 -4 -45 1q-16 3 -111 -4q-74 -5 -79 -10q-6 -5 -6 -40q0 -25 5 -35q11 -21 9 -60q0 -21 -3 -22q-2 0 -2.5 0.5t-1 3t-0.5 6.5v12q0 24 -7 37q-5 15 -13.5 26.5t-12.5 11.5q-6 1 -6 -1.5t-7 -1.5q-6 1 -6 0
t9 -11q13 -14 21 -29q9 -15 7 -25l-1 -10l-3 13q-5 16 -20.5 34.5t-30.5 25.5q-7 2 -8 2t-6 -5q-12 -12 -13 -14.5t7 -10.5q7 -8 7 -16q0 -7 -15 -20q-13 -10 -15 -17t2 -19q5 -10 19 -21q33 -26 65 -16q16 5 5 7q-7 0 -16 8q-8 6 -29 18q-22 12 -22 14q0 5 12 -2
q14 -9 40.5 -18.5t29.5 -6.5q0 1 -5 5q-5 3 -22 18q-15 13 -22 18q-9 2 -15.5 7.5t-6.5 9t7 -1.5q6 -7 16 -8q9 -1 20 -11q12 -9 25.5 -18.5t24.5 -9.5q18 0 2 -11q-4 -2 -4 -3.5t4 -2.5q7 -2 7 -5q0 -5 -31 -16q-9 -4 -11 -6t-3 -8q-3 -20 3 -20q2 0 24 6q58 15 115 24.5
t93 13.5q30 1 36 -2t5 -13q-2 -11 -3 -13q-5 -5 -54 -9q-61 -5 -128 -18q-25 -5 -74 -14q-14 -2 -18 -7t-7 -30q-2 -9 -8 -43q0 -3 -2 -15t-4 -17q-11 -76 -22 -121q-8 -42 -11 -45q-1 -2 -9 -2t-15 2q-5 2 -5 8.5t6 34.5q33 144 42 229l4.5 36t1.5 23q-1 1 -6 1
q-20 0 -48 29q-17 17 -20.5 23t-3.5 15q0 11 8 19q9 9 9 11q0 1 -4 -2q-4 -4 -7 -4q-2 0 -3 -1q-1 -4 -3 -2q-3 3 3 17q6 13 3 23q-8 27 13 40q9 5 28.5 7t31.5 -1l12 -3l-1 17q-1 18 -8 23t-31 8q-35 4 -44 11q-3 3 -3 7q0 8 14.5 9t101.5 3q109 1 110 3zM80 573
q0 3 -11 -5q-8 -6 -7 -10q3 -12 11 3q7 11 7 12zM69 521q0 5 -3 5q-1 1 -3 -3q0 -1 -1 -3t-1 -3q-1 -2 2.5 -1t4.5 1t1 4zM100 538q-4 4 -4 5l10 -5q4 -5 11 -17.5t7 -15.5q0 -4 -3 -4t-10 16q-6 16 -11 21zM444 334q4 2 17 -3q10 -2 21 -1q9 1 12.5 -0.5t-0.5 -5.5
q-2 -4 0 -6q4 -7 -10.5 -32.5t-20.5 -25.5q-3 0 -8 -5q-19 -11 -40 -12q-21 -3 -39 11q-6 6 -11 6q-3 0 -11.5 4t-8.5 6q0 5 24 16q16 8 35 25q17 18 22.5 18t0.5 -4q-1 -1 -3 -1q-18 -14 -30 -32q-5 -5 -19 -13q-14 -7 -15 -9q-1 -1 0.5 -1.5t3.5 -1.5q13 -3 20 -8t10 -5
q10 0 21 13q6 7 16 11q10 5 14 8.5t7 3.5q7 -2 20.5 8t13.5 20q0 3 -1.5 4.5t-5.5 1.5q-7 0 -17 3.5t-16 3.5q-5 0 -2 3zM475 287q-1 1 -3 1q-1 0 -11 -2q-11 -1 -26 -9.5t-15 -13.5q0 -3 -7 -9l-9 -9h10q14 0 34 11.5t24 21.5q4 8 3 9zM447 308q16 7 18 5q1 -3 5 0
q6 2 8 -2q1 -1 0 -2q-3 -4 -23 -15h-2q1 2 6 8q5 4 1 4q-1 0 -5 -1q-8 -1 -19 -6t-12 -5l7 6q7 4 16 8zM236 187q26 6 51 -1q7 -2 24 -12q47 -27 63 -27q8 0 9.5 -1.5t-2.5 -6.5t-7 -13q-4 -12 -17 -25t-26 -18q-11 -3 -60 -8q-12 -2 -21 5q-8 6 -23 21q-12 15 -17 19l-5 3
q4 0 13.5 -7.5t15.5 -13.5q14 -19 35 -20q12 -2 12 1l-6 4q-11 3 -26 20q-6 9 -15 15q-8 7 -6 7q4 0 20 -16q24 -25 36 -25q4 0 1 2.5t-10 10t-12.5 14t-4.5 6.5q2 0 2.5 -1.5t20.5 -18.5q14 -13 18.5 -15.5t15.5 -0.5q21 2 39 23q8 9 7 10t-5 -2q-3 -3 -18 -8
q-17 -5 -28.5 -3t-33.5 14q-25 12 -39 12t-24 -2.5t-14 -2.5t0 2q4 4 18.5 8.5t26 4.5t17 -2.5t27.5 -15.5q20 -12 38 -8q4 1 -5 7q-2 1 -5 2q-12 9 -24 15l-11 7q2 0 11 -4q8 -5 12 -5q2 0 16 -8q22 -13 27 -6q1 1 -9 6l-26 13q-14 5 -31 14q-17 7 -38 8l-16 2q1 0 6 1
q25 4 46 -8q13 -6 22 -8q11 -4 31 -13q22 -10 28 -7q13 7 0 10q-10 1 -37 18q-28 18 -37 22q-22 8 -49 3h-12q2 0 11 3zM203 178q6 1 8.5 2.5t4 1.5h2t0.5 -0.5t-13 -4.5q-29 -10 -35 -19q-4 -2 -6 -2q-7 0 10 8q15 10 29 14zM159 152q2 1 2.5 1t-0.5 -2q-1 -4 2 -9
q2 -3 4.5 -2t8.5 4l7 3q-5 -4 -2.5 -10t8.5 -9q7 -2 4 -4q-3 -1 -5 -1q-7 0 -12 5q-3 5 -12 9q-15 5 -5 15z" />
    <glyph glyph-name="G" unicode="G" horiz-adv-x="489" 
d="M241 654q30 7 51.5 4t35.5 -8q35 -15 12 -40l-4 -1l-4 5q-29 13 -57.5 9.5t-51 -18t-39 -37.5t-32.5 -57q-20 -40 -38.5 -85t-26 -97.5t-2.5 -89t20 -66.5t49 -47q48 -6 78.5 16t47.5 42t30 48q15 43 17 76q2 18 6 24t12 6t13.5 -6.5t5.5 -16.5q0 -14 -7.5 -50t-29.5 -76
q-8 -13 -19.5 -28.5t-47.5 -42.5q-44 -26 -78 -28.5t-55.5 6.5t-36 23.5t-25.5 39t-18 51t-7 64t9 82t25.5 87t37 82t37 63t39.5 41.5t53 25zM373 401q41 8 53.5 7t17.5 -10t4 -28.5t-7 -86.5q-7 -75 -10 -128q-4 -48 -7 -59t-13 -14q-12 -1 -14 2t1 73t7 121q8 74 0 84
q-6 6 -23 4.5t-119 -22.5q-30 -6 -41 -6t-17 5q-12 11 7 20q10 4 69.5 18.5t91.5 19.5z" />
    <glyph glyph-name="H" unicode="H" horiz-adv-x="520" 
d="M453 654q2 4 8 4.5t10 -2.5q9 -9 -9 -169q-7 -54 -10 -156q-10 -240 -21 -247q-5 -2 -15 -1q-6 0 -7.5 4t-3.5 27q0 28 3 67q4 40 7 123q5 87 12 159q5 53 13.5 118.5t12.5 72.5zM94 635q5 7 16 -5q5 -5 5.5 -13t-2.5 -53q-1 -58 -5 -104q-4 -42 -4 -75q1 -21 2 -25t7 -4
q10 1 47 14q40 14 101 28q64 16 88 25q58 17 62 -2q1 -5 -3 -12.5t-26 -14.5t-107 -27q-65 -16 -117.5 -33t-57.5 -25q-11 -16 -21 -153q-4 -53 -7.5 -63.5t-18.5 -10.5q-9 0 -11 1.5t-2 9.5q0 36 17 174q20 151 31 306q3 59 6 62z" />
    <glyph glyph-name="I" unicode="I" horiz-adv-x="370" 
d="M223 658q33 5 36 -2q4 -9 -22 -27q-5 -4 -8 -5q-6 -9 -10 -51q0 -2 -1 -8.5t-1.5 -12t-1.5 -10.5l-2 -27q-2 -8 -4 -27q-4 -27 -4 -29l-3 -32q-3 -20 -7 -75q-2 -18 -3 -62v-44l5 5q6 7 6 19.5t6.5 24.5t9.5 12t-2 -10q-8 -17 0 -17q4 0 5 2q5 2 6 -2v-2q6 0 18 11
q6 5 9 6q1 1 8 5q17 10 30 12q7 1 14 6q10 9 4 10q-1 0 -5.5 -2t-25.5 0q-23 1 -34.5 -2t-14.5 -7q-6 -5 -6 0t13.5 10t34.5 7q26 2 42 9q8 2 11.5 1.5t3.5 -20.5q0 -27 -8 -42q-10 -17 -47 -36q-8 -4 -21 -4.5t-15 0.5q-4 2 5 4q3 1 8.5 1.5t9 1.5t5.5 2.5t1 2.5
q-3 4 -17 -2q-4 -2 -7 -2q-11 0 -21 -16q-7 -11 -15 -11q-10 0 -13 12q-2 4 -2 -1q-1 -7 -1 -49q0 -56 0.5 -57.5t26.5 -2.5q22 0 29 -2t11 -8q14 -18 -7 -26q-14 -6 -53 -6q-14 0 -14 -1t1 -4q4 -9 -7 -22q-4 -4 -5 -9t-17 -22q-12 -15 -22 -15q-8 0 4 7q8 4 16 14t7 12
t-14 -3q-15 -8 -15 -4q0 1 10 6.5t12 5.5q6 0 16 15q7 14 3 18q0 2 -14 2q-58 0 -71 4q-7 0 -16 6q-9 5 -10 4q-2 0 -2 -10q2 -10 -3 -16q-4 -5 -5.5 -5.5t-2.5 -4t1 -4.5t2 -4t-2 -3t-6.5 3.5t-4.5 9.5t5 14q6 6 6 14.5t3 11.5q9 8 19 0q5 -3 10 0q8 5 32 7q26 3 29 10
q5 7 10 50.5t5 83.5q0 80 7 173q5 53 7 78q5 45 7 83q0 20 -2 23q-3 6 -7 7t-21 -2q-32 -6 -32 9q0 5 2 9q6 9 51 16q27 4 38 6q6 1 14 2zM317 301q0 4 -4 5q-3 0 -6 -1q-9 -5 -24 -5q-14 0 -31 -13q-21 -17 -25 -16q-1 2 -1 3q0 4 -7 -1q-6 -4 -6 -11q-2 -8 -5 -11.5
t-1 -6.5q1 -1 4.5 -1t5.5 4q15 12 57 16q12 1 18 5q5 3 10 9t5 8q0 1 -9 1q-22 -2 -37 -18q-8 -8 -9 -6q-2 2 6.5 10.5t15 11t6.5 4.5t13 2q24 2 24 11zM157 74q4 0 7 1t5.5 0l2.5 -1q0 -1 -4 -3q-11 -11 -17 -15q-13 -6 -34 -12l2 2l8 4q9 3 18 10q6 3 8 4.5t1 2.5
q-1 2 -6 0q-21 -5 -33 -4h-2q-4 0 -1 0q1 0 7 2q12 3 18 4q10 2 13 3t7 2zM48 42q7 3 7 -7q0 -15 16 -26q7 -5 19 -2q16 2 22 12q3 5 8.5 10.5t8.5 5.5q6 0 1 -6q-12 -12 -12 -16q0 -1 3 -3q12 -1 -4 -6q-11 -2 -17 -5q-6 -2 -17 -2q-10 0 -17 4q-12 8 -18 22t0 19z" />
    <glyph glyph-name="J" unicode="J" horiz-adv-x="505" 
d="M71 808q10 4 24.5 4t20.5 -3q24 -9 32 -23q11 -15 11 -51q0 -24 -3.5 -24t-3.5 20q0 19 -6 34q-4 10 -8.5 17.5t-9 10.5t-6.5 2q-3 -3 -9 -1h-4q1 -3 7 -10l1 -1q22 -23 24 -44q1 -6 0 -8t-2 2q-2 4 -4 9q-4 13 -16 27.5t-22 19.5q-11 6 -21 -8q-3 -6 -2.5 -7.5t5.5 -7.5
q7 -8 5.5 -14t-13.5 -15q-12 -14 -12 -18q0 -26 33 -43q21 -13 41 -2l7 2l-6 3q-7 2 -18 9q-11 9 -24 16q-5 2 -8 4.5t-3.5 4t0.5 2.5t7 -3q23 -15 43 -19q8 -2 11 -2q9 -3 -24 24q-9 8 -15 11q-11 7 -14 12l-1 2q1 -1 6 -3q9 -5 13.5 -5t15.5 -11q28 -24 40 -24q7 0 8 -2.5
t-5 -6.5q-3 -2 1 -5t4 -5t-13 -8q-54 -27 -90 13q-22 23 -22 36q0 9 9 16q6 5 6 7t-8 -3q-13 -8 -4 11q4 10 3 17q-7 35 19 41zM76 795q0 3 -8 -3q-4 -3 -4.5 -7t1.5 -6q2 0 4 2.5t4.5 7.5t2.5 6zM65 748q3 1 3 6l-1 4l-3 -3q-3 -6 -1 -9zM95 763l-2 8l4 -3q4 -5 11 -17
t5 -14q-3 -10 -8 7q-5 12 -10 19zM316 663q12 7 19 0q9 -9 9 -39q-4 -63 -11 -123q-9 -68 -8.5 -66t12.5 12q24 23 32 20q2 0 -10 -9q-13 -11 -26 -25q-28 -33 -43 -40q-7 -4 -15 -9q-7 -5 -4 -7q2 -4 9 -4q11 0 25 -11q12 -11 23 -3q12 5 25 21q8 9 11 9q9 0 25 16
q8 5 11 3q4 -1 14.5 3.5t16.5 10.5q15 12 17 26q1 8 -1 10t-11 2q-7 0 -20 4.5t-20.5 4.5t-8.5 2q0 3 2 4q11 4 27 -4q11 -4 27 -3q15 1 18.5 -0.5t-0.5 -8.5q-2 -6 1 -11t-3 -18q-5 -12 -5 -14q0 -4 -11.5 -21.5t-17.5 -22.5q-7 -7 -14 -10q-8 -3 -12 -7q-2 -4 -6 -4
q-2 0 -11 -4q-14 -7 -32.5 -8.5t-32.5 3.5q-7 2 -8 2l-2 -11q-4 -36 -14 -98q-5 -35 -10 -56q-5 -19 -14.5 -45.5t-18.5 -36.5q-15 -16 -38 -16q-18 0 -41 16q-41 29 -50 120q-4 39 7 45q8 5 13.5 -2.5t10.5 -32.5q15 -73 42 -95q13 -12 24 -6q17 9 39 116q9 40 12 65
q2 8 3.5 22l1.5 14q3 14 2 17t-4 4q-5 1 -15 7q-9 6 -8 11.5t16 12.5q13 7 15 10q3 2 6 34q3 26 5 44q8 61 11 117q1 37 3.5 46.5t10.5 16.5zM435 403q0 3 -18 0q-10 -1 -11 0q-3 2 -19 -9q-30 -16 -30 -26q0 -3 -11 -12t-11 -11t14 -2q24 0 60 24q15 12 20 22q6 11 6 14z
M392 435q24 12 27 10q3 -3 8.5 -1t7.5 1q7 -6 -7 -16q-9 -5 -16 -10q-9 -6 -10.5 -4.5t7.5 10.5t8.5 9.5t-8.5 -1.5q-8 -4 -11 -3t-19 -6q-17 -8 -17 -7q-3 1 6 6q8 5 24 12zM314 149q2 2 8.5 1t10.5 -5q13 -9 32 -9q6 0 6 -2t-16.5 -1.5t-23.5 5.5l-9 6l-1 -11
q-1 -11 -4.5 -15t-2.5 -9t-1 -5.5t-5 4.5q-7 5 0 17q5 6 5 14.5t1 9.5zM402 138q9 5 11 5t3 -22q0 -6 -4 -11q-5 -7 -5 -9q0 -4 -11 -16t-15 -13q-7 -2 -7 1q1 1 3 2q10 4 18 17q4 5 0 5t-9 -2l-10 -3q1 3 12 7q9 5 15.5 14t5.5 14q-2 4 -14 4q-12 -1 -14 1q1 1 6 1
q6 0 15 5zM393 124q12 3 12 1q0 -7 -13 -15l-27 -11q11 8 16 10q12 7 11 9q-1 1 -12 -2q-12 -2 -17 -2l10 4q12 2 20 6zM310 97q5 1 6 -6q0 -15 13 -22q6 -4 14.5 -1.5t13.5 7.5q14 16 17 16q2 -1 -4.5 -10t-4.5 -9q10 -2 -7 -8q-25 -8 -35 0q-4 5 -9.5 13.5t-5.5 13.5
q0 4 2 6z" />
    <glyph glyph-name="K" unicode="K" horiz-adv-x="452" 
d="M136 655q2 6 4 7.5t7 1.5q12 0 14.5 -5t-0.5 -34q-3 -65 -24 -186q-14 -78 -11 -91q2 -9 10 -3q7 6 44 51q19 25 57 71q26 35 64 80q51 60 65 81q11 16 17 18q12 4 18 -7q5 -10 -27 -52q-132 -162 -148 -186q-1 0 -2 -2q-8 -11 -5 -19.5t33 -48.5q6 -7 8 -11
q42 -55 86.5 -121t52.5 -82q7 -15 10 -27t0.5 -19t-9.5 -7q-12 0 -31 36q-22 45 -128 193q-47 64 -52 64q-3 0 -37.5 -42t-37.5 -49q-3 -10 -8 -42q-5 -38 -15.5 -83t-17.5 -55q-4 -7 -13.5 -5.5t-14.5 10.5q-5 6 1 25q19 62 41 209q9 69 17 108q19 118 24 162q4 43 8 60z
" />
    <glyph glyph-name="L" unicode="L" horiz-adv-x="582" 
d="M426 725q6 3 21 -2q12 -2 24 -2q11 1 14 -1t-1 -6q-1 -3 0 -8q5 -6 -11.5 -34t-23.5 -28q-2 0 -9 -5q-22 -13 -45 -15q-24 -2 -43 13q-8 7 -13 7q-4 0 -13 4t-9 7q0 5 25 18q20 9 40 28q22 20 28 20q3 0 2.5 -1.5t-7.5 -5.5q-19 -14 -34 -35q-5 -5 -20 -13
q-17 -9 -18 -11q0 -2 1 -2.5t5 -1.5q14 -3 21 -9q8 -5 11 -5q12 0 24 14q7 7 18 13q10 4 15.5 8.5t7.5 4.5q10 -2 24 9.5t14 20.5q0 5 -1 6t-6 1q-7 0 -19 4t-18 4q-2 3 -4 3zM462.5 674q-1.5 1 -2.5 1t-13 -2q-12 -1 -28.5 -11t-16.5 -15q0 -2 -9 -11l-10 -8h11
q16 0 38.5 12t27.5 24q4 9 2.5 10zM431 698q17 7 19 4q3 -2 6 0q8 3 10 -1q1 -1 0 -2q-4 -5 -26 -17h-3q1 2 9 8q4 5 0 4h-5q-10 -1 -22 -6.5t-14 -5.5l7 6q8 5 19 10zM245 658q1 6 13 6t16 -3q6 -6 8 -36l3 -15l-12 4q-12 6 -35 5q-18 0 -25 -3t-23 -14q-10 -8 -11.5 -11.5
t-1.5 -9.5q0 -10 -3.5 -10t-2.5 6q1 8 -1.5 8t-7.5 -5q-4 -4 -24 -17q-18 -14 -34 -26q-17 -14 -20 -14t-3 -2l12 -3q12 -1 25 5q10 5 25.5 16t15.5 15q0 2 4 6.5t7 4.5q9 0 -6 -21q-6 -7 -14 -12q-43 -29 -54 -23q-4 2 -9 2q-6 0 -7 3q-4 4 -6 -3q0 -12 26 -22
q8 -4 27.5 -4t28.5 4q9 5 24 5q28 5 39 23q5 9 8 9t19 14t17 17q1 6 11.5 10t18 4t8.5 2t-4 8q-13 15 -4 20q5 1 7 -4q3 -4 14 -14q10 -9 10 -12t-6 -10q-6 -6 -20 -8q-12 0 -14 -2t-3 -12q-13 -82 -62 -224q-3 -9 -12 -43q-10 -37 -19 -62t-9 -29q0 -6 -7 -25
q-8 -20 -4 -25t33 -3q81 4 157 11q8 0 19.5 1.5t19 2.5t10.5 1q21 3 29 -16q6 -13 -6 -23q-6 -4 -50 -6q-134 -6 -170 -11q-66 -9 -91 -9q-14 0 -17 2.5t-3 9.5q0 16 19 54q23 46 37 99q9 31 24 73q29 82 52 173q7 31 3 30l-4 -8q-8 -18 -24 -27q-8 -2 -29 -6q-22 -3 -28 -6
q-11 -5 -33.5 -2.5t-35.5 7.5q-6 4 -16 16q-11 15 -17 18q-5 3 -6 8t3 8q6 5 21 -2q9 -4 7 -1q-2 6 18 16q8 3 45.5 30.5t52.5 40.5q12 10 19.5 13t23.5 3h15l-1 12q-1 12 0 18zM375 282q29 6 56 -3q10 -2 28 -13q53 -29 71 -29q8 0 10 -1.5t-2.5 -7t-7.5 -15.5
q-5 -12 -19.5 -27t-30.5 -20q-12 -5 -66 -9q-14 -1 -24 6q-10 5 -25 22t-21 22l-4 3q4 0 15 -8.5t16 -15.5q17 -20 41 -22q13 -1 12 2l-6 3q-12 5 -29 23q-8 10 -17 18q-9 7 -6 7t22 -18q28 -27 42 -27q2 0 -1 2.5t-11 10.5t-14 15.5t-5 7.5q2 0 3.5 -2t22.5 -21
q17 -14 21 -16.5t16 -0.5q24 2 45 25q9 10 7 11q0 2 -4 -2q-4 -3 -21 -9q-19 -6 -32.5 -3t-37.5 16q-19 9 -25.5 11.5t-17.5 2.5q-16 0 -28 -4t-16 -4t0 3q4 5 20.5 9.5t29.5 4.5t19 -2.5t31 -16.5q23 -13 42 -8q6 0 -4 7q-3 1 -4 2q-16 9 -30 18l-11 6q3 0 12 -5
q10 -4 13 -4t18 -9q26 -15 30 -7q2 2 -9 7.5t-29 12.5q-16 7 -36 17q-19 9 -43 9l-17 1h6q29 6 53 -6q14 -7 24 -11q13 -4 36 -14q25 -9 31 -6q14 6 0 9q-11 1 -41 21q-32 19 -42 24q-25 10 -55 4l-14 -1q2 1 13 5zM338 272q4 1 7 2t5.5 1.5t3 0t0.5 -1t-14 -5.5
q-32 -11 -41 -19q-3 -3 -6 -3q-7 0 12 10q17 9 33 15zM287 241q3 3 3.5 3t-0.5 -4q-2 -3 2 -9q4 -2 5.5 -2t8.5 5l9 3q-5 -4 -2.5 -11t9.5 -9.5t4 -5.5q-3 -1 -6 -1q-9 0 -12 7q-5 5 -15 8q-17 6 -6 16z" />
    <glyph glyph-name="M" unicode="M" horiz-adv-x="702" 
d="M494 658q11 12 27 -4q13 -12 36 -87t40 -156q8 -41 18 -78q15 -52 35 -163q12 -62 11 -76t-18 -13q-14 0 -17 14t-12 71q-21 113 -34.5 161.5t-21 87t-27 113t-26.5 65t-13 -21.5q-5 -13 -18 -56q-17 -53 -42 -159q-17 -71 -37 -147t-26 -86q-5 -10 -10 -10q-11 0 -27 31
t-28 76q-3 11 -12 42t-10 37q-12 42 -30.5 124t-25.5 125q-2 13 -9 20q-4 6 -5.5 6t-7.5 -8q-5 -8 -23 -67q-19 -67 -31 -102q-29 -94 -55 -193q-17 -68 -26 -87.5t-23 -14.5q-6 2 -6 10t6 28q10 29 36 126q34 126 45 151q5 12 24 82q16 54 32 93.5t25 43.5q6 5 15.5 -6
t17.5 -29q6 -16 30 -120q23 -105 46.5 -189.5t29.5 -92.5q8 -8 18 16q1 4 2 9q22 66 52 200q10 43 20 70q11 31 18 62q8 33 19.5 64t17.5 38z" />
    <glyph glyph-name="N" unicode="N" horiz-adv-x="529" 
d="M465 650q4 11 13 11q6 0 8.5 -3t2.5 -15t-11 -64q-10 -40 -19 -82q-15 -59 -45 -171q-38 -142 -42 -160q-20 -71 -27 -82q-5 -8 -14 -3q-15 5 -39 76q-29 84 -46.5 157.5t-40.5 203.5q-12 73 -14 75t-7.5 -2t-9.5 -11q-2 -6 -11 -52q-21 -122 -39 -179q-28 -97 -40 -152
q-15 -82 -29 -91q-4 -4 -10 0q-5 3 -4 27q7 72 48 209q23 77 48 205q13 65 24 86q11 23 30 19q6 -1 15 -9.5t11 -15.5q12 -36 30 -141q10 -59 23 -122q15 -66 33.5 -126t24.5 -63q2 -1 4.5 2t5.5 10t6 17.5t7 25.5q8 37 14 54q22 64 48 169q41 172 52 197z" />
    <glyph glyph-name="O" unicode="O" horiz-adv-x="652" 
d="M150 806q8 3 36 3q21 0 24.5 -1.5t3.5 -4.5q-1 -7 -1 -24.5t-3 -27.5t-16 -22q-27 -25 -64 -26.5t-67 22.5q-9 8 -11.5 8t-7 4t0.5 4q8 0 26.5 10.5t28.5 20.5q29 28 50 34zM189 798q3 1 -2 2h-15q-27 1 -39 -7q-14 -9 -27 -26q-21 -26 -39 -26l-5 -2q1 -1 11 -9
q14 -10 21 -11q14 -4 35 14q9 7 28 17q10 4 19 9.5t14 9.5t4 5q-2 2 -10 -4q-7 -5 -22.5 -11.5t-16.5 -6.5l2.5 2t8 4.5t10.5 6.5q17 9 18 11q0 1 -7 2q-9 1 -28.5 -8t-32.5 -20q-10 -9 -14 -11h-1q3 4 15 15q29 28 61 33q26 1 24 5q0 1 -5 1q-6 0 -12 2t5 3zM202 758
q0 8 -2.5 8t-10.5 -5q-9 -6 -28 -15q-19 -8 -31 -19.5t-19 -11.5q-7 -1 -7 -3q2 -5 25 -2.5t35 6.5q13 4 25.5 18.5t12.5 23.5zM416 670.5q27 -6.5 44.5 -16.5t37 -31.5t25.5 -42.5q5 -17 12 -17q4 -1 17 -7q10 -4 31 -2t25 -3q2 -6 0 -12q-4 -5 0 -12q4 -5 -5 -28
q-27 -69 -56 -81q-11 -4 -14 -9.5t-4 -25.5q-5 -57 -20.5 -113.5t-38 -96.5t-47 -64.5t-52 -28t-52.5 1t-41 14.5t-18.5 10.5t-7.5 -2.5q-9 -6 -13 -3q-7 1 1 3q14 6 26 26q4 5 4 6t-4 1q-7 -1 -13 -4q-14 -7 -14 -2q1 2 16 9q13 7 22.5 20t7.5 19t-8 6q-4 -2 -49 0
q-30 2 -39 3.5t-16 6.5l-12 8l-2 -15q-1 -16 -7 -21.5t-3 -13.5q3 -13 -8 -3q-12 10 -1 25q5 7 6 21q1 10 3 12.5t10 3.5q10 0 15 -3q4 -5 15.5 -10t17.5 -5q4 0 2 6q-9 30 -12 51t-5 49.5t0.5 92.5t19 119t57.5 104q34 42 77 51.5t70 3zM426 633q-32 8 -64 2.5t-49 -21.5
q-39 -34 -67 -108q-11 -30 -14.5 -62.5t-4.5 -89.5t3.5 -91t15.5 -62q5 -11 10.5 -12t19.5 7q14 7 16 6q2 -3 4 -31q0 -9 -7 -17t-4 -13q1 -2 15 -13q10 -7 16 -8.5t26 -1.5q28 0 40 5t27 22q30 35 57.5 110.5t27.5 124.5q0 9 -1.5 10t-9.5 -1q-26 -6 -52.5 0t-37.5 18
q-6 8 -20 10q-11 3 -25 10t-14 11q0 12 22 21q20 9 42 22.5t26 20.5q8 11 29.5 30t29.5 20t8 3t-6 17q-9 24 -25 40t-34 21zM550 549q-38 14 -66 -4q-28 -19 -58 -59q-13 -16 -28 -25q-37 -19 -36 -24q0 -4 9 -5q18 -2 33 -14q14 -12 27 -9t34 25q14 18 19 18q4 0 23 12
q21 15 23 12q4 -2 18 4t21 12q24 23 22 46q-1 3 -12 3t-29 8zM573 470q-3 2 -29 0q-20 -4 -45.5 -20t-25.5 -25q0 -4 -13 -16q-15 -11 -12 -15q3 -5 19 -2.5t34 11.5q53 24 67 51q7 15 5 16zM520 512q30 14 33 10q2 -4 10 0q10 3 12 -2q4 -2 1 -7q-2 -4 -21 -16.5t-22 -12.5
q-3 1 8 14q11 11 9 11t-6 -1q-11 -2 -17 -2q-8 -2 -26 -11q-19 -9 -22 -8q-1 1 4.5 4.5t14.5 9t22 11.5zM263 174q17 5 17 2t-6 -10.5t-14 -10.5l-37 -15v0q15 10 22 13q17 10 15 13q-2 2 -18 -2t-22 -4q-3 0 0.5 1.5t13.5 4.5q17 3 29 8zM145 136q7 4 8 -8q0 -8 5.5 -17.5
t13.5 -15.5q7 -4 19 -1.5t20 12.5q20 23 24 20q3 -1 -6.5 -13t-4.5 -12q13 -4 -11 -11q-36 -13 -50 -2q-7 7 -14.5 19.5t-7.5 20.5q0 5 4 8zM503 118.5q-4 3.5 3 3.5t4 -3.5t-7 0zM523 115l-6 4h5q6 1 30 -12q41 -24 49 -21q3 4 2 -1q-1 -18 -19 -37q-11 -10 -20 -13.5
t-31 -6.5q-26 -2 -32 3q-12 8 -24 27l-1 2q4 -1 13 -11q10 -13 28 -17h6l-9 7q-11 9 -14 15q-4 6 8 -4q19 -16 20 -11q0 1 -5 6l-11 14q2 -1 10 -9q17 -14 28 -14q8 0 19 6t16 14q1 4 0 4t-10 -4q-14 -6 -24 -5t-28 10q-17 10 -28.5 12t-28.5 -4q-22 -6 -22 2q0 3 -8 6t-8 8
q0 3 4 1q5 -5 9 -3t4 -2q0 -14 23 -5q32 10 55 -5q13 -10 28 -12q12 0 12 1t-15 10q-14 10 -14 11t3.5 -0.5t10 -4t9.5 -6.5q16 -10 18 -3q0 2 -12 9q-50 23 -66 25l2 1q15 1 69 -25q14 -7 19 -3q6 2 5 5t-6 3q-6 0 -30 15q-23 16 -33 18z" />
    <glyph glyph-name="P" unicode="P" horiz-adv-x="451" 
d="M226 660l9 3q2 0 24 -3q42 -5 82 -24t55 -40t14 -66q-1 -39 -18 -74q-36 -66 -132 -106q-54 -20 -100 -23q-21 -3 -25.5 -4.5t-8.5 -8.5q-6 -11 -21 -71t-23 -111q-6 -37 -10 -45q-3 -6 -5.5 -7t-13.5 -1q-10 1 -11.5 3t-1.5 13q0 22 35 154q13 50 22 104q6 34 18 98
q16 78 27 160q7 49 12 49q2 0 8 -9q6 -8 6 -29q0 -19 -6 -67.5t-12 -75.5q-2 -12 -11 -59q-2 -8 -4 -18.5t-2.5 -16.5t-1.5 -8q-1 -8 7 -17q9 -2 36 1.5t67 18t74 41.5q62 50 58 120q-1 21 -7 32t-21 24q-35 28 -107 38q-22 2 -27.5 3.5t-6.5 5.5q0 5 6 10t16 6z" />
    <glyph glyph-name="Q" unicode="Q" horiz-adv-x="554" 
d="M345 661.5q43 -8.5 68.5 -42.5t35.5 -65.5t14.5 -67.5t-2 -94t-28.5 -104t-25 -52q-1 -12 1 -14.5t10 -8.5q15 -11 28 -19q15 -9 33 -25.5t22 -25.5q12 -24 0 -39q-5 -7 -11 -3t-22 26q-18 22 -24 27q-9 9 -30.5 20.5t-26.5 11.5q-6 0 -27 -28q-38 -49 -74 -65.5t-78 -16
t-78 19.5t-58 58t-29.5 73t-4.5 79t17.5 92.5t31.5 82t41 70.5t60.5 67t74.5 41.5t81 2zM297.5 626.5q-27.5 -2.5 -57.5 -19t-68 -64.5q-13 -18 -33 -50.5t-33 -67t-19.5 -61t-10.5 -66.5t5.5 -76.5t36 -68t70.5 -41.5q48 -7 80.5 11t58 45.5t24.5 40.5q-1 5 -7.5 10.5
t-29.5 18.5q-28 16 -37.5 24.5t-3.5 14.5q8 7 58 -14q34 -12 42.5 -7t25.5 49q24 55 28 121q2 32 -7.5 82t-30 77.5t-42.5 35.5t-49.5 5.5z" />
    <glyph glyph-name="R" unicode="R" horiz-adv-x="622" 
d="M74 725q11 5 26.5 4.5t25.5 -5.5q11 -5 19 -15q6 -7 8 -13.5t2 -25.5q2 -29 -1.5 -29t-3.5 18.5t-7 33.5q-6 12 -10.5 16.5t-13.5 4.5h-7l6 -7q8 -8 15.5 -22t7.5 -21q0 -4 -0.5 -4t-3.5 7q-10 26 -33 40q-7 6 -9 6t-8 -8q-13 -13 -4 -13q2 0 6 -7q6 -11 -14 -26
q-8 -7 -6 -18q3 -13 18.5 -25t30.5 -12q13 2 21 8q-2 0 -16 7.5t-25.5 15t-10.5 8.5q2 1 19 -7q19 -9 30 -11l7 -2q-1 3 -12 13q-16 13 -27 19q-8 6 -8 10t3.5 -0.5t7 -4.5t3.5 5q0 4 -7 16l-2 11v0q3 -4 9 -15t5 -14q-1 -4 18.5 -18.5t26.5 -14.5t8 -2.5t-5 -6.5t0 -4
q10 -5 -7 -12q-1 0 -3 -1q-35 -16 -60 -1q-9 5 -24 20q-25 29 -7 38q5 4 5 7t-4 -2q-6 -5 -7 0q0 4 2 9q5 10 3 19q-4 24 13 31zM79 707q4 7 1 8q-1 0 -6 -2q-8 -10 -1 -13q0 -1 1 0.5t2.5 2.5t2.5 4zM75 678q-4 7 -4 -2q0 -5 2 -2q4 2 2 4zM191 654q5 6 13 6.5t10 -5.5
q1 -5 7 -5.5t45 4.5q102 2 148 -35q14 -15 20 -29.5t7 -35t-6.5 -45t-17.5 -41t-44 -51.5t-75 -58q-38 -25 -40 -29q-2 -2 8 -10q7 -5 66 -51q53 -44 57 -42q4 3 28 22q18 14 23.5 17t20.5 3q22 0 25 -6q3 -3 0 -3q-2 1 -4 1q-11 2 -27 2q-9 -1 -21 -10t-12 -16l-3 -2
q-1 4 -2 4t-24 -18q-23 -17 -29 -21q-6 -2 2 -5q18 -3 41 21q10 12 11 10t-2 -10q-4 -6 -19 -17.5t-21 -11.5t-14 4q-8 3 -7.5 -1t9.5 -10q18 -13 47 -4q11 2 18 5q8 1 35 25q24 25 32 25q6 0 7 1t-4 7q-6 11 -3 11q4 0 11 -7q12 -12 9 -17.5t-22 -6.5q-22 -2 -39 -32
q-4 -7 -3 -9.5t13 -12.5q46 -32 75 -39q26 -6 34 -13t6 -19q-4 -11 -23.5 -14.5t-33.5 3.5q-34 16 -85 54q-24 18 -30.5 21.5t-16.5 3.5q-14 0 -23 3q-7 2 -21.5 15.5t-14.5 18.5q0 3 7.5 3.5t10.5 -2.5l-18 19q-62 55 -96 71q-19 7 -41 6q-39 -3 -47 -16q-9 -18 -27 -97
q-7 -33 -7.5 -39t5.5 -8q7 -3 17 -3q8 0 8 -3t-24 -2q-23 1 -35 9l-13 7l-1 -15q-2 -15 -7.5 -20.5t-2.5 -13.5q3 -13 -9 -3q-12 9 -1 24q6 7 7 22q3 15 9 16t8.5 6t20.5 60q16 52 26 101.5t24 133.5q11 79 26.5 136.5t18.5 62.5zM332 617q-27 6 -57.5 6t-45.5 -4
q-15 -5 -21 -16q-14 -25 -28 -131q-5 -52 -12 -86q-5 -25 -5 -29.5t5 -8.5q7 -6 26.5 -6t29.5 6q20 9 65 42.5t69 57.5t33.5 40.5t11.5 41.5q5 43 -9.5 61t-61.5 26zM189 137.5q12 6.5 14 6.5q4 0 6 -32q0 -8 -7 -16q-6 -8 -6 -12q0 -5 -16.5 -22.5t-22.5 -18.5q-7 -2 -9 0
q-1 1 2 3q1 1 4 1q12 4 25 24q3 6 3 7t-3 1q-6 0 -13 -5q-15 -5 -15 -2q2 2 17 10q11 7 21.5 20t7.5 20q-1 4 -18 4q-17 -1 -20 1q3 4 7 4q11 0 23 6.5zM177 116q15 6 15 2.5t-6.5 -11t-11.5 -11.5l-40 -15l2 1q15 10 21 13q18 10 16 12q-1 3 -18 -1q-15 -5 -23 -5q-4 0 2 3
q5 2 11 3q18 5 32 9zM56 79q8 3 9 -9q0 -9 5 -18t14 -14q8 -5 19.5 -2t20.5 12q19 23 23 21q3 -2 -6 -14t-4 -12q12 -4 -12 -11q-36 -11 -51 0q-7 5 -14.5 17.5t-7.5 19.5t4 10z" />
    <glyph glyph-name="S" unicode="S" horiz-adv-x="489" 
d="M295 658q23 8 59.5 3t44.5 -17q4 -8 -6 -16q-15 -8 -28 0q-6 5 -35.5 5t-42.5 -7q-22 -11 -42 -34.5t-32 -48.5q-9 -19 -9 -48q0 -31 6 -42q9 -21 28.5 -30.5t68.5 -18.5q13 -2 16.5 -1t14.5 10q14 11 20 11t-5 -7q-21 -14 -34 -36q-6 -7 -23 -16q-16 -10 -16.5 -11.5
t12.5 -5.5q8 -1 16 -7q7 -6 11 -6q11 0 24 15q6 9 17 14t16.5 10t7.5 3q10 -2 25 10t15 23q0 4 -2 5.5t-6 1.5q-8 0 -20 4.5t-18 4.5l-5 2l4 1q4 3 18 -1q13 -4 27 -3q9 1 12 -0.5t1 -7.5q-3 -3 0 -8q4 -7 -12 -35q-5 -8 -4 -11t11 -11q12 -13 15.5 -26t2.5 -38
q-3 -69 -48 -130q-23 -30 -85 -60q-30 -14 -53 -16q-37 -2 -87 9q-4 1 -4.5 -4t-12 -17t-16 -16.5t-9.5 -2.5q-6 1 1 3q12 5 22 21q2 4 2 5t-2 1q-6 0 -11 -2q-11 -5 -12 -3q1 3 13 9q11 5 19.5 16t7.5 17q-3 4 -8 2q-3 0 -42 2q-36 2 -47 8l-10 7l-1 -13q-1 -13 -5.5 -18
t-2.5 -10q2 -11 -8 -3q-9 8 0 20q5 6 6 17q2 10 3 12t6 2q10 1 13 -4q14 -10 29 -10q6 0 1 5q-1 2 -4 5q-27 32 -27 50q0 17 28 -10q2 -1 3 -2q33 -31 46.5 -39.5t19.5 -3.5q2 4 4.5 1.5t1.5 -6.5q-1 -2 0.5 -4t7.5 -3q13 -3 22 -5q12 -4 43 -4q27 0 36 3t36 20q46 30 67 74
q25 48 26 78q0 14 -9 25q-7 12 -13 18q-5 4 -7.5 4t-10.5 -4q-48 -22 -79 3q-7 8 -12 8q-3 0 -13.5 4.5t-10.5 5.5q0 7 13 13q3 2 5.5 3t3.5 2l1 1q0 2 -27 8q-53 13 -66 33q-7 10 -14 29q-5 20 -6 50t3 45q11 26 25 47q5 10 4 14q0 3 5 7.5t12 4.5q5 0 5 0.5t-4 6.5
q-6 10 -1 10q1 0 5 -2q3 -4 13 3q27 20 56 30zM411 374q0 1 -3 1q-1 0 -13 -1q-12 -2 -29 -12t-17 -16q0 -3 -8 -11l-11 -10h12q22 0 51 22q9 6 14.5 15t3.5 12zM149 621q19 16 24 18t18 2q17 0 20 -4q3 -3 0 -3q-1 0 -4 2q-8 1 -22 1q-9 0 -18.5 -8t-9.5 -14q0 -7 -1 -3
q-1 5 -3 5q-1 0 -20 -14q-18 -16 -24 -19q-4 -2 -4 -2.5t6 -2.5q15 -2 34 18q10 12 10 8q0 -2 -2.5 -7.5t-16 -15t-18.5 -9.5t-11 4q-6 1 -6 -1q-1 -4 8 -10q8 -5 24 -4q23 3 30.5 4.5t15.5 10.5q9 10 18 16q7 5 6 3l-1 -2q-3 -5 -9 -9q-5 -4 -8 -11q-5 -12 -30 -18
q-28 -5 -39 -2.5t-23 14.5q-10 13 -10 15t2.5 3t6 -0.5t6.5 -2.5q3 -4 3 1q0 3 12 11q11 6 36 26zM379 399q18 9 21 5q1 -1 6 0q6 4 10 -1q0 -1 -2 -2q-3 -5 -26 -19q-3 -1 -3 0q0 2 9 10q3 4 2.5 4.5t-7.5 -0.5q-10 -1 -22.5 -7t-13.5 -6q-3 0 5 4q9 7 21 12zM153 112
q15 6 15 2.5t-6 -9.5t-11 -8l-34 -13l1 1q15 7 20 11q14 8 13 10q-2 2 -15 -2q-14 -3 -19 -3l11 5q16 4 25 6zM373 102q12 4 16 3t4 -7q0 -27 -17 -40q-10 -9 -19.5 -12.5t-13.5 0.5q1 2 5 2q6 0 7 1q4 6 -10 0q-7 -1 -14 -9q-6 -7 -10.5 -6t-4.5 9q0 6 3 9q1 1 1 11
q0 6 3 13.5t6 7.5t0 -5q-5 -9 0.5 -11.5t13.5 3.5q18 16 28 16q3 0 8 4q3 4 -2 4h-15q-20 0 -24 -4q-5 -3 -5 -1t7.5 5.5t13.5 3.5t19 3zM382 77q7 4 -1 5q-2 0 -5 -1q-6 -2 -15 -2q-6 -2 -13 -9q-9 -6 -15 -6q-7 0 -10 -13q-2 -5 2 -5t4 2q0 5 24 9q19 2 23 8q2 4 1 5
q-1 3 -11.5 -1.5t-12.5 -8.5q-4 -3 -3.5 0.5t9.5 9t14.5 5.5t8.5 2zM53 81q6 3 6 -7q0 -16 17 -27q7 -4 17 -1.5t17 9.5q16 20 19 18t-5 -12t-4 -10q12 -2 -9 -9q-31 -10 -42 0q-7 5 -13.5 15.5t-6.5 16.5q0 5 4 7z" />
    <glyph glyph-name="T" unicode="T" horiz-adv-x="513" 
d="M415 659q14 1 33 0q17 0 21 -3t4 -17q0 -12 -5 -14q-6 -3 -71 -5q-67 -3 -70 -3q-6 -1 -6 -11q0 -5 -3 -35q-2 -37 -5 -59q-2 -44 -10 -116q-2 -9 -4 -33t-4 -35q-1 -8 -2.5 -29t-3.5 -27q-3 -33 -9 -117q-5 -57 -13 -67q-4 -4 -9 -8q-7 -4 -13 0q-7 4 -7 14t7 63
q2 19 7 66q0 6 2 19t2.5 23.5t1.5 15.5q1 8 3 29t3 29q7 65 7 70q11 100 14 147q3 45 1 52q-1 4 -3.5 5t-15.5 -1q-15 -1 -38 -4q-46 -8 -128 -8q-48 0 -54 5q-7 7 1 14q10 9 84 14q77 6 115 11q48 7 168 15z" />
    <glyph glyph-name="U" unicode="U" horiz-adv-x="464" 
d="M372 656q13 11 21.5 5.5t15.5 -26.5q15 -52 6.5 -128.5t-20.5 -133t-26 -103.5t-39 -92q-21 -43 -43 -66q-28 -26 -50 -33t-52.5 -5t-55 18t-40 38t-22.5 39q-25 54 -27 241q0 73 1.5 94t7.5 58q5 24 8 38.5t6.5 23t7.5 9t10 -1.5q7 -4 8 -12t-4 -36q-10 -51 -11.5 -79.5
t-0.5 -115.5q1 -92 6 -126t18 -73q8 -20 15.5 -31t26.5 -28q32 -23 54 -23.5t47.5 12.5t59.5 72q19 33 26.5 55.5t18.5 75.5q10 45 18 86q23 100 21 145q-4 65 -17 86q-4 8 -3.5 9.5t8.5 7.5z" />
    <glyph glyph-name="V" unicode="V" horiz-adv-x="604" 
d="M116 657q7 7 14 -3q11 -16 46 -153q10 -44 24 -110q13 -71 34 -122q5 -14 8 -17t7 -3q11 0 3 -12q-2 -5 21 -49q24 -42 29 -47q4 -5 9 2q4 5 15 32q9 28 34 120q3 8 6 18l6 20t3 14q17 57 14 57l-3 -1q-15 -5 -39 -3.5t-37 9.5q-7 2 -17 17q-8 13 -17 18q-4 3 -5.5 9.5
t3.5 9.5q5 4 15 -1t14 1q5 6 17 12q10 6 56 41.5t48 40.5q2 3 6 33q7 51 17 61q2 3 10.5 5t14.5 -5q5 -4 4.5 -11.5t-6.5 -40.5q-5 -25 -4 -27q2 -2 22 -2q21 -3 26 -7q10 -8 2 -8q-3 0 -8 3q-10 3 -34 3q-24 -1 -34 -8q-11 -6 -11 -9q0 -2 -8.5 -7t-9.5 -14q-1 -12 -4 -14
q-3 0 -2 4v2q2 8 -2 8.5t-10 -6.5q-4 -4 -37 -28q-32 -23 -32 -25.5t-7 -5.5q-15 -3 -1 -6q2 -1 6 -1q12 -1 26 6q12 5 28 17.5t16 15.5q0 2 4.5 6.5t7.5 4.5q7 0 -4 -17q-6 -11 -30.5 -28t-33.5 -17q-13 0 -28 10q-3 -2 -4 -6q0 -8 13 -16q30 -18 72 -7q21 6 30 7
q23 4 31 17q5 6 33.5 32.5t33.5 29.5t14 3q14 0 6 11q-13 17 -5 21q5 1 11 -7q11 -11 14 -15q7 -7 7 -11t-7 -11q-8 -7 -30 -8q-17 0 -21.5 -2.5t-16.5 -14.5q-15 -16 -23 -31q-12 -20 -32 -27q-8 -4 -16 -38q-11 -44 -58 -201q-3 -15 -8 -32q-13 -43 -25 -58q-6 -7 -20 -7
t-21 8.5t-30 53.5q-22 42 -28 51q-2 4 -4 3.5t-8 -5.5q-9 -7 -46 -11q-33 -3 -44 5q-4 4 -16 18t-12 15q0 7 13 -9q2 -2 3 -4q16 -20 36 -20h9l-6 4q-6 2 -16.5 12.5t-10.5 12.5q0 3 12 -8q14 -13 20 -13t0 6q-2 1 -3 3q-12 12 -13 15l14 -11q21 -18 32 -18q8 0 20.5 6.5
t18.5 14.5t5.5 9t-10.5 -5q-12 -4 -26 -6q-13 -1 -38 12q-22 12 -34 13.5t-37 -3.5q-15 -4 -18.5 -3.5t-8.5 4.5q-7 7 -13 10q-5 1 -6 5t3 6q3 1 3 -2q0 -4 3 -6t7 2q3 2 4.5 1.5t4.5 -9.5q3 -6 8.5 -6.5t21.5 6.5q11 4 27 4q17 0 35 -11q20 -13 34 -13t14 1t-20 12
q-18 12 -18 13.5t7 -1.5t15 -7.5t12 -5.5q4 -4 8 -5t6.5 -0.5t2.5 2.5q0 4 -23 14q-24 11 -37 17q-15 7 -33 9l-19 2l18 1q18 0 39 -10q15 -7 44 -19q17 -9 20.5 -9.5t8.5 4.5t4 5.5t-7 1.5q-7 1 -38 21q-43 28 -70 24h-7l3 1q7 3 26 1t30 -8q12 -7 14 -7l-1 4t-3 11.5
t-4 15.5q-10 31 -10 40q0 6 -17 89t-26 115q-15 63 -18 83.5t3 26.5zM431 289q5 5 19 -3q8 -6 21 -8q12 -1 13 -5l-6 -1q-22 0 -31 6q-7 5 -8.5 4t-1.5 -9q0 -9 -5 -12q-3 -4 -2 -9q1 -3 -1 -3q-5 -3 -7 3q-3 6 2 14q5 5 5 13t2 10zM520 283q5 4 6 -5q0 -4 1 -7
q1 -26 -24 -48q-7 -6 -11 -7l-1 1q3 4 9 10q12 11 7 12t-9 -2q-6 -4 -7 0q0 2 9 6q19 7 19 23q0 3 -2 4.5t-9 1.5h-13l12 3q9 4 13 8zM501 262q15 7 15 4q0 -4 -6 -10q-13 -11 -22 -11q-4 0 7 6q12 7 7 9q-1 1 -5 0q-2 -2 0 1q1 0 4 1zM484 258l6 2v-2q-2 -3 -7 -2q-5 0 1 2
zM428 238q1 5 3 3q4 -2 1 -4q-1 -4 4 -13t10 -12q13 -6 30 12q9 11 12 9q1 -1 -4 -6t-4 -11q0 -4 -9.5 -7.5t-20.5 -3.5q-8 0 -17 12t-5 21z" />
    <glyph glyph-name="W" unicode="W" horiz-adv-x="708" 
d="M639 654q5 5 8 5t11 -5q10 -6 7.5 -47t-14.5 -83q-16 -48 -40 -170q-13 -69 -37.5 -150t-38.5 -105q-9 -14 -25 -17.5t-31 6.5q-12 9 -29 41.5t-31 73.5q-25 73 -40 167q-20 121 -27 132q-3 5 -7 -2q-11 -15 -26 -150q-23 -202 -32 -243q-2 -11 -12 -11q-9 0 -15 6
q-9 8 -54.5 87.5t-48.5 92.5q-6 19 -26 63q-13 30 -52 157.5t-39 141.5q0 7 8 9t14 -4q6 -5 22 -53t29 -98q22 -87 72 -195q16 -34 41 -75.5t31 -41.5q9 0 17 59q13 84 27 205q1 19 13 73.5t15 59.5q3 4 11.5 3t16.5 -7q24 -17 52 -184q13 -87 41.5 -173t48.5 -95q7 -4 9 -2
q5 4 19.5 43.5t21.5 67.5q4 12 19 72q6 24 21 95q12 66 25 108q12 42 17 90q3 47 8 53z" />
    <glyph glyph-name="X" unicode="X" horiz-adv-x="507" 
d="M441 656q18 8 23 0q3 -7 -68 -114q-13 -18 -80 -118q-40 -57 -41 -64q-3 -9 33 -58.5t92 -114.5q53 -60 55 -65q4 -5 4 -18q0 -34 -34 -8q-13 11 -30 36q-19 27 -39 50q-17 20 -51 62q-44 57 -55 65q-4 4 -6 2t-12 -14q-50 -66 -104 -147q-35 -50 -52 -64
q-5 -4 -13.5 -4.5t-12.5 3.5q-8 6 0.5 21.5t44.5 63.5q15 16 30 40q42 63 58 82q30 38 37 65q2 7 -14 34q-5 8 -17 27.5t-16 27.5q-17 27 -30 44q-14 23 -27 42q-16 24 -45 55q-27 29 -30 36q-1 5 3 11.5t9 6.5q12 0 41 -31q47 -48 114 -155q23 -36 30.5 -46t12.5 -10
q3 0 23 26t25 36q4 7 17 23q23 32 74 109q39 58 51 63z" />
    <glyph glyph-name="Y" unicode="Y" horiz-adv-x="688" 
d="M523 651q17 16 25 5q5 -4 -3 -18q-9 -14 -19 -29q-10 -13 -10 -17q0 -2 -8 -6q-20 -10 -59 -56q-19 -22 -46 -36q-25 -13 -26 -18q-1 -9 21 -9q9 0 20 -9q12 -9 20 -12q18 -7 47 24q15 16 30 23q13 5 27 15t17 8q6 -1 20 4.5t22 12.5q23 20 24 38q1 8 -1 9.5t-14 3.5
q-17 2 -29 7t-25 5q-14 2 -14 5q0 5 14 4t25 -5q14 -5 39 -4q18 0 21 -0.5t3 -8.5q-2 -12 0 -21q4 -12 -21 -59q-24 -43 -46 -52q-12 -4 -18 -9q-9 -8 -38.5 -16.5t-46.5 -8.5q-13 0 -34 7.5t-31 16.5q-9 9 -13 6q-2 -1 -16 -15q-9 -10 -11 -16.5t-3 -30.5q-4 -59 -14 -111
q-6 -30 -12 -84q-9 -77 -13.5 -96t-15.5 -19q-19 0 -19 23q0 14 12.5 117.5t17.5 126.5q8 44 -15 71q-9 11 -32 48q-22 35 -71 101q-35 49 -40.5 58.5t-2.5 16.5q2 9 5.5 10.5t9 -2t14.5 -13.5q13 -14 52 -67t57 -80q27 -41 37 -41q4 0 16 8q7 5 7.5 7t-6.5 7q-6 5 -6.5 6.5
t2.5 6.5q4 8 29 19.5t35 18.5q20 17 85 102q16 19 25 28zM606 508q0 2 -6 3.5t-10 -1.5q-1 -1 -15 -2q-15 0 -40 -13q-37 -20 -37 -33q0 -3 -16 -16t-14 -17q4 -3 20 -1.5t29 7.5q28 10 51.5 25.5t30.5 29.5t7 18zM544 552q27 12 46 12q20 0 20 -5t-10 -12q-2 -1 -10.5 -7.5
t-11.5 -7.5q-14 -11 -16.5 -9t9.5 15q11 11 11 14l-3 -0.5t-8 -3.5q-11 -2 -18 -2t-20 -8q-12 -7 -22 -9q-6 -3 -6.5 -3t5.5 6q7 6 34 20zM482 218q11 4 14 3q4 -1 4 -20t-4 -30q-5 -12 -11.5 -19.5t-24.5 -17.5q-18 -11 -32 -10q-20 0 -1 4q4 1 9 3q4 1 4 3q-3 1 -17 -2.5
t-20 -13.5q-6 -8 -13 -12q-6 -2 -11 4q-6 5 -6 13t5 11t5 17q0 21 11 33q2 3 3 -1q1 -3 -2 -10q-9 -13 6 -13q9 0 20 7q9 8 24.5 15t20.5 7q4 0 10 4.5t6 8.5q0 2 -28 2t-39 -6q-11 -4 -11 -2q4 11 45 15q21 3 33 7zM488 180q-1 4 -11.5 3t-27.5 -7.5t-28 -14.5
q-11 -7 -19 -8q-6 0 -8 -3t-5 -12q-4 -12 -3 -14q2 -1 12 5q11 7 20 9q8 2 14 11t17 15t19 6q20 0 20 10zM476 161q0 4 -4.5 4t-12 -2.5t-13.5 -6.5q-9 -12 -2 -13q14 0 23 8t9 10zM67 215q12 9 28.5 -3.5t49.5 -15.5q16 -2 18 -4l-9 -3h-17q-33 2 -45 9t-15 7q-4 -2 -1 -16
q1 -13 -7 -21t-7 -17q3 -7 0 -8t-10 5q-12 11 2 28q7 11 7 23t6 16zM229 205q5 9 9 -2q1 -4 1 -7l2 -20q4 -12 -19.5 -46.5t-40.5 -39.5q-11 -3 -11 0q0 1 4 5q13 6 25 18.5t10 18.5q-1 2 -19 -5t-28 -21q-14 -18 -4.5 -18t-6.5 -6q-24 -9 -43 -11q-13 -3 -23 4
q-14 9 -23 24.5t-6 27.5q2 6 4 7.5t4.5 -1t2.5 -8.5q0 -10 4 -20q5 -7 16 -16.5t16 -8.5q7 2 16 3q12 2 19 11q23 27 26 27t16 7q14 9 22 11q7 4 16.5 17t9.5 21q0 7 -2 8t-9 0q-24 -2 -36 4q1 3 11 3q8 0 21.5 5t15.5 8zM194 172q11 3 21 3h8.5t-3.5 -5q-17 -19 -50 -30
l-13 -3l1 1q4 5 6 5q3 0 20 10q22 12 10 12q-7 0 -30 -5q-8 -1 -8 1q2 4 14 4q15 2 24 7z" />
    <glyph glyph-name="Z" unicode="Z" horiz-adv-x="500" 
d="M262 655q13 2 92 3q55 0 66.5 -0.5t16.5 -3.5q9 -9 0 -34q-12 -25 -69 -91q-18 -20 -32 -41q-12 -20 -22 -35q-12 -16 -36 -52q-15 -24 -57 -84q-34 -45 -61 -97q-16 -31 -26 -47q-24 -44 -21 -46q1 0 162 -2q125 -1 152 -3t30 -8q3 -4 1.5 -11.5t-6.5 -10.5
q-3 -2 -142 -2q-142 0 -172 -3q-28 -3 -59 -5q-27 -2 -32 3q-7 5 -3.5 12.5t28.5 46.5q19 31 55 90q71 116 87 136q19 23 63 94q29 47 58 84q56 77 56 85q-2 2 -22 1.5t-56 -4t-74 -10.5q-103 -16 -118 -7q-13 7 -15.5 13.5t6.5 8.5q6 3 44 7q38 3 65 6q37 7 41 7z" />
    <glyph glyph-name="bracketleft" unicode="[" horiz-adv-x="324" 
d="M197 722q36 7 49 3q25 -9 7 -31q-5 -5 -11 -6.5t-32 -3.5q-44 -3 -73 -7q-7 -1 -27.5 -3.5t-26.5 -3.5l-19 -1l10 -40q9 -29 10 -56t1 -160q0 -177 -5 -231q-2 -45 -1.5 -57.5t6.5 -14.5q5 -3 84 -6q105 -6 111 -11q4 -4 3 -11.5t-7 -13.5q-6 -5 -18 -6.5t-77 1.5
q-86 1 -105 3q-24 5 -29.5 22t-0.5 76q3 52 4.5 227t-1.5 196q-1 11 -7 53l-2 30l13 13q11 11 26.5 16t53.5 12q10 2 33.5 5.5t30.5 5.5z" />
    <glyph glyph-name="bracketright" unicode="]" horiz-adv-x="353" 
d="M273 730q1 1 15 1t16 -6q9 -14 -1 -36q-11 -25 -15 -99q-9 -135 -10 -362q-1 -75 5 -85q5 -9 4 -13.5t-9 -15.5q-7 -8 -11.5 -9t-20.5 0q-76 5 -141 -5q-35 -5 -48 -5q-9 0 -11.5 0.5t-3.5 5.5q-2 7 4 13q10 11 54 19.5t98 12.5q26 1 31 2t7 11q6 37 16 449l1 74h-91
q-66 0 -80 0.5t-18 4.5q-15 17 14 25q14 5 85 7q103 4 110 11z" />
    <glyph glyph-name="asciicircum" unicode="^" horiz-adv-x="408" 
d="M178 661q8 3 24 2q13 -1 19.5 -5t18.5 -21q17 -25 34 -69q8 -22 10 -28q5 -10 9 -17q9 -23 15 -36q12 -24 12 -25l10 -23q38 -82 26 -97q-3 -4 -11 -4t-13 5q-4 3 -19 41q-12 34 -27 67q-15 27 -26 54q-10 24 -13 30q-3 7 -8 21q-18 45 -30 57q-10 11 -27 -10
q-12 -15 -34.5 -62t-35.5 -85q-9 -21 -14 -38q-22 -64 -40 -74q-12 -7 -15 8q-3 17 15 59q7 18 20 53q20 54 59 132q17 36 24.5 48t16.5 17z" />
    <glyph glyph-name="grave" unicode="`" horiz-adv-x="212" 
d="M47 752q7 6 12.5 1.5t23.5 -29.5q15 -23 15 -23.5t6 -11.5q6 -9 13 -20q5 -9 11 -17q12 -22 27 -46q9 -12 13 -20t0 -10q-7 -4 -20 0q-14 4 -26 24q-4 6 -15 24q-12 18 -13.5 22t-18.5 31q-24 40 -29.5 53.5t1.5 21.5z" />
    <glyph glyph-name="a" unicode="a" horiz-adv-x="362" 
d="M176 515q8 3 27 3q21 -1 60 -21q37 -18 43 -24q8 -11 0 -79q-14 -115 3 -231q4 -27 9 -36q3 -10 3 -23q1 -37 -34 -11q-12 10 -17 22t-9 39q-5 35 -7 36q-5 4 -25 -22q-40 -58 -54.5 -69.5t-40.5 -11.5q-23 0 -35.5 7t-28.5 27q-17 24 -21.5 35t-5.5 39q-3 84 11 140
q4 22 22.5 58t35.5 58q28 39 64 64zM246 462q-6 3 -9 3q-1 -3 -17 -4q-40 -6 -56 -20q-21 -21 -44 -73q-20 -40 -22.5 -57t-2.5 -81q0 -56 0.5 -66.5t5.5 -16.5q9 -8 17 -13q8 -4 19 4q14 9 35.5 36t37.5 56q13 25 25 61t11 44q-2 5 2 36q10 72 7 80.5t-9 10.5z" />
    <glyph glyph-name="b" unicode="b" horiz-adv-x="370" 
d="M124 617q3 6 5.5 6t10.5 -6q5 -4 5.5 -11.5t0.5 -46.5q-2 -55 -5 -77q-11 -78 -19 -122q-6 -30 -3 -32.5t29 10.5q51 24 81 27q29 2 47 -9.5t34 -47.5q20 -40 16 -79q-5 -51 -49 -95q-27 -27 -66 -46q-19 -9 -39.5 -9t-75.5 15l-10 5q-5 4 -11.5 4t-7.5 -3
q-3 -3 -10.5 -2t-10.5 5q-6 5 -4 29q2 25 7 44q17 62 23 97q1 6 7.5 41.5t10.5 55.5q16 89 22 174q7 64 12 73zM256 315q-33 18 -82 -13q-37 -24 -57 -67q-10 -20 -20 -49.5t-10 -37.5q0 -9 37 -25q22 -10 39 -10t36 10q86 47 86 125q0 49 -29 67z" />
    <glyph glyph-name="c" unicode="c" horiz-adv-x="609" 
d="M87 580q45 9 81 -15q20 -14 27 -32t9 -61q1 -34 -1 -39q-8 -9 -9 8v20q1 27 -6 48q-20 51 -34 49q-3 0 -4 -4q-4 -3 -10 0q-9 4 -5 -1q1 -3 7 -10q12 -13 23 -32.5t13 -32.5q3 -19 0 -19q-3 2 -5 14q-5 14 -11 24q-10 19 -29.5 38t-29.5 19q-2 0 -14 -14l-10 -14l9 -10
q17 -19 9 -30q-3 -4 -18 -19q-14 -14 -16.5 -21.5t2.5 -22.5t18 -25q34 -32 61 -29q10 1 22 5t12 6q0 1 -8 3q-6 1 -26 15l-36 24q-26 15 -14 15q4 0 11 -4q27 -20 55 -28q23 -7 23 -4.5t-22 22.5q-26 26 -34 29q-4 2 -10 7t-10.5 9.5t-3.5 6.5q2 2 10 -5q10 -8 13 -7
q10 4 28 -15q8 -10 26 -23q16 -13 29 -13q22 0 8 -12q-8 -7 -7.5 -8t7.5 -4q8 -5 5 -9q-2 -1 -3.5 -1t-13.5 -8q-21 -13 -50 -15.5t-47 7.5q-17 8 -41 36q-15 19 -19.5 27t-4.5 19q0 9 1 12t10 12q14 12 9 12q-3 0 -10 -5q-9 -7 -10 -5q-3 2 7 29q5 11 0 23q-6 22 3.5 37.5
t33.5 20.5zM81 544q7 15 3 15q-1 0 -6 -4q-10 -7 -10 -16q1 -15 13 5zM74 492q0 4 -2 7t-4 -3q-3 -11 1 -10t5 1v5zM110 517l-2 3q-1 1 5 -4q8 -5 17 -21.5t9 -23.5q-2 -5 -4.5 -6t-3.5 6q-3 7 -10.5 25t-10.5 21zM384 487q17 3 33 0q13 -2 28.5 -9.5t20.5 -14.5t4 -15
q-3 -25 -25 -9q-31 24 -67 5q-13 -6 -36 -28.5t-38 -45.5q-51 -72 -63 -146q-5 -35 2 -40q28 -19 43 -19q5 0 5.5 -1.5t-3.5 -8.5q-7 -18 3 -23q13 -9 34 -9.5t39 4.5q29 10 54 38q47 49 48 10q0 -19 -21 -43q-9 -10 -25 -22t-23 -16q-32 -11 -58 -11q-39 0 -86 19
q-16 6 -36 4q-21 -3 -28 1q-5 2 -16.5 15.5t-10.5 14.5q2 1 7.5 -5t5.5 -9q0 -1 9.5 -6.5t15.5 -7.5h5.5t-0.5 4q0 4 4 4.5t-1 7.5q-5 5 -4 6t11 -9q10 -9 21 -9q15 0 29 14q8 10 5 10q-2 0 -8 -2q-8 -4 -23 -5q-15 0 -32 11q-13 9 -17.5 10t-15.5 0q-17 -1 -19 -3
q-3 -1 -13 -2q-11 0 -15.5 5t-9.5 6q-6 2 -6 5t2.5 3.5t3.5 -3.5q1 -1 6 0q5 0 9 -6q7 -10 18 -4q21 12 38 8q7 -1 22 -12q17 -10 28 -10q15 0 4 7q-1 1 -5 2q-15 9 -6 9q2 0 12 -6q13 -8 15 -8q5 0 1 6q-1 2 -3 3l-23 14q8 0 30 -13q7 -2 10 0q10 4 -2 9q-6 3 -28 16
q-23 13 -34 18l-13 4l6 24q13 77 46 134q17 27 43 58t47 48q24 19 46 24zM501 396q9 4 26 -5q6 -2 21.5 -1t17.5 -2q1 -4 -2 -9q-2 -4 0 -9q5 -8 -12 -44q-10 -19 -18.5 -27t-28.5 -18q-24 -13 -25 -13q-6 0 1 5q2 1 3 3q17 7 34 20q21 16 21 30q0 5 -6 3q-8 -2 -14 -2
q-9 -1 -14 -3q-26 -14 -34 -28q-5 -9 -11 -14q-8 -5 -6 -11q1 -4 -0.5 -4.5t-7.5 0.5q-18 2 -32 16q-7 7 -12 7q-13 0 -25 11q-5 5 -1.5 9.5t18.5 13.5q34 17 44 31q5 7 17 18t19 15q5 2 5 1q1 -4 -10 -14q-13 -10 -27 -28q-15 -21 -38 -33q-20 -12 -1 -14q10 -2 20 -10
q9 -8 14 -8q4 0 14 7.5t15 13.5q6 9 13 12q6 2 17 10q10 7 19 10q13 1 24.5 11.5t13.5 23.5q1 6 -1.5 8.5t-11.5 2.5q-7 0 -18 5t-16 5t-6 3q-2 1 1 2zM501 359q10 5 19.5 7.5t15.5 1.5t6 -4q0 -4 -14 -15.5t-15 -8.5q-2 1 5 9l6 8l-11 -2q-10 -1 -20 -6q-9 -7 -13 -7
q-8 0 10 12q5 2 11 5zM460 267q4 -1 7 0l-1 1h-4q-1 -1 -2 -1zM209 172q3 -1 5 2l-4 1zM220 169q4 -2 5 0l-3 1zM189 128q0 5 9 -3q6 -8 4 -8q-3 0 -8 5t-5 6z" />
    <glyph glyph-name="d" unicode="d" horiz-adv-x="382" 
d="M306 610q18 8 29 0q7 -4 7 -19q0 -18 -16 -84q-2 -13 -21 -89q-23 -89 -27.5 -125t2.5 -84q6 -38 13 -53.5t32 -44.5q14 -17 14 -22t-13 -7t-30 1q-28 5 -43 33q-6 13 -19 55q-3 15 -5.5 15t-18.5 -19.5t-38 -41t-31 -24.5q-17 -9 -45 -2q-20 5 -35.5 28t-16.5 49
q-4 47 25 120t63 107q10 9 27 18.5t26 9.5q12 0 28 -13t14 -19q-1 -2 -27 -4q-17 -1 -22 -3t-15 -12q-27 -25 -50 -74q-41 -87 -34 -129q3 -10 11 -22t16 -17q10 -3 19 0q21 10 54.5 58t46.5 85q3 14 10 88q6 79 11.5 108.5t22.5 65.5q11 25 14 35q7 24 22 32z" />
    <glyph glyph-name="e" unicode="e" horiz-adv-x="536" 
d="M230 505q9 2 49 4q31 0 37 -1.5t14 -7.5q10 -8 16 -18q5 -10 1 -23q-6 -27 -25 -68t-33 -59q-54 -70 -137 -82q-14 -1 -19 -6t-6 -16q-3 -26 9 -39q5 -7 6.5 -7.5t7.5 2.5q2 2 6 3.5t6.5 1.5t2.5 -2t-10 -9q-9 -7 -33 -35q-24 -29 -37.5 -36t-19.5 -12q-5 -3 -1 -7
q5 -4 10.5 -4t12 -2.5t6.5 -5.5q0 -2 9.5 -7.5t17 -2t23.5 18.5q15 17 28 23q13 7 18 13q5 3 10 3q17 -1 35 19q20 23 11 34q-2 4 -9 3q-6 -2 -21 5q-15 6 -24 6q-6 0 -5 3t11 2.5t18 -4.5q9 -5 25 -2q18 1 20 -3q4 -3 0 -10q-2 -5 0 -10q4 -6 -1 -18q-6 -11 -6 -17
q0 -5 12 -4q43 6 70 28q16 14 26 4q18 -19 -10 -47q-12 -13 -25 -15q-34 -9 -72 -9q-25 0 -31 -6q-14 -14 -42.5 -25.5t-46.5 -11.5q-11 0 -25.5 6t-23.5 13q-9 9 -15 9t-17 7q-13 7 -13 13q1 6 23 18q39 20 44 29q2 3 -4 11q-30 33 -19 125q14 99 95 185q34 37 51 43z
M298 476q-14 7 -38 -4q-27 -15 -43.5 -29t-36.5 -42q-28 -37 -38 -79q-6 -21 -3.5 -25.5t19.5 -3.5q23 1 42 12t44 37q24 23 34 40t21 51q7 24 7 31t-8 12zM233 117q0 4 -24 0q-15 -2 -36 -15.5t-21 -21.5q0 -2 -11 -14q-12 -11 -10 -14q1 -1 12 -1q18 0 47.5 18.5
t37.5 33.5q5 11 5 14zM418 396q29 4 40 -3q7 -4 5.5 -5.5t-10.5 1.5q-20 6 -38 -1q-7 -3 -20 -15q-12 -12 -15 -12q-2 0 -5 -5q-4 -4 -18 -14q-42 -31 -42 -40q0 -4 7 -10q9 -6 30 -5q48 0 62 16q8 9 10 12l3.5 3t7.5 7.5t9 7.5q17 18 24 18q14 0 5 14q-5 6 -1.5 9.5
t13.5 -9.5q9 -10 10 -12.5t-3 -7.5q-5 -7 -16 -7q-15 0 -21.5 -3t-15.5 -13q-10 -12 -14 -21q-7 -15 -35 -22q-19 -5 -40.5 -5.5t-27.5 3.5t-18 18.5t-12 17.5q0 10 13 5q6 -3 12 3q3 2 29 23q23 17 43 35q20 17 29 17zM374 337q11 14 11 8q0 -4 -4 -12q-8 -16 -36 -29
q-8 -5 -17 -2q-8 4 -7.5 6.5t10.5 2.5q9 0 22 7.5t21 18.5zM187 153q19 9 33 9q15 0 15 -2q0 -5 -28 -27q-5 -4 -6 -2t5 10q9 11 4 11q-1 0 -4 -1q-6 -4 -11 -4t-16 -5q-11 -6 -17 -8q-4 -1 -4.5 -0.5t4.5 4.5q8 6 25 15z" />
    <glyph glyph-name="f" unicode="f" horiz-adv-x="486" 
d="M97 739q4 2 20 0q14 0 30 -5q28 -12 37.5 -28.5t8.5 -52.5q0 -25 -4 -25q-3 0 -3.5 2.5t-0.5 18.5q0 23 -9 39q-17 35 -29 34l-4 -4t-8 0q-8 4 -8 2t9 -9q7 -7 18 -21t15 -21q1 -4 1.5 -9t0 -8t-2 -3t-6.5 13t-16 25q-21 24 -40 29q-7 2 -12 -1q-3 -1 -7.5 -8t-7.5 -7
q-5 0 7 -10q13 -11 10 -21q-2 -1 -17 -14q-14 -11 -16.5 -16.5t2.5 -17.5q4 -10 17 -20q14 -10 26 -16q14 -6 28 -4q26 2 31 8q0 1 -6 2q-7 0 -16 7q-8 5 -29.5 15.5t-24.5 12.5q-3 0 -3 2q0 6 14 0q40 -21 69 -25h8l-8 4q-6 5 -22.5 18t-28.5 20q-7 1 -12 4.5t-7.5 6.5
t-1.5 4q2 1 10.5 -3.5t11.5 -4.5q11 0 24 -11q5 -5 21.5 -15.5t21.5 -12.5q3 -2 12 -1q9 0 11 -1.5t-1.5 -5t-8.5 -4.5q-3 -1 -3 -1.5t6 -3.5q11 -5 0 -11q-8 -2 -10 -4q-3 -2 -18 -6q-14 -5 -36.5 -5t-36.5 5q-15 7 -41 31q-18 17 -18 30q0 8 1 10.5t10 8.5q10 8 8 8
q-3 1 -6 -1.5t-4 -2.5q-3 0 -4 -2q0 -1 -4 0q-5 0 4 15q8 13 3 23q-7 13 2 27q9 13 43 17zM86 722q0 4 -12 -4q-14 -8 -4 -16q4 -3 4 0.5t6 10.5t6 9zM73 673q0 11 -6 2q-3 -8 1 -8l4 1q1 0 1 5zM291 697q7 3 20 3q15 0 38.5 -2t24.5 -3q3 -2 3 -7q0 -7 -4.5 -8.5
t-22.5 -0.5q-19 1 -27 -1t-18 -9q-14 -12 -19 -25.5t-9 -43.5q-1 -6 -2.5 -19t-1.5 -17q-2 -13 -3 -43.5t2 -34.5q3 -9 19 -5q23 5 53.5 6.5t39.5 -2.5q14 -7 14 -19q-1 -5 -2.5 -6.5t-7.5 -4.5q-9 -2 -50 -5q-49 -4 -67 -8q-10 -6 -9 -15q-8 -95 -13 -133t-15.5 -91
t-20.5 -79q-12 -37 -25 -45q-5 -3 -26.5 -3.5t-24 0.5t8.5 13q11 10 16 19q17 28 32 112q1 0 5 25q9 42 15 118q3 24 4 44q2 20 -0.5 22t-42.5 -7q-87 -20 -105 -8q-8 6 -2.5 18t40.5 14q60 9 105 19q10 2 12.5 8.5t2.5 25.5t1 41q1 7 2.5 22.5t1.5 19.5q6 58 10 67
q4 12 20.5 28.5t27.5 19.5zM106 691q-4 3 -3 3q3 0 9 -4q6 -5 15 -19t6 -16q-3 -6 -10 6l-2 6q-8 18 -15 24zM268 216h2.5h4.5q7 1 18 -7q18 -12 56 -15q16 -2 16 -5q-1 -1 -23 -1t-31 2q-11 2 -23 8t-13 6q-7 0 -3 -14q3 -13 -10 -23q-6 -5 -5 -10q1 -2 1.5 -5t0.5 -4.5
t-0.5 -1.5t-6.5 1q-20 8 -4 30q8 9 8 19q0 17 12 20zM430 204q5 4 10 1t2 -8q-5 -8 0 -14q4 -5 2 -14.5t-9 -15.5q-5 -4 -7 -10q-2 -8 -12 -19q-7 -5 -14 -14q-14 -13 -28 -13q-10 0 6 7q10 5 20.5 17.5t10.5 13.5q0 5 -23 -5q-16 -7 -16 -3q0 3 22 12q12 6 18 10
q5 5 11.5 14.5t6.5 13.5q0 6 -3 7t-15 1q-32 -1 -34 3q0 2 12 3q11 0 23.5 4.5t16.5 8.5zM409 176q15 2 15 -1q0 -2 -2.5 -3.5t-4.5 -4.5q-6 -10 -45 -24q-24 -7 -27 -7l24 11q16 8 30 16q4 2 1.5 4t-7.5 0t-10 -2t-15 -2q-10 -4 -20 -2h-3q-5 0 -4.5 0.5t12.5 1.5q3 2 5 2
q12 2 19 2q10 3 18 6q11 3 14 3zM254 135q8 4 9 -7q0 -18 19 -32q10 -7 18 -7q30 0 41 17q4 6 13 13.5t13 6.5q6 -2 -3 -10q-5 -5 -10 -12l-6 -7h6q5 0 6 -2q1 -1 -0.5 -2.5t-13 -4t-21.5 -7.5q-21 -6 -38 -1q-15 5 -29 24q-15 23 -4 31z" />
    <glyph glyph-name="g" unicode="g" horiz-adv-x="362" 
d="M272.5 519q23.5 -9 33.5 -16.5t13 -14.5t3 -17q0 -11 -3 -20q-5 -16 -11 -36q-19 -62 -31 -210q-7 -77 -22 -124q-28 -84 -44 -109q-28 -42 -77 -50q-36 -7 -58 1q-19 7 -30 32q-6 14 1 14q15 2 36 -8q26 -15 54 -2q25 10 41.5 39t32.5 91q13 42 23.5 132.5t4.5 96.5
q-3 3 -30 -16q-19 -12 -29 -17q-26 -10 -55 3q-36 14 -36 78q0 34 15 62t46 56.5t65 36t57.5 -1.5zM258 483q-15 9 -32 3q-11 -5 -37 -25t-37 -35q-24 -28 -24 -67q-1 -18 0 -22.5t10 -10.5q13 -8 19 -8q19 0 57 31q23 17 31.5 29.5t15.5 31.5q5 12 8 30.5t2 22.5
q-2 2 -3 7.5t-10 12.5z" />
    <glyph glyph-name="h" unicode="h" horiz-adv-x="419" 
d="M147 656q3 2 15 1.5t14 -4.5q6 -7 3 -43.5t-19 -138.5q-8 -46 -11.5 -69t-5 -38t-1 -18t2.5 -3q3 0 29 23q36 35 61 45q36 11 47 2t15 -22.5t4 -42.5q0 -32 -3 -58t-7 -64q-8 -76 0.5 -97t44.5 -22q27 0 33.5 -2t8.5 -11q1 -6 -4.5 -10t-18.5 -5.5t-29.5 -2t-41.5 4.5
t-35 24q-6 15 -5 67q0 55 4 92q11 93 1 98q-6 3 -22 -7q-19 -11 -46.5 -46.5t-43.5 -70.5q-26 -51 -47 -122q-6 -26 -11 -31q-4 -3 -16 -3t-17.5 3.5t-1.5 19.5q20 103 44 195q16 60 36.5 180t20.5 158q0 16 2 18z" />
    <glyph glyph-name="i" unicode="i" horiz-adv-x="438" 
d="M172 660q9 1 24 1q15 -1 29 -6q24 -10 33 -26q8 -13 9 -44v-15t-0.5 -8.5t-2 -3.5t-3.5 -0.5t-2 19t-4 28.5q-12 30 -23 38q-3 1 -7 1t-4 -3q-1 -2 -7 0q-5 3 -5.5 1.5t7.5 -9.5q22 -20 28 -37q1 -4 1 -8v-7.5t-1 -3.5t-4 10q-5 12 -11 20q-8 10 -20.5 20t-19.5 13
t-18 -10q-9 -9 -2 -11q11 -7 11 -17q0 -5 -9 -14q-9 -7 -14 -11q-10 -8 -5 -24q4 -9 13 -17q17 -13 35 -20q5 -1 16 -1q8 0 17.5 3.5t10.5 4.5q0 1 -6 3q-8 1 -15 6q-7 4 -27 14.5t-21 10.5t-1 3t3.5 2t8.5 -4q5 -4 23.5 -11t24.5 -8q10 -2 13 -3q5 -1 5 0t-5 4q-5 4 -21 17
q-15 12 -22 15q-5 2 -13.5 8.5t-8.5 7.5l3.5 -0.5t7 -3t5.5 -3.5q1 -1 6 -2q9 0 21 -10q10 -8 23 -16q14 -9 22.5 -9t10.5 -1.5t-1 -4.5t-7 -4t3 -4q6 -3 5 -5q0 -2 -14 -8t-23 -9q-12 -2 -29 -2q-17 1 -29 5q-11 5 -34 25q-19 18 -19 31q0 8 9 15q13 10 9 10q-1 0 -8 -4.5
t-10 -2.5q-2 2 5 14t3 20q-5 12 1 24q8 14 30 17zM171 644q0 4 -10 -3q-6 -5 -6 -8.5t2.5 -6t2.5 -0.5t3.5 8t5.5 6.5t2 3.5zM159.5 602q-1.5 3 -2.5 3t-3 -4t-1 -5q0 -3 4 0t2.5 6zM186 619.5q0 0.5 7 -4t13 -15.5q10 -17 4 -18q-2 0 -3.5 2.5t-7.5 15.5q-5 11 -9 15
t-4 4.5zM208 467q6 6 13 1.5t18 -21.5t13 -24.5t2 -27.5q-1 -52 -11 -91q-3 -8 -1 -8.5t15 4.5q22 9 27 15q16 16 31 25q10 6 12 3q0 -1 -5 -4q-14 -8 -31 -27q-12 -12 -29 -21q-4 -1 -7 -3t-4.5 -3.5t-0.5 -2.5q2 -1 9 -2q8 -1 10 -2q4 -2 9 -6q6 -5 10 -5q9 0 24 15
q8 8 14 10q11 6 16 9q4 3 8 3q14 0 23 7q12 11 14 18q1 4 1 5q1 1 -1.5 3t-6.5 2q-5 -2 -16 3q-10 2 -15 2t-7 1.5t2 2.5q5 3 17 -1q15 -5 28 -1q5 1 7 -1t2 -12q0 -9 -4 -18q-14 -34 -34 -41q-6 -3 -9 -6q-2 -1 -12 -5t-13 -4q-8 0 0 4q1 0 4 1q11 3 29 15q11 6 15 12
q4 8 3 10t-6.5 1t-12.5 -2q-11 -1 -26 -9.5t-15 -12.5q0 -2 -9 -8q-7 -7 -6.5 -8.5t8.5 -2.5l7 -1l-2 -1q-10 -3 -32 3q-9 3 -14.5 7.5t-11.5 6.5q-7 0 -12 3q-8 5 -8 -1q0 -2 -2 -10q-15 -54 -15 -99q0 -21 8.5 -34t20.5 -10q5 0 12 5.5t8 9.5q3 10 14 16q8 5 13 1
q12 -11 12 -28q0 -8 -5 -13q-11 -14 -27 -21t-32 -8t-28.5 3t-21.5 16l-5 7l-3 -5q-2 -6 -12.5 -13t-16 -9t-19.5 -3q-2 0 -6.5 -0.5t-7.5 -1t-5 -0.5q-13 -1 -26 12q-8 9 -10 9q-3 4 -1 4q2 2 11.5 -9t22.5 -12q5 0 6 1q0 2 -6 6q-7 2 -10.5 7t0.5 2q2 -1 7 -5t9 -4
q4 -2 4 -1t-2 2q-1 3 -2 3l-5 5t1 0.5t9 -7.5q13 -12 29 -5q7 4 15 10t6 7q-1 1 -5 -2q-12 -6 -27 -4q-8 0 -22 7q-20 10 -36 7q-31 -5 -32 -1q-1 3 -8 5.5t-7 5.5q0 4 5 0q3 -3 5 -3q1 0 2.5 0.5t2.5 0.5q1 2 1 -1t2.5 -5.5t6.5 -2.5q3 0 11.5 4t21.5 4t24 -7q15 -8 26 -9
q13 -1 5 4q-3 3 -11 7q-6 2 -4 2q5 2 18 -6q11 -7 11 -2q0 2 -4 4q-2 2 -15 7q-12 5 -14.5 5h-4.5q-1 2 -9.5 6t-12.5 4q-5 -2 -10 0q-4 0 1 1h5q11 0 19 -3q6 -3 6.5 -4.5t4 -1.5t4.5 -1t10 -3q8 -3 18 -7q9 -4 14 -1q10 2 -3 5q-5 1 -24 12t-24.5 12l-16.5 3h-2l-9 1h7
q25 1 30 -4q3 -3 33 -15q14 -4 14 -1q-7 25 -7 50q0 31 7 67q2 11 11 52q10 37 10 74q0 13 -2.5 13.5t-10.5 -6.5t-23 -25q-18 -19 -24.5 -23t-17.5 -3q-16 1 -16 8q-2 10 44 62q43 48 48 62q0 5 5 9zM346 324q17 6 19 4q1 -2 6 0q7 2 8 -1t-5 -7q-3 -1 -6.5 -3.5t-4.5 -4.5
q-8 -5 -9.5 -4t5.5 7q4 5 4 7q-2 0 -4 -2q-3 0 -10 -1q-7 0 -12 -4q-2 0 -5 -2t-6.5 -2.5t-3.5 0.5q0 4 24 13z" />
    <glyph glyph-name="j" unicode="j" horiz-adv-x="434" 
d="M196 657q9 2 26 2q18 -2 28 -5q32 -12 38 -36q2 -8 2 -29.5t-1 -22.5q-4 -1 -5 4v13q0 18 -5 27q-15 34 -28 34q-2 0 -3.5 -2.5t-6.5 -0.5q-7 3 -6 0q0 -1 3 -2q7 -5 18 -18t13 -20q1 -3 2 -7.5t0 -7.5l-1 -3q-2 0 -2 1q0 12 -14 28q-5 7 -17 16t-18 11q-7 3 -12 -1
q-3 -3 -7 -7.5t-5 -4.5q-3 -2 1 -4q11 -8 13 -17q0 -4 -8 -11t-13 -10q-8 -4 -8 -11q0 -4 3 -12.5t5 -9.5q4 -2 8 -6q10 -8 28 -15q6 -2 17 -2q8 0 18.5 2.5t10.5 3.5t-6 3q-6 1 -21 9q-28 16 -37 19q-8 2 -2 5q1 0 10 -4q29 -14 49 -18q12 -2 14 -2q1 0 -9 8t-22 15.5
t-15 8.5q-5 2 -12.5 7.5t-7.5 7.5q0 1 8 -3q8 -5 11 -4q6 1 23 -11q10 -8 22 -14.5t21.5 -6.5t9.5 -2q0 -1 -3.5 -4t-5.5 -3q-7 0 4 -5q5 -2 3 -4q0 -2 -20 -11q-5 -1 -14 -4q-32 -5 -55 3q-10 4 -34 24q-5 4 -11 10.5t-6 15t8.5 14t8.5 7.5q0 4 -5 -1q-3 -2 -4.5 -2
t-1.5 -1t-3.5 -1t-2.5 3l4 10q8 11 3 19q-5 10 1 21q6 10 24 14zM198 643q0 2 -1 2t-5.5 -3t-6.5 -4.5t-1 -5t2 -4.5q4 -2 5 1q0 4 3.5 8.5t3.5 5.5zM188 604q0 8 -3 1q-4 -5 0 -6q2 1 3 1v4zM217 619q-5 3 5 -1q4 -3 11 -14t6.5 -13.5t-2.5 -3t-7 10.5q-8 16 -13 21z
M256 465q13 3 22 0q5 -1 6 -5q1 -3 1 -50.5t-1 -62.5q-1 -18 -2 -26l1 -13h1q14 3 40 6q33 2 53 11q10 3 14 -1q3 -3 1 -8t-0.5 -6.5t1.5 -12t-2 -16.5q-6 -23 -26 -39q-18 -11 -35 -18q-4 -1 -8.5 -3t-14 -3t-17.5 -0.5t-8 2.5t17 4q19 2 19 7h-2.5h-7t-6.5 -1
q-6 -3 -13 -3q-15 -3 -20 -10q-2 -4 -2 -10q-2 -8 -3 -13q-1 -4 -4 -19q-9 -49 -19 -77q-3 -13 -2 -15.5t12 -2.5q8 0 9 -0.5t1 -2.5q0 -4 -3 -6t-5 -8q-7 -14 -27 -28q-11 -8 -14 -11q-2 -4 -7 -13q-14 -22 -25.5 -28t-41.5 -6q-20 0 -27.5 2.5t-10.5 9.5q-1 1 0 5t3 4h2.5
h7h7.5q18 2 27 4q9 3 12 6q13 9 13 13q0 1 -6 0q-7 -1 -18 -1q-11 1 -18.5 5.5t-15.5 12.5q-19 19 -24 20l-2 1q2 2 12 -4t15 -13q14 -14 33 -16q10 -2 13 -2q2 2 -1 4t-6 2t-16 10.5t-13 13.5q0 1 10 -7q16 -12 26 -15l7 -1l-4 4q-6 4 -8 7q-2 0 -4.5 2t-4 4t-4.5 4
q-6 6 -5.5 6.5t19.5 -13.5t21 -15q4 -2 14 -2t14 2q18 8 28 19q6 6 4 6q-2 1 -4 -2q-7 -4 -24.5 -7t-26.5 -1q-7 1 -44 19q-5 2 -20.5 2t-25.5 -2q-13 -4 -13 -2q0 4 16.5 7.5t28.5 3.5q17 2 33 -8q9 -6 18 -9q10 -4 20 -4q11 0 12.5 1.5t0.5 1.5q-2 0 -17 8t-19 10
q-5 2 -9 3q-3 1 -5 1l12 -1q1 0 4 -1q8 -3 12 -4q5 -2 15 -7q15 -9 22 -5q2 1 0 3t-3.5 2t-13.5 5q-17 8 -34 12q-3 0 -15 6t-34 6l-17 1q2 1 22 1q19 1 25 -3q14 -7 33 -12q14 -3 29 -9q13 -5 16.5 -5.5t10.5 3.5q8 4 -2 4q-8 0 -44 20q-30 16 -49 18q-18 2 -40 -2h-3
q2 2 5 2t9 2q15 4 40 0q13 -2 31 -10q12 -5 13.5 -5t2 4t3.5 11q11 44 18 88q2 7 2 14q0 8 2 12q3 4 7 42q5 44 7 63q6 51 -2 57q-3 2 -8 0q-9 -4 -15 -7q-33 -15 -44 -7q-4 3 -4 4q0 6 25 28q39 37 43 42q6 12 16 16zM340 306q-23 0 -29 1q-5 0 -17 -2.5t-16 -4.5
q-5 -3 -9 -6t-6 -3q-5 0 -2 -4q2 -3 -2 -11q-9 -18 -3 -19q2 0 5 2q9 2 9 -2q-1 -3 3 -2q0 1 2 2q7 3 15 9q18 14 24 14q2 0 7 2.5t6 2.5t7 2.5t13.5 3t16.5 7.5q11 9 3 9q-3 -1 -27 -1zM376 283q-4 5 -12 0q-7 -3 -26 -4q-25 -3 -45 -18q-16 -13 -24 -13q-1 0 -1 2
q0 7 -10 0q-4 -3 -5 -5q-3 -4 -3.5 -9t-3.5 -9q-2 -3 -1 -5q1 -7 13 1q9 5 25 9q24 7 43 8h12q2 0 10.5 6.5t11.5 9.5q5 6 4.5 7.5t-9.5 0.5q-24 -2 -46 -18q-10 -8 -11 -7.5t3.5 5.5t11 10.5t11.5 7.5q8 3 8 4t14 2q21 1 28 7q5 4 2 8zM98 108q2 -1 3 0h-2h-1zM88 105v-1
q5 1 7 2l-1 1q-3 0 -6 -2zM70 100q13 5 13 3q0 -1 -4 -2t-15.5 -6.5t-13.5 -7.5q-8 -6 -3 -11q4 -3 12 1l5 3v-3q-2 -9 10 -13q6 -2 4 -4q-4 -1 -9 -1q-5 1 -9 5.5t-8.5 5.5t-8 3.5t-3.5 3.5q0 3 5 8.5t10 7.5q6 3 15 7zM110 64q0 1 3.5 -0.5t6 -4l3.5 -3.5l-8 4q-5 3 -5 4z
" />
    <glyph glyph-name="k" unicode="k" horiz-adv-x="474" 
d="M191 655q5 4 14.5 2t12.5 -7q2 -6 -14 -77q-5 -26 -7 -32q-5 -28 -30 -118q-48 -176 -43 -179q2 -2 4 -2q17 4 72 59q54 51 98 130q19 35 27 40q5 5 12.5 4t8.5 -6q5 -11 -18 -48q-63 -109 -126 -160q-28 -24 -27 -27q0 -6 9.5 -11t14.5 -5t48 -21q104 -51 158 -70
q17 -6 23 -11.5t6 -13.5q0 -23 -21 -22q-33 2 -100 40q-16 8 -57 26t-65 24q-25 8 -54 8q-28 0 -33 -4q-4 -5 -11.5 -30.5t-9.5 -39.5q-1 -17 -6.5 -21.5t-20.5 -4.5q-12 0 -14 1t-2 9q1 9 6 23q7 19 15 49q0 2 17 61q15 50 27 102q17 63 19 70q21 67 31 106q10 38 11 46
q13 58 15 74q4 32 10 36z" />
    <glyph glyph-name="l" unicode="l" horiz-adv-x="364" 
d="M194 657q5 5 12 2.5t9 -10.5q4 -5 4 -16t0.5 -11t3.5 3q5 5 12 8t8 1q1 0 0 -1t-3 -2.5t-5 -3.5q-12 -8 -30 -31q-15 -19 -31 -28q-24 -13 -10 -15q1 -1 3 -1q17 -3 17 -8l7 -4t8 -4q11 0 31 23q5 6 8 6q6 0 23 16q6 5 8 3.5t10.5 1t15.5 7.5q12 13 14 24q1 8 -1.5 9
t-8.5 1t-15 4t-17.5 5t-9.5 1.5t1 1.5q8 5 24 -2q11 -5 28 -1q6 1 9 -1q5 -3 1 -9q-3 -4 -0.5 -9t1.5 -8q-2 -7 -6 -16q-5 -16 -16 -31t-18 -19l-12 -6q-5 -3 -6 -3t-9 -4q-7 -4 -16 -5q-9 -3 -10 -4q-3 -1 -14 0q-10 1 -12 0t-3 -10t-3 -14q-2 -16 -5 -29q-1 -6 -2 -16
q-8 -33 -12 -52q-1 -5 -3 -17q-2 -3 -3 -9.5l-1 -6.5q0 -2 -4.5 -20t-4.5 -20t-1 -6t-2.5 -12t-3.5 -15l-3 -15q-6 -25 -13 -69q-1 -10 4 -12q1 0 0.5 -2.5t-17.5 -2.5q-29 0 -45 9q-12 9 -14 7t1 -17q1 -9 -9 -20q-7 -7 -4 -12q1 -2 2 -5.5t-1 -3.5q-5 -2 -12 7q-3 3 -2 10
q0 10 8 19q4 3 4 13t1 13q3 9 15 9q5 0 13 -6q15 -13 19 -10q2 1 2 4q1 8 3 13q3 30 8 50q0 1 1.5 8t2 10t2.5 9t2 7q1 8 3 11q1 5 1 8q2 6 4 15q5 17 8 32q2 5 2 7.5t1 8.5q2 5 5 17l4 19q2 9 4 19q0 1 3 24q2 2 2.5 6t1 7t0.5 5q3 14 3 15t1.5 9.5t1.5 11.5q3 12 3 17
q0 1 -0.5 2t-5.5 2q-7 1 -15.5 6.5t-8.5 9.5q2 8 17 14q18 8 20 11q2 2 7 32q5 36 10 41zM298 579q-2 3 -11 0q-2 -1 -10 -1t-20 -8q-20 -11 -25 -21q-3 -6 -11 -13t-7 -9t11 -2t14.5 3t6.5 3q5 0 23.5 13t21.5 18q7 16 7 17zM275 612q7 4 10 2q1 -3 6 0q9 3 9 -4
q0 -3 -8.5 -9t-13.5 -10q-3 -3 -6.5 -3t0.5 3q5 6 8 9q2 4 1.5 5t-5 -1t-9.5 -2t-17 -7t-14 -6t4 6q9 6 35 17zM198 208q3 4 7 3q4 -3 1 -12q-1 -5 2.5 -11t1.5 -10q-2 -14 -10 -23q-4 -4 -4 -6q0 -9 -11 -22q-6 -6 -3.5 -6t18.5 4q22 5 38 17q21 16 29 19q14 8 20 3
q4 -4 4.5 -13.5t-3.5 -17.5q-6 -13 -24 -24.5t-40 -18.5q-1 0 -6 -1.5t-6 -1.5q-23 -8 -58 -5q-21 0 -29 3t-16 0t-18 -3q-11 0 -17 3q-21 15 -25 38q-1 10 0 14q4 8 9 4q2 -1 2 -11q0 -19 15 -31q9 -7 18 -6t14 2q11 4 18 15q12 22 20 20q5 -2 -2 -10q-12 -14 -12 -18
q0 -3 6 -3t10 3t4.5 3t7.5 5q7 3 15 16q7 11 7 14q0 5 -19 -5q-11 -7 -13 -5t2 5t8.5 5t7.5 5q3 1 5 1q3 0 8 4.5t8 9.5q13 23 8 30q-2 3 -4.5 1t-17.5 -1q-19 2 -19 4.5t14 2.5t29 11zM179 180q14 4 14 0q0 -1 -3 -5l-6 -6q-7 -9 -23 -15q-7 -4 -9 -4q-1 0 -16 -6
q-6 -4 -8 -4l7 6q1 0 13 6.5t14 8.5q4 3 5 3q3 0 5 2.5t0 3.5q-1 3 -3 2q-4 0 -10 -2q-7 -1 -13 -2l-24 -3v1q3 2 6.5 2t11 2.5t15 3.5t12.5 3t12 3z" />
    <glyph glyph-name="m" unicode="m" horiz-adv-x="557" 
d="M384 509q11 5 17 5q7 1 21 -6t20 -12q11 -13 2 -111q-11 -117 -8 -154q3 -22 5.5 -28t16.5 -19q26 -23 35 -31q24 -19 9 -32q-13 -11 -40 1.5t-51 41.5q-11 14 -13 22t-1 45q0 121 12 190q2 21 -1 35.5t-12 16.5q-9 1 -35.5 -26.5t-39.5 -52.5q-21 -37 -38 -142
q-23 -133 -29 -141q-5 -6 -14 -5.5t-13 6.5q-3 7 -2.5 71.5t5.5 100.5q5 46 8 72.5t3 43t-2 21t-7 3.5q-13 -3 -39.5 -49t-53.5 -112q-63 -161 -72 -174q-10 -14 -18.5 -10t-8.5 22q0 15 16 63q43 124 43 217q0 38 -10 57q-8 15 -8 19t4 9q8 8 13 6.5t16 -12.5
q21 -22 21 -59q0 -17 4 -20q3 -2 24 22q61 73 92 73q11 0 16 -5.5t8 -22.5q4 -17 7 -20.5t8 1t20 23.5q32 41 70 57z" />
    <glyph glyph-name="n" unicode="n" horiz-adv-x="535" 
d="M71 484q7 1 26 2q44 0 64 -36q5 -12 5 -47q0 -34 -3 -35q-1 0 -1.5 0.5t-0.5 3v7.5v11q0 24 -6 41q-17 43 -29 34q-3 -3 -7 0q-14 7 2 -10q25 -31 26 -54l3 -14l-8 16q-6 19 -16 30q-8 12 -19.5 22t-16.5 10q-3 0 -12 -13q-8 -12 -4 -14t8.5 -9t4.5 -12t-15.5 -21
t-15.5 -19q2 -21 19 -37q32 -31 62 -18l10 4l-11 7q-14 7 -34.5 21t-20.5 15q0 5 22 -8q34 -18 49 -18q1 0 -7.5 8.5t-21.5 20t-18 13.5q-13 9 -15 13q-1 3 0.5 3.5t4.5 -3.5q4 -2 8 -3.5t5.5 -1t1.5 2.5q0 5 -5 18t-8 19q-5 7 -4.5 7t5.5 -5q9 -8 15 -22t2 -19q-2 -4 0 -4
q3 0 17 -12q34 -30 36 -28q3 3 5.5 25t2.5 33q0 14 -5 25q-4 13 0 20q6 17 16 12q12 -4 17 -53q2 -23 7 -26t15 12q13 16 34.5 36.5t36.5 29.5q35 21 68 18q14 0 18.5 -1.5t10.5 -9.5q8 -7 9 -14t0 -39q-3 -58 -15 -132q-2 -5 -2 -9.5v-4.5q2 0 9 6q9 8 14 8q6 0 -5 -9
q-21 -16 -37 -40q-5 -8 -22 -18q-18 -10 -18.5 -12.5t14.5 -6.5q6 -1 15 -9q8 -6 11 -6q13 0 27 18q8 9 19 15t17 11t8 5q10 -4 26 10t16 26q0 5 -1.5 6t-7.5 1q-8 0 -20.5 5.5t-20.5 5.5l-5 2l4 1q5 4 19 -1q17 -5 29 -3q10 1 13 -1.5t0 -8.5q-3 -4 0 -7q5 -9 -13 -43
t-25 -34q-4 0 -10 -4q-25 -18 -53 -19h-16l-2 -23q-1 -24 7 -31q6 -9 17 -10q18 -3 17 -17q-3 -14 -46 -12q-24 1 -27.5 7.5t-3.5 37.5q0 35 1 52q3 16 -3 19q-20 6 -23 12q-6 7 17 18q13 6 15 9t4 16q3 11 6 39q2 18 9 66q13 79 3 87q-8 7 -31 -3t-45 -30q-45 -43 -74 -114
q-13 -29 -26 -73t-12 -50q2 -4 11.5 -4t9.5 -2q-1 -3 -8.5 -3t-19 2.5t-16.5 5.5q-7 5 -8.5 4t-1.5 -8q1 -9 -4 -16q-2 -4 -2.5 -11.5t1.5 -11.5q3 -1 3 -10.5t7 -17.5q17 -15 38 9q13 13 24 19q10 4 18 14.5t7 15.5q-2 5 -9.5 3t-14.5 1q-5 2 -5 3t4 1q8 0 18 5q11 6 11 5
q1 -2 2 -13q3 -12 -1 -19q-5 -7 -9 -15q-2 -7 -13.5 -19t-13.5 -12q-7 0 -3 3q1 3 5 3q4 1 11.5 11t5.5 12q0 1 -12 -3q-5 -2 -11 -8t-8.5 -11.5t0.5 -7t-5 -3.5q-19 -9 -32 -6q-12 1 -13 -2q-3 -2 -9 -1.5t-10 5.5q-5 8 -3 24t18 73l11 49.5t12 56t4 24.5l-14 -4
q-49 -15 -86 25q-15 17 -19 24t-4 17q0 11 9 19q10 10 8 10q-1 0 -8 -4q-11 -8 -9 2q2 3 4 8q8 18 3 29t2.5 25.5t19.5 17.5zM71 456q7 11 4 13q-1 1 -6.5 -6t-5.5 -11q0 -11 7 0q1 3 1 4zM65 412q4 4 0 6q-2 3 -4 -1q-1 -4 -1 -6q1 -3 5 1zM466.5 229q-1.5 1 -3.5 1
q-1 0 -14 -2q-12 -1 -30.5 -12.5t-18.5 -17.5q0 -3 -10 -13l-10 -11h11q18 0 42.5 15t29.5 29q5 10 3.5 11zM432 258q19 10 21 5q3 -2 6 0q8 5 12 -1q0 -1 -1 -3q-4 -6 -28 -21l-3 1q2 3 9 10q5 5 0 5q-1 0 -6 -1q-10 -1 -22.5 -7.5t-15.5 -6.5q-2 0 5 5q9 7 23 14zM206 149
q23 6 23.5 5.5t-1.5 -7.5q-5 -7 -27 -16l-5 -1q1 2 10 7t10 9h-3q-4 -1 -17 -2q-11 -2 -1 1q4 1 11 4z" />
    <glyph glyph-name="o" unicode="o" horiz-adv-x="408" 
d="M218.5 514q17.5 3 41.5 1t51.5 -19t41.5 -42.5t14.5 -67.5t-14.5 -108q-14 -58 -37.5 -107.5t-68.5 -82.5q-24 -14 -49.5 -13t-42 5t-27.5 9q-51 27 -70 77q-18 60 -10 118t29 103q25 52 50 76.5t49.5 36t42 14.5zM217.5 470q-25.5 -5 -57.5 -38q-59 -60 -71 -169
q-3 -61 12 -93q17 -28 38 -40t46 -12q34 -1 58.5 24t39 61t26.5 80t15 91q0 39 -7 55.5t-20.5 25.5t-33.5 14.5t-45.5 0.5z" />
    <glyph glyph-name="p" unicode="p" horiz-adv-x="430" 
d="M94 11q29 117 35 216q0 2 6 109q4 60 3 67q-3 18 -25 1q-5 -3 -12 -10q-31 -27 -44 -27q-11 0 -14 6t3 16q5 8 30 36q30 34 48 65q4 5 6.5 6.5t12.5 1.5q13 0 17 -4t11 -20q9 -28 10 -70t-4 -138q-2 -35 -1 -46.5t7 -12.5q12 -2 43 16q47 29 86.5 94.5t32.5 102.5
q-7 27 -31 40q-15 7 -46.5 8t-50.5 -6q-24 -8 -31 5q-5 9 -3 14q9 15 46 19q20 3 31 3q47 1 77 -8t45 -50q5 -12 6.5 -35.5t-2.5 -37.5q-7 -38 -50 -95t-80 -78q-22 -14 -71 -26q-9 -3 -11.5 -8t-6.5 -25q-3 -17 -16 -83q-7 -39 -16 -66q-1 -4 -7 -26q-10 -43 -27 -42
q-31 1 -7 88z" />
    <glyph glyph-name="q" unicode="q" horiz-adv-x="489" 
d="M246 528.5q17 -1.5 29.5 -8.5t26.5 -18q14 -9 26 -14q12 2 20 -3q9 -5 -11 -60q-29 -78 -37 -157q-6 -63 -4 -64q2 0 8 5t15 5l6 -1q-1 -3 -14 -10q-16 -12 -60 -60q-8 -8 -24 -17q-14 -7 -26 -15q-8 -5 -8.5 -5.5t2.5 -3.5q4 -5 13 -5q14 0 29 -10q9 -7 15 -9
q19 -7 49 27q9 9 27.5 17.5t25.5 16.5q9 6 12 4q3 -4 16.5 1t22.5 12q21 19 22 36q2 8 0 10t-14 3q-12 0 -31 7q-18 6 -28 6l-7 1q0 2 2 3q12 7 37 -3q11 -5 18.5 -5t27.5 3q10 1 13.5 -2t0.5 -11q-4 -7 -0.5 -14t-2.5 -19.5t-8 -19.5q-5 -16 -23.5 -38.5t-28.5 -25.5
q-9 -4 -16 -8q-10 -8 -34.5 -16t-41.5 -8q-7 0 -8.5 -1.5t-2.5 -13.5q-1 -23 12 -55q18 -36 13 -54q-1 -7 -11 -7q-9 0 -14.5 4t-13.5 18q-25 39 -25 98q0 14 -2 17.5t-10 11.5q-16 14 -27 14q-7 0 -22 8q-14 6 -14 13q0 10 26 19q12 5 31.5 15.5t22.5 12.5q4 5 12 107
q4 53 -0.5 56.5t-12.5 -1t-19 -14.5q-24 -23 -54 -38q-16 -8 -29.5 -7t-25 12t-15.5 22.5t-6 37.5q2 40 19 78q25 45 50 72t44.5 38.5t36.5 10zM271 482q-41 8 -67 -17q-21 -20 -42 -52.5t-28 -58.5q-4 -15 -2 -28q6 -23 16 -26q3 -1 11 3q13 4 48.5 31t53.5 45
q15 15 29 37.5t14 32.5q-3 23 -33 33zM410 136q-3 3 -23 0q-11 -2 -15 -1q-3 1 -24 -10t-29 -17t-11 -13t-16 -18t-11.5 -13.5t17.5 -2.5q31 0 79 32q21 15 28 28t5 15zM357 177q20 9 24.5 10t8.5 -3q2 -2 8 2q5 2 10 1q16 -5 -8 -21q-16 -9 -23 -14q-8 -5 -9 -4q-1 3 9 14
t9 11l-5 -1q-9 -2 -17 -2q-9 -1 -29 -10q-19 -8 -20 -7q-4 3 42 24zM62 55q9 8 29 -4q11 -8 35 -12q20 -4 19 -6.5t-26 0.5q-22 1 -33 8t-14 6t-1 -12t-5 -19q-8 -8 -5 -15q1 -6 -2 -7t-10 5q-9 10 4 25q6 5 6 16.5t3 14.5zM194 43q13 5 15.5 4.5t1.5 -8.5q-2 -10 1 -10
q2 -2 1.5 -9.5t-2.5 -14.5q-3 -2 -9 -15q-7 -11 -19.5 -24.5t-18.5 -16.5q-8 -3 -10 -2q-3 2 5 7q7 3 16.5 14t9.5 14q0 9 -26 -9q-11 -7 -16 -13q-7 -13 -2 -13q10 0 -5 -5q-5 -3 -11 -5q-45 -16 -66 17q-5 11 -5 20t5 10q3 0 4 -1t1 -6q0 -8 5 -17q12 -20 29 -20t33 18
q10 14 19 17q18 11 29 16q8 4 15 14.5t7 16.5q0 7 -3 7h-16q-19 0 -21 2q0 3 12 4q11 2 21 8zM177 19q27 10 15 -6q-2 -1 -3 -3q-16 -15 -40 -19q-8 -3 11 8q18 10 18 13h-4.5t-9.5 -1t-15 -3q-9 -3 -10 0l6 4q5 1 14 2q7 2 18 5z" />
    <glyph glyph-name="r" unicode="r" horiz-adv-x="351" 
d="M297 475q7 5 10.5 0.5t3.5 -19.5q0 -13 -2.5 -19t-13.5 -14q-29 -23 -37 -33q-28 -31 -55 -82.5t-37 -88.5q-5 -25 -7 -32q-2 -13 -3 -18l-4 -20q-13 -57 -23 -61q-4 -3 -10 -1.5t-9.5 11t0.5 88.5q3 105 -5 135q-7 26 -21 52.5t-29 48.5q-15 18 -8 23q17 13 44 -21
q17 -19 42 -71q14 -27 17 -30.5t13 14.5q4 4 13 17q31 48 51 68q27 28 46 38q5 3 12 9q3 1 6.5 3.5t5.5 2.5z" />
    <glyph glyph-name="s" unicode="s" horiz-adv-x="441" 
d="M83 557q28 5 52 -9q11 -8 16 -18.5t8 -31.5q2 -24 -1 -31q-3 -5 -3 3q-1 3 -1 13q-3 31 -17 51q-8 12 -15 6q-2 -2 -7 0q-4 2 2 -5q2 -1 3 -2q7 -10 15 -22q11 -22 6 -30q-2 2 -2 7q0 9 -14 27t-25 22q-10 5 -19 -8q-3 -5 -3 -7t5 -7q7 -8 7 -11q0 -5 -13 -16
q-9 -10 -11 -14.5t2 -15.5q1 -7 11.5 -16t21.5 -15q14 -6 34 1q5 1 5 2.5t-5 3.5q-8 4 -20.5 11.5t-22 14l-9.5 6.5q2 1 24 -9q23 -11 32 -13h6q-1 2 -14 14q-15 14 -23 18q-13 8 -15 13q3 0 8 -2q5 -4 9.5 -4t15.5 -9q24 -22 38 -23q7 -2 8 -2.5t-3 -4.5t-4 -4.5t4 -3
t3 -3.5t-8 -5q-20 -12 -44 -12q-25 0 -48 23q-32 31 -13 46q7 6 5 8q0 1 -5 -2q-6 -3 -7 -2q-1 0 4 13q5 10 2 17q-6 14 1 24t24 14zM77 535q5 8 4 8q-4 0 -8.5 -4t-4.5 -6q0 -10 8 0q0 1 1 2zM70.5 499q2.5 3 1.5 5q-3 1 -4 -5q0 -3 2.5 0zM102 506q-4 11 -2 11
q3 -2 10 -15.5t6 -15t-3.5 0.5t-2.5 4t-8 15zM275 494q40 5 63 2q17 -4 -1 -12q-8 -4 -21 -6q-16 -3 -40.5 -16t-39.5 -27q-18 -15 -30.5 -40t-12.5 -42q0 -10 9.5 -17.5t40.5 -21.5q61 -30 78 -43q7 -6 7 -7.5t-4 -3.5q-19 -12 -37 -36q-6 -9 -21 -17q-16 -10 -17 -11.5
t13 -4.5q7 -2 14 -8q6 -5 10 -5q11 0 24 15q6 8 16 13q11 5 16.5 9.5t6.5 3.5q10 -3 24 9t14 22q0 5 -1.5 6t-4.5 1q-8 0 -19.5 4.5t-17.5 4.5q-5 0 -5 0.5t3 2.5q5 2 17 -2q14 -5 25 -2q11 1 14 -1.5t-1 -6.5q-1 -4 0 -7q4 -8 -12 -37t-23.5 -29t-13.5 -19q-10 -37 -48 -63
q-18 -14 -31 -18t-40 -4q-42 0 -66 12q-9 5 -24 23.5t-18 28.5q-2 5 1 8q8 7 43 -18q24 -15 35 -19.5t28 -5.5q18 0 28 4t24 20q26 28 24 31q-3 1 -15 2q-13 5 -22 13q-7 5 -12 5q-4 0 -13.5 5t-9.5 7q0 6 25 18q23 12 29 19q5 6 5 7.5t-4 3.5q-7 6 -71 38q-42 20 -52 28.5
t-10 23.5q0 48 17 81q16 29 45.5 52.5t58.5 26.5zM375.5 215q-1.5 1 -2.5 1t-13 -1q-11 -3 -27.5 -12t-16.5 -15q0 -1 -8 -10l-11 -9h11q16 0 38 12.5t27 24.5q4 8 2.5 9zM344 240q18 8 20 4q2 -2 7 0q6 4 8 -1q2 -1 0 -1q-3 -5 -26 -18h-1q0 2 7 9q4 5 0 5q-1 -1 -5 -1
q-10 -2 -21.5 -7t-12.5 -5l8 7q7 3 16 8z" />
    <glyph glyph-name="t" unicode="t" horiz-adv-x="379" 
d="M194 647q4 4 11 4q14 0 16.5 -10.5t-4 -55t-7.5 -54.5q-7 -45 -9 -65v-10h25q28 1 65 9q24 5 36 3q5 0 8.5 -4t1.5 -8q-3 -9 -35 -25q-30 -13 -58 -17q-35 -4 -41 -9q-4 -4 -5 -12q-9 -38 -21 -139q0 -5 -1.5 -18.5t-1.5 -16.5q-5 -52 10 -74q3 -7 11.5 -13.5t12.5 -6.5
q6 0 18.5 9t20.5 19t32 52q9 17 14 22q8 9 16 6.5t8 -14.5q0 -15 -10.5 -40t-24.5 -43q-15 -22 -30 -35.5t-29.5 -16.5t-25.5 -1t-21 8q-23 15 -34 39q-9 18 -9.5 37t5.5 63q2 13 4 30q1 12 4 31q9 69 10 87.5t-1 19.5q-17 -1 -56.5 1t-44.5 3q-14 3 -13 16q2 8 15 11t57 6
q33 3 42 10q7 6 11 31q3 17 5.5 36l2.5 19q2 13 4 27.5t3 25.5q1 8 4 24q5 33 9 39z" />
    <glyph glyph-name="u" unicode="u" horiz-adv-x="420" 
d="M89 487q25 23 34 23t10.5 -6.5t-0.5 -29.5q-3 -26 -4 -30q0 -4 -5 -48q-5 -49 -4.5 -123t9 -119.5t32.5 -41.5q16 0 46.5 32.5t58.5 87.5q24 54 34 96q8 32 19 86q9 43 18 67q6 17 10.5 20.5t17.5 3.5q10 -1 12 -2.5t2 -6.5q1 -12 -9 -66q-28 -142 -28 -221q-1 -47 4 -73
q4 -22 1.5 -31.5t-10 -15.5t-19 -4t-18.5 18q-6 19 -8 49q-2 36 -8.5 28.5t-17.5 -20.5q-39 -50 -58 -68q-20 -18 -47 -18t-40 12t-23 37q-12 30 -11 88q-4 86 -1 145.5t3 67.5v21q-4 2 -24 -17t-22.5 0.5t46.5 58.5z" />
    <glyph glyph-name="v" unicode="v" horiz-adv-x="463" 
d="M365 512q2 3 12 3q17 0 19.5 -13t-8.5 -50q-1 -6 -6 -26q-10 -45 -36 -123q-6 -18 -15 -49q-15 -47 -35.5 -89t-36.5 -54q-15 -14 -35 -14q-10 0 -21.5 7t-17.5 19t-10 7q-1 -2 -8.5 -4.5t-7.5 -0.5q-2 0 0 2t6 3q6 4 16 16t8 14q0 1 -15 -5q-14 -7 -23 -17
q-11 -15 -2 -15q6 0 0 -3q-3 -1 -7 -3q-9 -1 -14 -5q-21 -9 -36 0q-22 14 -22 36q0 12 4 12q3 0 3.5 -1t0.5 -7q0 -16 14 -28q7 -5 19 -5q17 2 30 19q8 10 12 11t9 4q4 4 15.5 10t19.5 18t7 16.5t-14 4.5q-15 0 -45 2q-36 2 -46 7q-10 8 -13 6.5t-2 -8.5q2 -9 -1.5 -16.5
t-7.5 -7.5q-2 0 -1 -10q4 -14 -7 -4q-9 8 1 24q5 7 5 19q0 10 5 13q13 6 20 -1q10 -12 40 -16q9 0 8 3q0 2 -4 20q-2 26 -5 35q0 2 -2.5 19t-3.5 26q-5 33 -8 44q-2 10 -3 31q-5 33 -16 33q-3 0 -18 -14q-13 -14 -19.5 -17.5t-11.5 1.5q-15 10 5 39q14 21 23 36q38 66 58 40
q13 -15 21 -95l7 -49q0 -1 2.5 -19t3.5 -29q10 -81 15 -95q1 -9 11 -3q7 5 9 4t2 -10q-3 -8 0 -9q7 -3 -2 -22q-2 -6 2 -14q11 -17 18 -17q9 0 29.5 38t38.5 88q36 98 46.5 135.5t19.5 92.5q0 8 1 10zM288 505q5 3 19 -2q10 -3 23 -2q9 1 12.5 -1t0.5 -7q-3 -2 0 -6
q3 -7 -12 -34.5t-22 -27.5q-3 0 -9 -4q-20 -13 -42 -14q-24 -3 -41 11q-8 7 -13 7q-4 0 -12.5 4.5t-8.5 5.5q0 7 25 18q19 9 38.5 28t25 19t-0.5 -4q-2 0 -4 -2q-19 -14 -33 -34q-4 -6 -19 -14t-16 -11q-1 -1 0.5 -1t4.5 -1q14 -3 21 -9t10 -6q12 0 23 15q6 7 17 12
q10 4 15 8.5t6 4.5q9 -2 22.5 9t13.5 20q0 5 -0.5 5.5t-5.5 0.5q-6 0 -17.5 4.5t-17.5 4.5q-3 1 -3 3zM321 454.5q-1 1.5 -2 1.5q-2 0 -12 -3q-11 -1 -27 -10t-16 -14q0 -3 -8 -11l-9 -8h9q15 0 37 12t27 23q2 8 1 9.5zM291 478q18 8 20 5q1 -3 5 0q6 1 9 -2q1 -1 0 -2
q-3 -5 -25 -18q-3 -1 -2 0q0 3 7 10q5 4 1 4q-1 0 -5 -1q-9 -1 -21 -6.5t-13 -5.5l10 8q8 4 14 8zM179 192q19 6 20 3q0 -4 -9 -11q-11 -11 -33 -19q-10 -4 -11 -4l11 8q7 4 12.5 7t8.5 6l3 3q-1 1 -12 0q-10 -2 -23 -3q-6 0 -8 -2q-2 0 3 2q2 1 9 2q14 3 29 8zM409 161
q10 4 12 2t2 -13q0 -14 -2 -24q-2 -6 -12 -15t-21 -14q-16 -7 -25 -3q1 3 9 3q6 0 8 1q0 3 -2 3q-3 0 -6 -2q-11 -1 -24 -16q-5 -7 -10 0q-4 3 -5 9t2 7q3 2 3 12q0 8 4 17.5t8 9.5q3 0 -1 -7q-4 -6 -3 -9q2 -3 10 -2t12 5q14 12 29 16q9 2 12 7q3 3 -3 3h-14q-20 0 -29 -3
q-8 -2 -8 -1q0 6 32 10q15 3 22 4zM416 136q-3 2 -12 0q-3 -1 -15 -3q-10 -3 -21 -11q-10 -8 -13.5 -6.5t-6.5 -1.5t-3 -7q0 -5 -2 -9q-5 -3 0 -3q3 2 12 4q14 7 27 8q15 1 24 12q3 3 2.5 3.5t-6.5 0.5q-9 0 -20 -8l-9 -5q0 1 2 2q4 7 13 11.5t15 4.5q5 0 9.5 3t3.5 5z" />
    <glyph glyph-name="w" unicode="w" horiz-adv-x="566" 
d="M476 506q2 3 19 3q21 0 26 -10t5 -53q0 -93 -24 -191q-6 -25 -31.5 -83.5t-36.5 -72.5q-21 -26 -53 -19q-24 5 -36 19t-23 51q-8 21 -15 63q-9 41 -12 45q-5 8 -15 -15q-5 -13 -14 -38q-13 -40 -24.5 -64.5t-22 -36.5t-21 -12t-22.5 11q-22 19 -36.5 52.5t-27.5 102.5
q-10 65 -10 126q0 22 -18 -9t-28.5 -32.5t-13.5 4.5q-2 7 7.5 31.5t24 49.5t28 41t23.5 18q10 3 13.5 -8.5t5.5 -51.5q3 -44 8 -106.5t17 -122.5q17 -47 28 -43q10 3 49 118q31 96 41 151q2 22 17 20.5t19 -21.5q3 -16 9 -81q8 -64 14 -102q5 -35 20 -77t23 -42
q9 0 31.5 47.5t36.5 99.5q20 74 27 139t-5 85q-6 12 -3 14z" />
    <glyph glyph-name="x" unicode="x" horiz-adv-x="501" 
d="M151 551q27 5 45 -6q16 -6 21 -17.5t5 -34.5q1 -23 -2 -24t-2 11q1 11 -4 27t-11 25q-5 7 -15 7l-9 -2l7 -7q22 -23 22 -40v-6l-4 9q-5 15 -20 30.5t-22 11.5q-3 -1 -8 -8q-4 -6 1 -11q11 -12 -5 -27q-8 -8 -9 -11t0 -11q3 -16 21 -26.5t37 -5.5q8 3 4 6q-8 0 -42 25
q-5 4 -4 4q4 1 15 -7q24 -12 35 -12q7 0 -21 23q-6 5 -10 6q-10 5 -11 10q-1 1 -0.5 2t4.5 -3q6 -4 10 -4t12 -5q28 -26 36 -23q5 1 6 -1.5t-3 -6.5q-5 -3 0 -5q8 -3 -11 -13q-14 -6 -30 -7h-15l25 -26q26 -23 42 -42q15 -16 18 -16t11 11q30 41 68 79q31 31 36 33.5
t12.5 -1.5t7.5 -8q0 -5 -20 -28q-52 -58 -81 -103q-10 -15 -8 -23t17 -36.5t17.5 -28.5t25.5 19q24 21 30 22q7 2 25 0.5t23 -4.5q8 -3 4 -4t-11 1q-29 9 -53 -11q-13 -9 -13 -18t-3 -9t-2 6t-2 6t-7.5 -6t-23.5 -19q-20 -14 -24 -17q-5 -7 -8 -7q-4 0 -4 -2.5t11 -2.5
q23 0 46 26q11 13 13 10q0 -2 -3 -9q-5 -10 -28 -27q-19 -11 -33 -4q-9 4 -10 3.5t-1 -4.5q0 -6 9.5 -12t21.5 -7q15 -3 33 2q25 6 26 6q7 1 13 7q42 45 52 50q6 1 12 1q5 0 5 1.5t-3 8.5q-9 12 -4 13q4 1 14 -9q9 -9 10 -13t-5.5 -9.5t-22.5 -5.5q-11 -1 -15 -3t-11 -10
q-10 -11 -17 -21q-9 -18 -28 -23q-6 -2 4 -22q17 -36 7 -50q-5 -5 -13.5 -6t-14.5 4q-4 4 -17 33q-8 23 -11.5 26t-10.5 5q-19 2 -26.5 6.5t-15.5 13.5q-11 15 -12 16q-4 2 -3.5 7t3.5 5q3 3 11.5 -1.5t8.5 -1t7 8.5q5 4 5 6t-6 13q-13 21 -19.5 25t-13.5 -4
q-15 -19 -47 -69t-46 -74q-10 -18 -14.5 -22.5t-14.5 -4.5q-13 0 -21.5 9t-17.5 9q-11 0 -24 17.5t-7 25.5q7 12 8 -6q4 -18 17 -26q7 -3 17 -0.5t17 10.5q17 19 21 17q3 -1 -5.5 -12t-4.5 -12q8 -1 18.5 7t18.5 20q5 6 0 6t-12 -4q-10 -5 -11 -1q1 1 14 9q10 4 19 15.5
t6 17.5q-1 5 -16 4q-14 -1 -18 1q1 3 5 4q8 0 13.5 6t21.5 31q33 50 39.5 66.5t-1.5 29.5q-9 15 -29 37t-29 27q-35 21 -69 6q-17 -9 -24 -1q-9 9 2 23q19 21 55 21q21 0 29 -1q6 -1 5.5 0t-8.5 9l-1 2q-14 15 -18 19q-4 6 -3 15t6 13q6 5 5 7q-3 1 -7 -2q-5 -5 -5 -3
q-1 4 3 10q4 8 2 22.5t5 21.5q7 6 13 7zM149 530q5 10 2 10q-1 0 -5 -4q-5 -5 -2 -10q1 -4 5 4zM146 503q-4 6 -4 -1q0 -3 2.5 -2t1.5 3zM172 507q-3 9 -2 9q4 -3 9 -12.5t5 -12.5t-3 -3q-2 1 -2 3.5t-7 15.5zM58 203q2 3 10.5 1.5t12.5 -5.5q16 -11 41 -11q8 0 8 -3.5
t-22 -1.5q-20 1 -30 7l-11 7l-2 -13q-1 -14 -5.5 -19t-2.5 -12q2 -10 -8 -2q-9 9 1 22q5 8 5 18.5t3 11.5zM156 171q15 5 15 2t-5.5 -9t-10.5 -9l-35 -13l1 1q14 7 19 10q15 10 14 12q-2 2 -16 -2q-13 -3 -20 -3l13 5q15 3 25 6z" />
    <glyph glyph-name="y" unicode="y" horiz-adv-x="394" 
d="M316 510q4 4 18 4q18 0 19 -8.5t-13 -51.5q-6 -21 -6 -25q-1 -3 -8 -27q-3 -12 -9 -43t-12 -84q-23 -222 -85 -309q-11 -16 -11 -19t-8 -8.5t-18 -7.5q-28 -10 -60 3q-12 6 -43 27.5t-35 28.5q-5 5 2 9q17 13 69 -17q35 -22 45 -19q5 2 16.5 15t20.5 29q14 26 21 59
q23 93 33 161q4 30 7 57.5t3.5 43t-0.5 16.5q-6 0 -33 -30q-12 -15 -30.5 -30t-27.5 -19q-7 -3 -9.5 -3t-11.5 3q-15 5 -20 23.5t-8 80.5q-2 57 -7 57q-4 0 -23 -12q-27 -16 -38 -12q-10 6 -1 21q5 8 23 27q17 19 29 35q15 22 22 22q8 0 20 -14.5t16 -29.5q2 -6 2 -78
q0 -75 6 -75q3 0 8 2q11 7 45 48.5t54 71.5q13 18 19 38q10 33 19 40z" />
    <glyph glyph-name="z" unicode="z" horiz-adv-x="380" 
d="M225 515q5 1 42 1q34 -1 40 -5q14 -10 9 -26q-10 -27 -55 -97q-118 -178 -149 -240q-5 -11 -8 -17t-3 -10t1.5 -5.5t6.5 -1.5q56 2 94 9q16 3 65 6.5t56 3.5q16 -3 15 -20q0 -10 -4 -15t-25.5 -9t-52 -5t-98.5 -2q-108 -2 -113.5 2t-5.5 9q0 9 25 50q47 77 82 139
q61 106 99 156q18 28 18 33q0 13 -24 13q-15 -2 -78 -13q-5 -1 -39 -9q-45 -11 -51 -1q-14 19 31 33q30 9 91 17z" />
    <glyph glyph-name="braceleft" unicode="{" horiz-adv-x="281" 
d="M204 738q17 8 24 0q13 -12 -14 -31q-20 -13 -41 -38q-33 -39 -39.5 -70t8 -79.5t10.5 -74t-36 -63.5q-21 -26 -21 -29t15 -33q17 -36 21.5 -67.5t2.5 -123.5q-1 -77 0.5 -91.5t8.5 -21.5q8 -10 21 -14q27 -8 12 -17q-8 -5 -25 -6q-21 -1 -31 3t-16 18q-8 18 -10 41.5
t1 80.5q6 132 -10 166q-7 15 -25 28q-20 16 -18.5 25.5t28.5 39.5q46 51 46 85q0 17 -10 53q-12 36 -11.5 60.5t13.5 50.5q12 28 44.5 64t51.5 44z" />
    <glyph glyph-name="braceright" unicode="}" horiz-adv-x="222" 
d="M61 762q7 3 22.5 1.5t24.5 -5.5q22 -12 30 -38q7 -24 -5 -115q-12 -99 -5.5 -136.5t37.5 -51.5q15 -7 16 -13t-11 -33q-10 -24 -11.5 -46t4.5 -80q11 -99 0 -147q-10 -47 -41.5 -87.5t-58.5 -37.5q-13 1 -14 3q-1 4 24 34q25 29 33 43q21 35 24 95q3 34 -10 133
q-6 47 -2 77q3 22 2.5 28t-9.5 20q-14 24 -18.5 39t-4.5 43q0 31 5 66q11 69 17 122q2 24 -7.5 38t-36.5 28q-26 13 -5 20z" />
    <glyph glyph-name="asciitilde" unicode="~" horiz-adv-x="586" 
d="M129 411q37 12 78 -6q20 -10 62 -41q41 -31 65 -43q17 -10 31 -13.5t35.5 -1t35 9t53.5 40.5q15 14 24 21t16 11.5t8.5 4t4.5 -2.5q4 -8 2.5 -20.5t-8.5 -22.5q-10 -12 -32 -31t-38 -29q-14 -8 -30 -12.5t-38 -6t-40.5 1t-39.5 12.5q-15 8 -63 44q-77 57 -101 52
q-42 -6 -78 -73q-6 -11 -9.5 -16t-7 -8t-6 -2.5t-5.5 3.5q-8 12 1.5 39t32.5 54q13 17 22 23.5t25 12.5z" />
    <glyph glyph-name="uni540E" unicode="&#x540e;" 
d="M130 798q40 5 72 -11q41 -23 46 -68q2 -15 2 -34.5t-1.5 -36t-3.5 -16.5q-3 0 -4 33q-1 34 -11 61q-10 25 -18.5 34t-23.5 9h-15l13 -16q37 -46 37 -78q0 -11 -1 -11t-7 18q-6 20 -22 41.5t-32 33.5q-14 9 -20.5 8t-17.5 -16q-7 -9 -7.5 -12t2.5 -7q7 -5 13 -14.5
t6 -14.5t-21 -26q-22 -23 -22 -29q0 -12 6.5 -26.5t14.5 -22.5q48 -44 92 -29q13 4 12 9q0 2 -5 2q-9 0 -70 44q-16 12 -16 14q4 1 34 -15q44 -24 66 -25q3 -1 2 1q-2 4 -29.5 29.5t-30.5 25.5t-16 11q-17 13 -12 15q1 1 8 -3q8 -5 21 -8q11 -3 25 -17q39 -41 64 -41
q24 0 5 -13q-6 -5 -6.5 -6.5t4.5 -3.5q16 -10 -14 -24q-2 -1 -3 -2q-24 -10 -50 -12.5t-45 4.5q-12 5 -33 24.5t-35 39.5q-9 14 -8.5 30.5t11.5 25.5q16 13 11 13q-2 1 -10 -5q-11 -8 -14 -6q-2 3 6 23q5 13 5.5 19.5t-2.5 18.5q-5 19 2 32q11 24 46 30zM115 756q7 16 5 17
q-1 2 -5.5 -1.5t-8.5 -9t-4 -9.5q0 -20 9 -4q2 3 4 7zM107 696q4 4 0 9q-4 3 -7 -3q-2 -7 0 -9t7 3zM649 741q6 2 7 2q2 0 17 -8.5t15 -10.5q0 -3 -9 -16q-7 -11 -20.5 -21t-24.5 -13q-10 -2 -61 -30q-54 -31 -125 -65q-72 -37 -75 -43q-2 -10 -5.5 -53.5t-1.5 -50.5
q1 -7 5 -8t21 0q18 2 112.5 22t97.5 23q1 1 -3 5t-10.5 7.5t-10.5 3.5q-6 0 -20.5 8t-14.5 12q0 9 41 30q30 16 62 50q32 33 42 33q6 0 5.5 -1.5t-11.5 -9.5q-12 -9 -28.5 -27t-25.5 -32q-7 -11 -32 -25q-27 -16 -27 -19q0 -4 22 -8q9 -2 21 -12q11 -10 17 -10q7 0 18.5 7.5
t18.5 17.5q11 13 27 22q16 8 25 16q8 7 11 7q15 -4 37.5 15.5t22.5 35.5q0 8 -2 10t-9 2q-11 0 -29.5 7.5t-28.5 7.5q-8 1 -8 2l5 3q8 4 28 -2q22 -7 41 -5q14 2 19 -1.5t0 -11.5q-3 -6 0 -12t-4.5 -28.5t-19.5 -43.5l-11 -18l21 2q20 3 30 -5q7 -6 7 -8t-5 -10
q-6 -11 -17 -15q-12 -4 -112 -25q-94 -19 -129 -27q-151 -35 -182 -19q-9 4 -12 4t-8 -5q-14 -13 -42 -91q-21 -58 -35 -85l-15 -28l34 -1q23 -1 28 -2.5t4 -6.5q-2 -8 -1 -33t-4 -38t-20 -28q-38 -37 -92 -37q-30 1 -34 5q-5 5 -12 2.5t-24 -16.5q-21 -17 -25 -15
q-3 2 2.5 16t12.5 22q12 13 -9 24q-10 5 -12 7.5t1 5t15 7.5q39 16 72 54q18 21 22 19q1 -1 1 0t-1 2q-2 5 12 27q20 34 43.5 106.5t32.5 130.5q7 43 6 63.5t-13 52.5q-10 30 -5 36q5 7 12 6t21 -11q16 -12 29.5 -9.5t70.5 27.5q45 20 98 52.5t88 61.5q19 15 25 18zM771 538
q-2 2 -5 2q-1 -1 -19 -4q-19 -2 -45 -18.5t-26 -25.5q0 -4 -14 -19l-15 -15h16q25 0 60.5 21.5t43.5 41.5q6 15 4 17zM303 177q7 2 -1 3h-18q-33 1 -49.5 -8.5t-39.5 -40.5q-24 -32 -48 -32q-7 0 -6 -2t13 -12q18 -13 27 -16q19 -4 45 18q13 12 37 24q13 6 25 13.5t18.5 13
t4.5 6.5q-2 3 -13 -6q-9 -6 -28.5 -15t-21.5 -7l3.5 2t9.5 6t14 8q22 13 22 15q1 1 -7 2q-13 1 -38.5 -11t-41.5 -27q-15 -14 -19 -16l2 4q5 6 17 19q37 37 80 42q32 3 30 8q0 1 -6 1q-9 0 -16 3t5 5zM321 123q0 9 -3 9.5t-15 -6.5q-10 -7 -35 -19q-24 -12 -39 -27.5
t-27 -15.5q-7 -2 -8 -5q3 -5 33.5 -2.5t45.5 9.5q16 6 32 25t16 32zM152 720q-6 11 -5 11l7 -6q10 -10 18.5 -29t4.5 -23q-3 -4 -8 8q-1 3 -3 6q-6 19 -14 33zM721 578q20 11 24.5 12t7 -3t9.5 0q10 5 15 -2q1 -3 -1 -5q-5 -8 -41 -30q-3 -2 -3 0q-1 3 12 16q6 8 4 8t-12 -1
q-15 -2 -33.5 -11.5t-20.5 -9.5q-4 0 7 8q14 9 32 18zM686 306q39 11 62 10q21 -1 42.5 -11t28.5 -21q5 -8 -1.5 -24.5t-49.5 -98.5q-26 -50 -32 -66q-6 -17 -12 -25q-13 -15 -99 -22q-55 -5 -114 -14q-62 -10 -73 -9q-8 1 -11.5 5t-8.5 18q-7 21 -15 62q-7 34 -15.5 55.5
t-27.5 52.5q-30 49 -12 55q19 5 47 -39q20 -29 28 -50t13 -52q8 -51 15.5 -62.5t28.5 -6.5q12 4 93 16q107 16 120 31q6 6 23.5 47t26.5 68q6 20 6.5 24.5t-4.5 7.5q-22 16 -186 -18q-123 -26 -126 -19q-1 3 7 12q18 19 139 46q63 15 107 28z" />
    <glyph glyph-name="uni56ED" unicode="&#x56ed;" 
d="M531 728q61 11 110 10q34 -1 43.5 -3t24.5 -10q21 -12 28 -20q11 -11 13 -64t1 -270q-2 -191 -3 -240.5t-6 -64.5q-12 -43 -24 -47q-6 -2 -16.5 5t-15.5 17q-8 17 -27 41t-26 28q-12 6 -82 6q-103 -1 -230 -27q-41 -8 -91 -12.5t-60 -0.5q-8 3 -14 16q-8 18 -8.5 39
t6.5 60q7 46 14 99q6 48 11.5 176.5t1.5 140.5q-3 12 -17 27q-12 13 -13 17.5t5 11.5q12 12 37 -4q12 -8 15 -8.5t10 6.5q9 8 13.5 8t36.5 10q47 13 263 53zM679 690q-13 7 -59 8q-31 2 -58 -1t-104 -16q-91 -15 -160.5 -30.5t-76.5 -22.5q-6 -5 -7 -55q-9 -315 -15 -357
q-12 -80 2 -94q10 -10 44.5 -7t189.5 27q52 9 123 9q53 0 66 -2t39 -15q34 -17 37 -14q3 2 3.5 265t2.5 271t-5.5 18t-21.5 16zM489 613q37 15 48 2q4 -5 1 -11q-2 -5 -41.5 -24.5t-73.5 -33.5q-43 -17 -56 -7q-4 4 1 11q4 4 50 28t71 35zM576 507q2 2 17.5 -0.5t18.5 -5.5
q4 -4 -0.5 -10t-15.5 -11q-16 -6 -55 -16q-66 -16 -66 -26q0 -3 5 -7q13 -11 18.5 -27.5t7.5 -54.5q2 -42 8 -62.5t20 -34.5q11 -11 21 -11t29 11q12 7 18.5 16t14.5 30q9 21 12 21q4 0 10.5 -14.5t6.5 -23.5q0 -22 -28 -48q-18 -17 -31 -23t-30 -6q-13 0 -18 2t-11 10
q-10 13 -24 26q-15 15 -19 23q-4 6 -7 70q-2 69 -12 86t-39 3q-13 -7 -16 -21q-3 -22 -45 -85.5t-76 -98.5q-22 -23 -31 -27.5t-15 2.5q-5 6 0.5 15t30.5 37q21 24 49.5 65t38.5 62q10 20 6.5 25.5t-23.5 3.5q-23 -2 -30 -5q-5 -1 -13 3t-12.5 10t-1.5 9q4 3 51.5 18.5
t69.5 20.5q23 5 64 20q40 14 71 21q29 7 31 8z" />
    <glyph glyph-name="uni5B89" unicode="&#x5b89;" 
d="M126 798q26 5 43 2t39 -17q19 -13 27 -30.5t11 -54.5q4 -40 -1 -51q-4 -9 -5 0q-1 6 -2 26q-3 51 -25 85q-14 21 -24 13q-5 -4 -12 -2q-6 3 3 -9l4 -4q13 -15 24 -35q16 -29 14 -48q0 -4 -3 -2q-4 2 -4 9q0 16 -22 45.5t-41 39.5q-8 4 -14.5 1t-14.5 -16q-5 -8 -4.5 -11
t7.5 -12q11 -12 11 -19q0 -8 -20 -28q-15 -15 -18 -23.5t2 -26.5q4 -11 20 -26.5t33 -24.5q23 -11 54 1q9 3 8.5 4.5t-8.5 6.5q-11 5 -31 18t-36 24t-15 12q3 1 39 -16q36 -18 50 -21q9 -2 9 0t-21 23q-25 24 -37 31q-17 9 -24 20q-1 3 1 3q3 0 11 -6t16 -6q7 0 24 -15
q39 -37 61 -39q12 -2 13 -3.5t-5.5 -8t-6.5 -8t7 -5.5q6 -4 5.5 -5.5t-10.5 -6.5q-12 -7 -12 -11q0 -9 69 8q49 12 75 16q36 6 45 8l17.5 3.5l17.5 3.5t18 3.5t33.5 7t34.5 7.5q53 11 75 12.5t45 -3.5q15 -3 30.5 -14.5t15.5 -19.5t-74 -72q-35 -31 -50.5 -41t-21.5 -7
q-5 2 -5.5 4.5t3.5 8.5t11.5 15.5t22.5 25.5q34 36 42.5 49t1.5 17q-14 9 -164 -20q-220 -43 -252 -59q-16 -7 -39 -37q-17 -22 -24 -26.5t-13 3.5q-9 11 23 61q20 29 20 32t-21.5 3t-37 8t-36.5 30q-26 28 -30.5 46.5t10.5 32.5q14 13 8 13q-2 0 -8 -4q-10 -6 -12 -4t5 22
q8 19 5 30q-9 23 2 40.5t38 23.5zM117 761q7 14 5 14q-5 0 -13 -7t-8 -11q0 -14 10 -4q3 3 6 8zM106 699q4 5 2 9q-1 6 -5 0q-2 -3 -2 -7q0 -6 5 -2zM375 763q12 8 45.5 -4.5t62.5 -35.5q23 -18 28 -26.5t-1 -18.5q-6 -9 -9 -9t-38 23q-37 25 -63 38q-41 23 -25 33zM157 713
q-9 18 -7 18q1 0 3 -1q5 -3 16.5 -26t8.5 -26q-2 -2 -6 1t-4 7q0 5 -11 27zM412 491q3 8 9 6t13 -12q7 -12 5.5 -27t-14.5 -51q-18 -52 -12 -56q5 -3 52 8t55 17q9 7 13 7t17 -5q18 -8 54 -7q27 0 34 2.5t22 15.5q20 18 27 18q6 0 -7 -10t-33 -36q-20 -25 -41 -38
q-32 -21 -11 -21q9 0 22 -10q12 -10 18 -11q7 0 18 7t16 16q7 9 21.5 17t19.5 14q6 6 16 6q14 0 30.5 16t16.5 30q0 9 -48 19q-11 2 -13 6q-1 1 2.5 2t10.5 -1q12 -2 36 -4q24 -1 26 -1q3 -1 1 -9q-3 -10 2 -16.5t15 -6.5t21.5 -5t17.5 -12q10 -13 -16 -17q-9 -1 -22 -1
q-21 0 -26 -1.5t-10 -10.5q-24 -46 -84 -64q-20 -6 -43.5 -1t-34.5 18q-6 8 -14 8q-7 0 -19.5 7t-12.5 10.5t7 11.5q5 5 4.5 5.5t-6.5 -2.5q-9 -5 -36 -60q-25 -52 -29 -64q-2 -6 4.5 -12t33.5 -24q39 -24 76 -46q59 -34 94 -85q10 -14 10.5 -17.5t-6.5 -10.5
q-8 -10 -11 -10t-42 37q-37 35 -95 69q-53 32 -68 39.5t-22 5.5q-6 -2 -51 -34q-133 -95 -219 -104q-17 -2 -22 0t-16 14q-13 13 -19.5 30t-1.5 24q10 17 13 -10q4 -28 25 -41q10 -7 25 -2.5t25 16.5q26 31 30 29q4 -3 -8 -19l-6 -9t-2.5 -5t0.5 -2.5l3 -1.5q11 -2 26.5 9.5
t27.5 30.5q7 10 0 10q-8 -1 -17 -6q-15 -8 -19 -5q-1 1 1 2q2 3 21 14q16 8 28.5 26t9.5 27q-1 4 -5.5 5t-18.5 0q-22 -1 -26 3t4 4q2 1 5 1q13 0 31 9q17 10 19 8q3 -4 5 -42q1 -11 -8 -22q-11 -16 -8 -19t18 7q20 14 46 39t26 31q0 7 -17 15q-20 10 -45 19t-33 9t-15 5.5
t-7 11.5t11 23q30 47 26 56q-2 6 -17 6q-14 0 -73 -10t-105 -20q-44 -9 -58.5 -9t-24.5 9q-15 13 2 18q9 3 34 7q39 5 96 19q52 12 99 19q40 7 56.5 15t28.5 27q12 18 23 47.5t11 43.5q0 12 2 19zM757 326q3 7 2.5 9t-5.5 2q-24 -2 -44.5 -11.5t-28.5 -22.5q-7 -12 -19 -23
l-11 -13h14q22 0 53 20t39 39zM509 323q-2 6 -5 6l-2.5 -0.5t-6.5 -1.5t-7 -2q-2 -1 -52 -12q-32 -7 -47.5 -17t-28.5 -32q-6 -12 -6 -15t6 -9q7 -6 42.5 -21t43.5 -15q6 0 16.5 12.5t19.5 30.5q12 25 20.5 48t6.5 28zM712 370q10 5 22 8t19.5 2t7.5 -5q0 -5 -14 -15
q-19 -12 -19 -10t4 8q5 8 4.5 9t-10.5 -1q-12 -3 -29 -10q-11 -6 -12 -4q-1 3 27 18zM155 178q4 4 16 2.5t19 -7.5q8 -7 28 -13.5t33 -6.5q10 0 10 -4t-30 -3q-31 2 -46 13l-15 10l-2 -21q-2 -21 -9 -29t-5 -18q3 -9 0 -9.5t-10 6.5q-14 12 0 34q8 12 8 28t3 18zM303 129
q21 8 21 3q0 -4 -8.5 -14t-16.5 -15q-21 -12 -49 -19q20 12 28 17q22 14 21 17q-3 4 -23 -2q-20 -5 -30 -5q-5 0 2 2q5 3 15 5q23 6 40 11z" />
    <glyph glyph-name="uni7684" unicode="&#x7684;" 
d="M600 745q19 14 40 -7q14 -14 12.5 -25.5t-21.5 -58.5q-1 -2 1 -2t9 5q9 6 16.5 7.5t32.5 -0.5q53 -3 53 -15q0 -5 -8 -1q-30 8 -57 6q-16 -2 -23.5 -5.5t-21.5 -16.5q-23 -19 -23 -32t-4 -13t-2 6q4 11 -2 10q-5 -1 -18 -12q-24 -20 -56.5 -45t-35.5 -25t-3 -4t18 -4
q45 0 89 59q6 8 9 3q3 -10 -14.5 -30t-45.5 -37q-14 -10 -24 -10.5t-25 7.5q-11 5 -12.5 5t-1.5 -7q0 -12 17 -22.5t40 -12.5q26 -3 49.5 5.5t33.5 8.5t23 8t17 17q5 10 27 27q23 19 29 30q5 10 16.5 16.5t24.5 6.5q10 0 11 3.5t-7 13.5q-11 17 -3 22q4 0 21 -18t17 -23
q0 -9 -12.5 -15.5t-32.5 -8.5q-27 -3 -37 -12q-8 -8 -5 -8q2 0 15 1q66 9 90 -18q10 -11 11.5 -21.5t-3.5 -33.5q-6 -31 -10 -85q-10 -130 -27 -191t-62 -128q-17 -25 -33.5 -42.5t-24.5 -17.5q-10 0 -27 35q-6 14 -30 43q-37 46 -28 56q7 6 63 -39q20 -15 31.5 -12t28.5 28
q17 24 27 49q23 62 31 156q7 95 14 151q2 22 -4.5 28.5t-31.5 5.5q-45 -1 -79 -28q-20 -15 -41 -18q-21 -2 -45 -10q-15 -6 -23 -6.5t-27 2.5q-20 4 -25 2.5t-17 -14.5q-16 -18 -36 -42q-20 -26 -36 -33q-14 -6 -17 -18.5t-5 -80.5v-5q-4 -112 -26 -135q-9 -10 -13 -10
t-31 19q-17 11 -26 14.5t-23 4.5l-22 2l15 -8q16 -9 25 -10t11 -3q3 -2 -9 -22.5t-21 -30.5q-13 -12 -24.5 -16t-40.5 -6q-28 -3 -36.5 1t-27.5 28q-13 17 -10 16q4 -1 24 -23q15 -16 29 -16q9 1 8 2q-6 3 -15 11.5t-13 15.5q-1 2 0 2q2 0 12 -9q24 -21 24 -13q0 2 -14 19
q-15 17 0 3l7 -7q13 -13 20 -16.5t16 -3.5q26 0 43 25q5 7 3.5 7t-13.5 -5q-18 -8 -31 -7t-33 13q-22 14 -38 16q-23 4 -54 -8q-6 -3 -17 7q-10 10 -14 10t-4 7t4 2q3 -6 10 -4q8 1 12 -7q3 -7 10.5 -7t32.5 7q20 6 29.5 3.5t37.5 -19.5q16 -10 29 -8q9 0 9 2q0 1 -17 12
q-20 13 -20 14.5t5.5 -0.5t13 -6t12.5 -8q19 -10 24 -4q0 3 -17 11q-64 32 -87 34l-19 1l20 1q26 1 92 -33q18 -10 27 -5q6 3 5.5 4.5t-9.5 5.5q-13 5 -34 20q-27 18 -39.5 23t-31.5 5h-23l-5 103q-3 86 -7.5 106t-25.5 44q-18 21 -16 30q3 9 6.5 10.5t21.5 1.5h21l55 90
q54 90 58 102q5 14 3 28q-4 23 -3.5 28.5t4.5 8.5q13 8 28.5 -6.5t12.5 -31.5q-2 -14 -26.5 -60t-53.5 -92q-35 -57 -35 -59q0 -9 41 10q30 13 68 26t48 13q13 0 29 -10.5t21 -22.5t4 -57v-45l39 39q30 30 34 37t-3 17q-9 14 -18 21q-10 8 -8 16q3 8 12.5 8.5t19.5 -6.5
q7 -4 8.5 -4t1.5 6q0 8 9 13q6 3 34 24q19 15 26.5 25t27.5 50q27 55 29 63q3 8 -7 20q-9 11 -9.5 15.5t8.5 10.5zM330 474q-20 5 -39 0t-66 -27q-35 -17 -41.5 -22t-7.5 -15q-2 -82 13 -91q3 -2 12 4q10 6 32 12q23 7 29 1q14 -14 -42 -46q-7 -4 -16 -8q-17 -9 -20 -19
q-3 -13 -2.5 -43.5t4.5 -35.5q4 -6 14 -8t16 1q32 17 106 -2q7 -2 9.5 0t5.5 12q5 18 10 147.5t1 133.5q-3 3 -18 6zM490 371q13 14 49 -9.5t62 -62.5q27 -41 -1 -43q-8 -1 -13 3t-18 23q-19 25 -52 53q-32 26 -32 29t5 7zM427 81q22 10 48 4q7 -3 7 -6q-2 -6 -1 -24
q1 -34 -37 -50q-36 -17 -73 6q-22 14 -22 16t15 7q14 7 32 24t31 23zM462 76q6 3 -15 3q-16 0 -22 -3t-24 -22q-24 -26 -31.5 -26t2.5 -7q9 -7 21.5 -7.5t18.5 5.5q5 6 16 12q12 6 7 9q-4 3 10 10q4 1 7 3t4 3.5l1 1.5q-4 4 -18 -1.5t-27 -15.5l-14 -10q0 1 6 8
q7 10 25.5 19t31.5 10q11 0 3 2q-7 2 -2 6zM458 48q11 9 6 7q-4 -1 -14 -7q-7 -6 -8 -7q7 0 16 7zM474 42q0 6 -3 6q-6 -1 -27.5 -13t-26.5 -18q-7 -8 -12 -8t-5 -4q0 -3 4 -3.5t11.5 0.5t17.5 3q12 4 26.5 16.5t14.5 20.5z" />
    <glyph glyph-name="uni7EF4" unicode="&#x7ef4;" 
d="M234 745q8 19 20 1q11 -15 0 -43t-60 -112q-51 -88 -50 -96t13 -9q11 -1 43 6.5t48 14.5q11 6 26 24t22 35q2 3 7.5 15.5t7.5 18.5q8 18 13 18t12 -11t7 -19q0 -15 -21.5 -49.5t-86.5 -129.5q-60 -85 -55 -90q2 -3 23 4.5t46 19.5q52 25 60 18q3 -4 -4 -12
q-11 -13 -82 -55t-97 -51q-38 -13 -34 10q2 14 20 38q111 161 109 166q-2 4 -60 -13q-47 -13 -65 -15.5t-23 4.5q-9 11 -0.5 29.5t48.5 75.5q31 43 69.5 111t38.5 79q0 8 5 17zM495 743q8 15 27 4q7 -3 11.5 -19t2.5 -25q-3 -8 -41.5 -92.5t-40.5 -92.5q-3 -9 13 -35
q12 -20 14 -32.5t2 -70.5q0 -126 -7.5 -236.5t-17.5 -125.5q-6 -8 -9.5 -8.5t-12.5 6.5q-7 6 -8 13t-1 37q1 39 7 87q10 81 11.5 190.5t-8.5 119.5q-8 8 -63 -54q-24 -27 -36 -35t-21 -4q-3 1 -3.5 3t3 9t10.5 16.5l21 28.5q29 37 47.5 68.5t52.5 97.5q51 101 45 131
q-2 11 2 19zM613 682q4 11 26 3.5t54 -30.5q41 -29 23 -43q-8 -5 -11 -5t-33 20.5t-44 32.5q-18 15 -15 22zM727 560q43 13 43 -2q0 -7 -15 -15.5t-55 -23.5q-31 -12 -37 -16t-6 -12q1 -9 9.5 -43t11.5 -38q4 -3 29 2q18 3 23.5 2.5t9.5 -4.5q6 -6 0.5 -12.5t-27.5 -18.5
q-26 -13 -32 -23.5t-6 -39.5v-31l37 3q26 2 31.5 1t5.5 -6q0 -7 -9 -14.5t-34 -21.5q-20 -11 -27.5 -21.5t-10.5 -30.5q-5 -34 9 -40q7 -2 77 -5q69 -3 76 -9q4 -5 4.5 -7t-4.5 -6q-6 -6 -50 -10q-136 -11 -182 -22q-26 -6 -67 -14q-17 -3 -22 -2.5t-12 7.5q-15 14 3 22
q12 5 50 13q71 16 78 28q3 7 3 22.5t-3 25.5q-4 9 -11 9.5t-31 -5.5q-22 -5 -37 -5.5t-15 5.5q0 7 66 45q23 13 27 22q5 10 4.5 29t-5.5 25q-4 6 -9.5 6t-30.5 -5q-36 -7 -44 -3q-16 9 7 22q11 7 37 19q37 17 41 25q5 9 4.5 43.5t-5.5 41.5q-4 6 -11 5t-43 -10t-50 -9.5
t-17 6.5q-2 6 4.5 12t19.5 12q33 14 101.5 39t96.5 33zM361 277q26 20 30 21q2 0 2 -10q0 -13 -27 -35.5t-95 -65.5q-86 -56 -107 -73q-44 -37 -66 -46.5t-29 4.5q-3 6 -1 10t13 14q44 39 171 112q84 49 109 69z" />
    <glyph glyph-name="uni82B1" unicode="&#x82b1;" 
d="M278 801q18 6 45 4.5t40 -7.5q37 -19 51 -47.5t14 -84.5v-33l31 2q68 6 88 15q18 6 28 43q6 22 5 31.5t-9 19.5q-10 12 -9 20q1 9 15 10t27 -7q10 -6 11.5 -12.5t-0.5 -37.5q-2 -42 -3 -48q-1 -2 1 -3t9.5 -1.5t19.5 -0.5h35q67 2 77 -5t10 -10q0 -12 -81 -21
q-60 -7 -70 -9q-11 -3 -35 -42q-42 -68 -59 -72q-13 -4 11 45q15 33 17 40.5t-4 9.5q-11 4 -51 -1.5t-49 -11.5q-9 -5 -9.5 -6.5t6.5 -4.5q9 -6 6.5 -11t-19.5 -14q-39 -20 -76.5 -18.5t-61.5 24.5q-7 6 -12 6t-28 -7q-27 -8 -49 -11q-13 -1 -18 0.5t-11 7.5q-8 9 -6.5 13
t12.5 7q6 1 42 11q23 6 27.5 6t10.5 -6q8 -10 9 -8q2 1 -16 24q-17 23 -17 40q0 11 2.5 16t11.5 12q21 17 10 17q-3 0 -11.5 -8t-10.5 -8t-2 4t1.5 10t4.5 11q9 17 4 50q-3 16 -1 24q3 9 14 19.5t22 13.5zM288 777q0 5 -15 -5q-6 -4 -8 -13t2 -13q1 -1 6 5.5t10 14.5t5 11z
M389 758q-5 7 -10 12t-9 6t-6 -2q-3 -4 -15 -1q-9 2 -8 0q0 -2 14 -17q18 -21 30.5 -46t10.5 -39l-1 -11q-1 1 -6 17q-7 21 -23 44q-12 17 -31 33.5t-26 16.5q-5 0 -18 -17l-14 -16l11 -12q14 -13 11.5 -25t-21.5 -33q-17 -17 -19.5 -25t2.5 -27q4 -13 23 -32t38 -29
q31 -15 63 2q8 4 8 5.5t-8 4.5q-9 4 -48 29q-40 26 -43 27q-5 2 -1.5 5t42.5 -17q42 -20 56 -22q10 -2 10 -1q0 3 -27 29q-32 31 -37 32q-7 2 -17 10.5t-13 14.5t-2 6t10 -7q15 -10 30 -11q6 -1 20 -15q17 -17 35 -30.5t23 -13.5q3 0 4.5 4.5t0 10t-4.5 7.5q-6 2 -6 34
q0 54 -28 99zM271 695q2 6 -2 10q-5 5 -5 0q0 -3 -2 -10q-2 -6 2 -6t7 6zM318 721q-6 9 -5.5 9.5t6.5 -2.5q7 -4 19.5 -28t9.5 -30q-4 -10 -12 11q-1 4 -3 10q-7 19 -15 30zM308 480q3 7 14 5.5t19 -10.5q9 -10 8.5 -23t-12.5 -36q-10 -21 -37 -66t-32 -50q-11 -11 11 -34
q11 -12 13 -20.5t3 -50.5q1 -56 -5.5 -123.5t-13.5 -74.5t-13 -5.5t-9 10.5q-7 23 4 121q6 54 6 68q0 18 -4.5 37.5t-9.5 21.5t-20 -11q-14 -13 -19 -36q-5 -25 -19 -52.5t-25 -36.5l-25 -20q-11 -10 -37 -18t-45 -8q-20 0 -33 -5q-12 -4 -15 -3q-2 4 10 30q15 30 18 42.5
t6 48.5q3 47 10 67t28 41q33 33 45 42.5t18 5.5q8 -4 8 -11.5t14.5 -18.5t24.5 -25l11 -15l23 32q24 33 48 74.5t29 58.5q6 19 3 30q-2 11 0 18zM124 300q9 10 6 9q-5 -1 -28 -20q-25 -21 -32 -34q-20 -35 -13 -85q8 -52 -16 -78q-7 -7 -2 -8q3 0 19 1q33 1 47 13.5t19 43.5
q4 25 14 52q28 78 23 80q0 1 -2 1q-3 0 -6 -13q-1 -7 -8.5 -25t-15 -33t-8.5 -14q-2 2 12 40t13 39q-2 3 -14 -11q-30 -32 -41 -97q-6 -35 -8 -38q-1 -1 -2 8q0 46 9 81q1 2 1 4q13 34 44 67q16 17 9 18q-3 0 -12 -7q-15 -11 -15 -5q0 4 7 11zM189 262q-13 14 -16 4t-7 -21
q-3 -11 -17 -47q-14 -32 -14 -56q0 -23 -10 -35q-12 -15 -6 -15q3 0 12 7q43 38 56 64q8 16 9.5 25t0.5 32q-1 34 -8 42zM473 480q2 6 11.5 5t20.5 -9q18 -14 22 -29.5t3 -66.5q0 -49 3 -54q4 -6 26 11q23 17 64.5 60.5t53.5 62.5q11 18 17.5 20.5t13.5 -8.5q9 -15 -9 -40
t-96 -105q-3 -4 -10 -10q-56 -58 -64.5 -75t-3.5 -60v-7q6 -52 16.5 -78t31.5 -39q28 -18 88.5 -26t91.5 2q20 7 29 13q6 4 5.5 4.5t-7.5 -0.5q-13 -3 -40 -5q-23 -2 -30 0.5t-24 21.5q-23 25 -21 26q1 1 3.5 -1t6.5 -6t8 -9q25 -26 45 -26q8 0 8 1t-5 4q-21 11 -30 28
q-1 2 0 2q3 -1 11 -9q24 -21 25 -12q0 3 -14 19l-15 15l17 -14q17 -14 17 -20q0 -2 1.5 -3.5t3.5 -0.5q5 2 8 -2q2 -4 14 -4t20 4t21 16t13 15q-1 2 -5 0.5t-11 -4.5q-20 -9 -34.5 -7.5t-37.5 15.5q-26 15 -36.5 17t-31.5 -3q-41 -11 -45 0q-2 6 -12 9.5t-10 10.5q1 5 1.5 5
t4.5 -6q6 -7 11 -3q11 11 11 -2q0 -23 26 -10q17 7 35 8q14 2 21.5 -0.5t26.5 -13.5q27 -17 42 -15l10 2q0 2 -20 14q-24 15 -24 17q0 1 9 -3t20 -9t15 -8q17 -11 18 -2q0 3 -43 25q-45 21 -68 23l-23 1l23 1q33 1 100 -35q24 -13 34 -3q4 5 -9 9q-12 5 -46 27
q-22 15 -32 19.5t-28 6.5l-27 3h29q20 -1 28.5 -3.5t23.5 -12.5q54 -34 73 -34q8 0 8 -1.5t-13 -28.5q-11 -21 -10 -22l9 8q13 14 20 37q8 25 12 25q5 0 11.5 -16t8.5 -32q2 -13 0 -18.5t-10 -14.5q-11 -13 -46 -37.5t-57 -34.5q-21 -9 -46 -9t-80 11q-53 10 -73 17t-39 21
q-27 21 -36 42t-12 73q-2 37 -4 51q-2 11 -4 12.5t-11 -3.5q-11 -4 -55 -31q-34 -21 -47.5 -26t-18.5 0q-4 4 6 13t53 42q48 35 65 52q13 12 15 19.5t4 38.5q7 100 -12 138q-9 19 -7 24zM625 155q10 8 10 4q0 -1 -8 -6z" />
    <glyph glyph-name="uni8F69" unicode="&#x8f69;" 
d="M229 767q10 6 24 0t19 -20q9 -21 -15 -87q-16 -43 -16 -50q0 -4 2 -5.5t8 -1t15 3t26 7.5q42 13 50.5 14t16.5 -6q7 -6 7 -7.5t-7 -7.5q-8 -7 -41 -20t-66 -30q-27 -14 -36.5 -24.5t-19.5 -39.5q-6 -18 -25 -60q-20 -46 -16 -50q5 -5 32 0.5t49 16.5q18 9 21.5 12.5
t3.5 16.5q0 18 -8 37q-7 15 -8.5 27.5t2.5 14.5q9 3 29 -23t20 -41q0 -8 5 -15q4 -5 10 -6t25 0q30 1 30 -5q0 -11 -41 -30q-18 -9 -23.5 -22.5t-5.5 -38t6 -29.5q4 -4 11.5 -3t44.5 11q32 8 38 3q12 -12 -12 -23q-12 -7 -41 -17q-30 -12 -38 -20q-7 -7 -9 -19.5t-10 -95.5
q-8 -82 -21 -82q-4 0 -13 7q-6 6 -6.5 16.5t4.5 68.5q6 77 4 80.5t-9 3.5q-13 0 -129 -43q-26 -10 -37.5 -10t-15.5 10q-3 9 7 15.5t48 21.5l15 5q94 36 109.5 46t17.5 36v4q2 47 -11 47q-8 0 -61 -17q-45 -15 -60 -16.5t-24 7.5q-7 7 -5 15t19 42t27 61q8 25 21 55
q11 24 7 27.5t-32 -6.5q-34 -12 -39 2q-3 7 5.5 14t33.5 20q36 17 49.5 33.5t29.5 63.5q13 36 15 51t-4 32q-7 19 -2 23zM667 641q56 24 64 23t9 -11t-10 -18.5t-41 -20.5q-48 -18 -62 -30q-5 -4 -5 -7t6 -12q8 -13 10 -57q2 -47 4 -57q1 -10 5 -11.5t24 0.5q26 2 36 6
q9 4 62 7q42 2 56 -1t14 -13q0 -9 -8.5 -13t-29.5 -7q-104 -14 -127 -19t-27 -16q-4 -9 -8 -137q-2 -91 -4 -138t-5.5 -76.5t-8 -36.5t-12.5 -6q-12 2 -14 29.5t0 163.5q2 172 0 181q-3 8 -13 8q-19 0 -98 -28q-25 -9 -32 -10t-14 3q-11 6 -11 14q0 6 11 11t76 30
q12 4 27.5 10t24.5 9.5t11 4.5q10 3 15 13q5 11 4.5 54t-5.5 56q-4 10 -9 11.5t-30 0.5q-51 0 -41 16q5 5 52.5 28t103.5 46z" />
    <glyph glyph-name="uni96E8" unicode="&#x96e8;" 
d="M788 825q33 24 46 23q10 -1 12 -4.5t3 -22.5q1 -24 -3 -40q-5 -16 0 -32t0.5 -43.5t-14.5 -46.5q-12 -24 -36 -45.5t-72 -50.5q-49 -30 -157 -11q-28 5 -36 14t-19 10q-13 2 -16 9t5 16q27 34 29 51q1 10 -4 10q-6 0 -41 -9q-18 -5 -24 -8t-4 -7q1 -5 8 -24q7 -18 7 -58
q1 -41 4 -47q6 -9 65 4q129 27 182.5 26.5t82.5 -29.5q13 -12 15 -18.5t0 -32.5q-2 -28 -6 -102q-5 -88 -17.5 -143t-41.5 -113q-37 -76 -53 -76q-5 0 -35 30t-41 46q-18 27 -15 39q1 2 2 2q4 0 25 -16q23 -17 40 -28q15 -9 18.5 -9.5t8.5 6.5q15 18 32.5 68t17.5 74
q0 11 4 19q5 9 10 107t7 102t-1 14q-6 15 -41.5 21t-76.5 0q-105 -18 -141.5 -27t-39.5 -18q-5 -12 -9 -114.5t0 -107.5q4 -6 0 -10q-4 -5 -7 -23q-2 -14 -6 -30q-4 -11 -11.5 -16.5t-12.5 -0.5q-4 4 -18 -7t-31.5 -15.5t-55.5 -6.5l-42 -3l-19 21q-6 6 -19 20t-16 17
q-4 5 -7.5 9t-5.5 6l-2 2q5 0 18.5 -11t20.5 -21q13 -16 22 -22q5 -4 17 -7.5t20 -3.5t9 3q0 4 -5 4q-13 0 -38 32l-8 12q2 -2 16 -14q13 -13 26 -20.5t16 -4.5q1 1 -21 26q-16 18 -13 18q5 0 33 -29q16 -17 27 -21t27 0q11 4 32.5 22.5t21.5 24.5q0 3 -20.5 -7t-42.5 -10
q-14 0 -23.5 3.5t-30.5 16.5q-30 18 -43.5 21.5t-33.5 -0.5q-30 -6 -35.5 -11.5t-5.5 -27.5q0 -55 -15 -55q-9 0 -13.5 13t-5.5 45q-1 30 -3 36t-10 10q-10 5 -10.5 8.5t5.5 11.5q3 3 4 1q-3 -5 1 -11t14 -1q7 3 8.5 2.5t1.5 -5.5q0 -7 8 -14q5 -5 11 -4.5t29 8.5
q34 11 51.5 9t44.5 -20q42 -29 66 -21q6 3 -21 21q-2 2 -5 4q-34 21 -31 21q4 0 23.5 -9.5t29.5 -16.5q24 -16 30 -6q1 2 -4 6t-15.5 9.5t-25.5 12.5q-8 4 -45 22q-17 8 -27 10.5t-29 2.5t-25 1q-3 1 1 2q8 1 28 2q29 0 47 -10q16 -10 39 -18q20 -7 46 -20q17 -8 22 -9t12 3
q16 11 6 13q-2 1 -4 1q-15 0 -66 35q-35 23 -45.5 27.5t-36.5 7.5l-30 3h35q27 -1 35.5 -3.5t33.5 -17.5q34 -21 45 -26q9 -4 11 -3.5t4 8.5q3 14 4.5 96t-1.5 93q-3 13 -7.5 14.5t-24.5 -2.5q-23 -3 -39 -6q-47 -6 -114 -23q-51 -13 -50 -4q1 4 11 13q25 21 151 47
q66 15 71 21q7 10 4 66.5t-12 65.5q-2 3 -63 -17q-62 -20 -72.5 -20t-18.5 8q-5 6 -5 8t7 7q11 9 95 35.5t134 36.5q31 7 45 13q16 6 18 4t-5 -17q-8 -15 -11 -40.5t-10 -37.5q-7 -11 -6 -18t10 -7q8 0 10 -4q3 -4 21.5 -3.5t35.5 6.5q16 4 33.5 17.5t15.5 19.5q0 4 15 10
t38 21q22 15 47 19q24 4 45 14t26 20q4 10 -1 27q-8 31 1 48q5 9 6 19q0 5 -2 6t-10 -1q-13 -4 -26 -13q-38 -25 -76 -30q-70 -9 -109 -25q-24 -10 -25.5 -9t6.5 11q7 9 38.5 20t67.5 17q31 4 42 13q11 8 15 8t37 23zM826 671q0 2 -3.5 2t-10 -1.5t-15.5 -4.5q-16 -6 -41 -7
q-17 -1 -27 -4.5t-32 -16.5q-33 -18 -40.5 -31t-16.5 -21q-12 -12 -8.5 -17.5t24.5 -7.5q16 -2 25.5 0t35.5 14q38 17 50 26q17 14 26 19q7 5 20 24t13 26zM660 695q17 7 16 3q-2 -5 -33 -24q-18 -11 -19 -14q-2 -4 -15 -19q-13 -13 -7 -14q4 0 22 3t18 -2q0 -2 -7 -6
q-15 -8 -40 -17.5t-29 -8.5q-6 3 -5 11t8 12q7 5 7 13t29.5 30t54.5 33zM119 447q5 7 9 7t30 -26q23 -22 29 -37.5t10 -65.5q4 -42 6 -46q1 -1 -3.5 -4.5t-11.5 -6.5q-17 -10 -26 -16l-6 -3q0 1 2 3q6 7 4 57q-2 42 -7.5 59.5t-23.5 37.5q-12 14 -14.5 22.5t2.5 18.5z
M548 405q4 4 30.5 0.5t39.5 -10.5q24 -11 23 -21q0 -3 -3 -4q-5 -4 -28 0.5t-41 13.5q-17 8 -21 12t0 9zM293 364q3 4 9 4t25 -6q18 -5 37.5 -14.5t22.5 -14.5t-3 -10t-15 -5q-12 0 -32 9t-33.5 20.5t-10.5 16.5zM543 286q8 12 63 -15q24 -12 39 -24.5t12 -18.5
q-3 -4 -17 -4q-13 0 -38 13t-43.5 28t-15.5 21zM250 201q-2 3 6 -1q0 -1 2 -2q10 -7 10 -8q0 -5 -15 7q-2 2 -3 4zM484 128q15 10 43.5 10t29.5 -2q2 -2 0 -31q-1 -19 -3.5 -26t-10.5 -15q-27 -29 -65 -28q-16 0 -33.5 6t-22.5 14q-3 4 -13 8q-9 4 -5 7q3 1 15 7q18 7 35 24
q15 16 30 26zM535 126q6 3 -3 3q-4 1 -12 1q-41 0 -60 -33q-17 -26 -35 -26q-7 0 5 -9q24 -20 48 -1q10 10 37 24q26 15 25 17q-3 2 -8 -2q-3 -3 -11.5 -7t-15.5 -6.5t-7 -1.5q0 2 17 11q16 8 9 10q-18 4 -51 -23q-22 -19 -20 -14q1 3 12 14q14 15 26 21.5t33 11.5
q17 4 16 6h-3q-6 0 -6.5 1t4.5 3zM549 89q0 6 -3 6q-5 0 -30.5 -15t-32.5 -22q-11 -10 -17 -10q-7 0 -7 -4q0 -3 6.5 -3.5t17.5 1t22 4.5q20 6 32 21t12 22zM74 118q17 7 36 -2q25 -12 25 -51l-1 -19l-3 20q-3 20 -9.5 32t-13.5 11q-7 0 -8 -2.5t4 -5.5q4 -3 8 -11
q2 -4 1 -4q-2 0 -11 9t-13 10.5t-9 -2.5q-5 -2 -5.5 -2t0.5 5q2 4 1.5 4.5t-5.5 -3.5t-4.5 -6t5.5 -8q14 -15 0 -27q-7 -8 -7 -16q0 -14 15.5 -26t29.5 -9q8 2 9 5.5t-7 5.5q-8 3 -12 8t1 4l8 -4q14 -5 14 -2q0 4 -16 18t-12 14t20 -14q15 -14 21 -14q10 0 4 -12
q-4 -7 -11 -10q-36 -15 -62 17q-19 23 -2 38q8 8 6 9q-2 2 -8 -5q-4 -6 -5 3v9q1 17 4 23.5t12 9.5zM95 75q-2 6 -1 6q1 1 3 -1q4 -4 2 -9t-4 4z" />
    <glyph glyph-name="uniFF21" unicode="&#xff21;" horiz-adv-x="493" 
d="M225 625q3 5 13.5 4t17.5 -8q15 -14 50 -113q22 -61 53 -134q33 -71 40 -97q11 -30 32.5 -106t21.5 -83q0 -8 -7 -10q-21 -7 -34 15t-20 74q-4 31 -16 70t-21 55q-7 11 -11.5 12.5t-23.5 -0.5q-24 -3 -90 -15.5t-80 -16.5l-2 -1q-8 -2 -14 -15t-32 -90q-2 -5 -3 -8
q-21 -60 -30 -74.5t-22 -7.5q-7 4 -4.5 16t22.5 66q16 42 60 176q42 134 58 174q37 108 42 117zM253 553q-10 24 -13 24q-4 0 -23 -52q-11 -30 -34.5 -108t-25.5 -89q-1 -9 1 -10.5t10 -1.5q15 1 136 23q16 5 20 7t3 9q-1 11 -17 45q-15 32 -32 82q-11 38 -25 71z" />
    <glyph glyph-name="uniFF22" unicode="&#xff22;" horiz-adv-x="463" 
d="M135 659q13 2 74.5 1t77.5 -5q22 -3 43 -44q12 -23 3.5 -61t-35.5 -77q-19 -29 -16 -34q2 -6 26 -10q58 -13 85 -42q30 -33 30 -62q0 -14 -11.5 -61.5t-18.5 -62.5q-12 -24 -46.5 -55t-72.5 -51q-17 -9 -28.5 -11t-41.5 -3q-46 -2 -97 7q-51 10 -60 15q-7 4 -7 7t6 14
q11 21 29 157q7 57 23 154q17 103 20 128.5t2 56.5q-1 27 1 32t14 7zM268 632q-7 4 -39.5 5t-51.5 -3q-10 -1 -17 -9.5t-7 -20.5q0 -9 -14 -107q-15 -96 -14 -106q1 -7 4 -7q6 0 42 21q86 49 116 111q14 31 17 52q1 16 -1 22.5t-11 18.5q-14 18 -24 23zM307 390q-44 5 -60 2
q-20 -4 -74.5 -34t-57.5 -39q-3 -5 -12.5 -73t-13.5 -99l-3 -25l46 -6q58 -9 82 -5t66 29q37 22 55.5 41t30.5 49q7 21 14 51.5t7 45.5q0 5 -12 24q-22 33 -68 39z" />
    <glyph glyph-name="uniFF23" unicode="&#xff23;" horiz-adv-x="577" 
d="M75 769q32 9 54 -10.5t21 -58.5l-1 -28l-2 23q-4 28 -13.5 44.5t-19.5 14.5q-7 -2 1 -12l6 -9q14 -18 14 -29l-3 -8q0 1 -3 10q-10 27 -30 41q-8 4 -10.5 4t-8.5 -5q-5 -7 -5 -9.5t5 -11.5q5 -10 4.5 -13t-10.5 -12q-13 -13 -13 -21t11 -21t23 -18q8 -6 21.5 -4.5
t13.5 5.5q-1 3 -26 20q-4 2 -8.5 4.5t-7.5 4.5t-5 3.5t-3 3l-1 1.5q1 1 28 -12q28 -13 30 -12q1 1 -6.5 9t-18 17.5t-16.5 13.5q-7 5 -6.5 5t7.5 -2q8 -2 8 0q0 4 -5 17l-3 12q0 -1 3 -4q6 -9 8 -18q3 -11 20 -26t26 -15q8 0 8 -2q0 -1 -2 -3q-4 -6 0 -11t-14 -14
q-25 -11 -44.5 -6t-38.5 28q-12 15 -14 23.5t7 17.5q5 8 4 8t-5 -2q-4 -1 -5.5 0t1.5 6q3 9 3 25q-1 29 21 36zM73 748q4 8 3 8t-7 -3q-5 -4 -4 -9q2 -6 8 4zM309 670q20 4 31 3t26 -10q22 -15 33 -34.5t1 -26.5q-5 -4 -12.5 -2.5t-7.5 5.5q0 3 -13 18q-28 26 -58 7
q-21 -12 -46 -41t-40 -58q-39 -71 -54 -118t-17 -109q-3 -70 13 -111q2 -5 -5 -6q-6 -1 -22 -1q-31 0 -51 11l-20 10l3 -14q3 -13 -6 -27q-7 -12 -5 -21q2 -8 -3 -7q-3 0 -10 6q-6 6 -5.5 11.5t7.5 18.5q9 13 9 27.5t9.5 17t22.5 -7.5q11 -8 26 -12q9 -3 10 -1.5t0 8.5
q-2 11 -7 55q-3 29 -2.5 43.5t6.5 46.5q14 72 37 125q32 69 51 99t56 64q27 26 43 31zM466 603l-18 6l18 -3q24 -2 43 -2q19 -1 22.5 -3.5t4.5 -16.5q1 -36 -32 -83q-12 -19 -41 -33q-29 -15 -34 -14q-4 1 6 6l4 2q25 12 45 30t20 31q-2 3 -10.5 2.5t-21.5 -3.5t-21 -7
q-10 -4 -34 -29.5t-24 -29.5q0 -2 16 -4l8 -1l-15 -1q-15 0 -33 5t-22 13q-4 5 -19 10q-16 4 -25 11t-7 14q2 5 28 17q24 12 59 46q35 35 44 35q8 0 0 -6q-3 -1 -6 -5q-15 -10 -37 -37t-44 -41q-33 -22 -11 -22q9 0 23 -10q16 -11 26.5 -9.5t23.5 16.5q18 19 35 27
q17 9 19 12q3 5 19 7q17 3 31 20q30 34 -4 41q-18 3 -36 9zM455 563q17 8 33 10.5t18 -4.5q1 -3 -14.5 -16.5t-20.5 -13.5q-6 0 3 9q9 11 9 13q0 5 -45 -15q-14 -5 -14 -3q0 4 31 20zM379 196q14 15 18.5 18t11.5 -4q18 -19 -41 -77q-26 -26 -40 -31.5t-56 -5.5q-49 0 -61 6
q-7 4 -10 3.5t-9 -6.5q-14 -19 -29 -19q-4 0 8 10q14 8 21 22q8 13 2 13q-8 0 -22 -9.5t-21 -19.5q-4 -5 -5.5 -8t-2 -5t1 -2.5t4.5 -0.5q14 0 -8 -9l-10 -5q-48 -18 -71 18q-6 11 -9 23t1 17t8 3t2 -8q-2 -5 3 -17t13 -21q9 -9 23 -9q9 0 15.5 3.5t18.5 17.5q17 20 24 20
q4 0 4 3q0 4 19 12q19 11 26 26q11 20 8 24t-22 4q-23 0 -23 4t12 4q11 0 25 9q20 12 20 4q0 -2 -1 -6q-2 -10 2 -18q4 -9 -2 -24t-6 -16t16 -11q17 -8 38 -6q26 3 48 18.5t56 55.5zM195 172q3 3 10 2.5t7 -3.5q0 -5 -17 -18t-30 -17q-5 -2 -9.5 -3t-6.5 -2t-2 1q0 1 20 12
q21 12 21 16q0 3 -9 1q-9 -3 -28 -5q-14 -2 -2 2q4 2 14 4q31 8 32 10z" />
    <glyph glyph-name="uniFF24" unicode="&#xff24;" horiz-adv-x="468" 
d="M246 655q19 3 58 0q41 -2 58 -11q17 -7 37.5 -31.5t24.5 -39.5q5 -16 5 -75q0 -45 -2.5 -57t-15.5 -40q-60 -121 -140.5 -213.5t-147.5 -115.5q-19 -8 -46.5 -9t-32.5 6q-4 3 1 23q6 15 20 92q2 13 18 92.5t25 124.5q25 126 30 162t-2 57q-7 20 -5 21q2 2 15 2q15 0 48 5
q48 7 52 7zM333 620q-26 7 -79.5 4t-69.5 -13q-9 -5 -12 -22q-12 -77 -49 -263q-48 -246 -45 -249t46 25t76 57q37 32 86 99.5t84 135.5q19 38 22.5 51t3.5 51q0 33 -2 46t-9 26q-16 40 -52 52z" />
    <glyph glyph-name="uniFF25" unicode="&#xff25;" horiz-adv-x="460" 
d="M105 692q16 9 40.5 6.5t41.5 -13.5q14 -9 23.5 -10.5t46.5 -1.5q53 -1 55 -4q10 -9 -16 -17q-6 -2 -16 -3q-6 -1 -17 -2q-33 -4 -38 -8.5t-5 -23.5v-13q0 -38 -4.5 -38t-4.5 28.5t-11 54.5q-15 32 -23 31q-3 -2 -5 -4q-2 -3 -9 -1q-4 2 -2 -2q2 -3 7 -8q12 -15 21.5 -35
t9.5 -30q0 -9 -4 -2q-1 3 -5 11q-5 17 -21.5 37.5t-27.5 26.5q-6 3 -9.5 1.5t-10.5 -9.5q-9 -11 -9.5 -14t7.5 -12q10 -12 10 -15.5t-18 -24.5t-18 -22t4 -16q9 -26 45 -44q16 -9 35 -4t18 10q0 2 -5 2q-4 0 -36.5 21t-32.5 24q0 1 8 -2t19 -8q25 -15 42 -19q11 -2 11 -1
q0 2 -21 21q-28 25 -39 36q-10 7 -9.5 7.5t7.5 -3.5q10 -7 17 -7q6 0 32 -22q25 -23 37 -23q18 0 6 -11q-5 -5 0 -8q12 -5 -8 -17q-16 -10 -37 -13.5t-36 0.5q-17 4 -20 3q-1 -2 -7 -40.5t-6 -49.5q0 -8 3 -9.5t19 -1.5q36 0 134 22q44 11 55.5 10t13.5 -15q1 -15 -5 -20
t-28 -7q-27 -3 -64 -12q-38 -7 -80 -10q-39 -2 -46 -7t-24 -120.5t-12 -120.5t36 1q30 5 62 6q97 7 112 9q80 5 95 2q9 -2 11.5 -5t3.5 -12q2 -17 -10 -21t-65 -4h-63l-9 -17q-14 -28 -30 -37q-5 -3 -2 1q2 3 7 10q16 18 12 17q-2 0 -10 -4t-16 -12t-8 -13q0 -4 -11.5 -9
t-19.5 -5q-9 0 -18.5 11t-9.5 21q0 12 4 11q5 -3 5 -11.5t6.5 -16t15.5 -7.5t22 15q12 13 28 22q10 5 18.5 16.5t5.5 14.5q-1 1 -38 4q-36 2 -45 8q-7 5 -10 3.5t-1 -7.5t-3.5 -16t-4.5 -15l-1 -3l-5 5q-5 6 -12.5 7.5t-32.5 -1.5q-40 -1 -48 2q-12 3 -13 18.5t7 54.5
q19 79 40 259q8 65 12 89q2 12 0.5 18t-11.5 17q-22 31 -3 49q11 10 11 13q0 2 -11 -5t-9 1q0 4 5 14q3 5 4.5 10.5t1 9.5t-3.5 4q-4 0 -4 -6q0 -5 -2 -6t-5 0.5t-4 6.5q-2 7 4 10q6 5 12 21q5 17 20 24zM117 675q0 4 -3 4q-5 0 -9 -6t-4 -12q0 -7 1 -6.5t7 8.5q8 9 8 12z
M105 619q0 6 -2 6q-1 0 -4 -5q-2 -7 2 -7t4 6zM144 627q-7 16 -6 16t4 -3q18 -17 20 -37q0 -6 -4 -6t-4 5t-10 25zM380 363l-16 6h4q11 -2 33 -2q15 0 17 -3t1 -16q-4 -59 -49 -85q-28 -16 -29 -13q-1 2 12 10q20 12 27 18t11 14q5 10 4 12t-12 2q-30 0 -57 -35
q-16 -19 -16 -20q0 -3 9 -4q11 -2 -3 -3q-11 0 -26 5.5t-21 12.5q-3 5 -16 8q-21 4 -20.5 13t21.5 19q19 8 46 34q27 27 32 27q3 0 -11 -16t-33 -34t-26 -22q-17 -9 -8 -14q2 -1 7 -1q7 0 17.5 -7.5t17.5 -7t18 11.5q34 32 61 39q10 2 22 13.5t12 20.5q0 7 -29 17zM357 334
q28 14 40 8q2 -3 1 -5q-2 -5 -17 -14l-13 -8q1 1 4 8q5 8 4.5 8.5t-9.5 -1.5q-13 -2 -24 -7q-7 -5 -8 -4q0 2 1 3q3 5 21 12zM234 96q13 6 15 3.5t-8 -11.5q-13 -12 -18 -12q-6 0 5 8q9 9 4 9q-6 0 2 3z" />
    <glyph glyph-name="uniFF26" unicode="&#xff26;" horiz-adv-x="533" 
d="M283 664q20 1 81 1q44 0 50.5 -1.5t6.5 -9.5t-10 -11q-15 -3 -124 -14q-103 -8 -107 -12q-9 -9 0 -125q3 -43 -2 -43t-5 27q0 28 -10 51q-11 25 -14 25q0 1 -2.5 1t-6 0.5t-7.5 0.5l-13 1l12 -14q30 -34 29 -58q0 -10 -4 0q-3 4 -5 10q-6 15 -24 37t-25 22q-4 0 -14 -9
t-10 -12q0 -4 8.5 -13.5t7.5 -14.5t-16 -21q-11 -11 -13.5 -16.5t-1.5 -13.5q5 -23 32 -41q22 -17 50 -10q11 2 12 8q0 3 -6 3q-5 0 -35 19.5t-30 22.5q0 1 4.5 -0.5t11.5 -5l15 -7.5q31 -17 40 -17q8 0 -8 16q-2 2 -5 4q-21 21 -33 28q-11 6 -13 11q-2 3 5 1q22 -8 54 -33
q21 -18 30 -18q10 0 11 -4q0 -3 -6 -6q-5 -2 0 -8q3 -4 1 -7t-14 -10q-14 -8 -16.5 -12.5t-2.5 -18.5q0 -18 6 -19.5t36 10.5q42 19 109 31.5t84 6.5t5 -22q-5 -7 -56 -16q-53 -7 -81.5 -15t-65.5 -26q-34 -15 -40 -20.5t-9 -21.5q-7 -38 -19 -115q-5 -44 -10 -57
q-4 -9 -14 -13t-17 3q-4 4 -3 13.5t8 40.5q6 32 17.5 114t13.5 111q1 8 -1.5 11t-13.5 7q-12 4 -31.5 21.5t-25.5 29.5q-13 24 8 45q21 20 9 20q-3 0 -3 -5q0 -3 -4 -8.5t-9 -8.5t-6 -1q-3 2 4 18q6 16 2 25q-10 28 14 42q13 9 43 7l30 -1v20v19h-44q-44 0 -50 5
q-6 6 -4.5 13.5t9.5 10.5q7 2 96 10.5t135 11.5zM79 545q4 11 1 11t-8 -5.5t-5 -9.5q0 -12 7 -3q3 3 5 7zM112 504q-7 16 -4 16l2 -1q6 -5 12 -17.5t6 -19.5q0 -11 -10 11q-2 4 -6 11zM460 294l-13 6q1 0 6 -2q13 -2 27 -2q9 1 11 -1t1 -13q-3 -17 -11 -34q-6 -13 -23 -27
t-25 -14q-7 1 5 6t23.5 16t11.5 16q0 6 -14 3q-27 -6 -43 -30q-10 -13 -16.5 -14t-18.5 7q-10 9 -15 9q-7 0 -13.5 6t-4.5 9q3 5 22 15q18 10 30 24q12 15 20 19q5 3 -3 -7q-3 -5 -11 -14q-22 -25 -32 -30q-12 -7 -12 -10q0 -2 15.5 -9t19.5 -7t17 11q9 10 26 19.5t23 9.5
q5 0 11.5 9t6.5 15.5t-21 13.5zM442 272q25 13 29 4q2 -5 -9 -13q-8 -7 -9 -3q-1 2 4 8q4 3 0 3q-2 0 -7 -2q-14 -4 -18 -6q-5 -3 -5 -1q0 3 15 10zM251 143l12 2q11 0 26 -5.5t53 -27.5q19 -12 30 -12q9 0 9.5 -2t-6.5 -19q-6 -14 -20 -29t-23 -19q-10 -3 -42 -7
q-25 -2 -31.5 0.5t-21.5 16.5q-18 20 -18 24q0 5 17 -15q18 -19 25 -19q5 0 12 -2t7 2t-5 4q-4 0 -12.5 8t-13.5 16l1 1q2 0 11 -7q17 -18 21 -14q1 3 -8 13q-11 11 -9 13t14 -11q14 -16 23 -19.5t20 0.5q10 3 23 13.5t13 15.5q0 2 -11 -3q-31 -16 -72 10q-19 11 -26 12
t-29 -4q-22 -4 -28 -4t-12 5q-10 7 -15 10q-6 2 -7 5.5t3 6.5q4 2 6 -4t6 -3q5 2 12 -8q5 -6 9 -6.5t18 4.5q23 8 38 7t29 -13q17 -12 35 -15q15 -2 14 2q0 5 -21 16q-18 11 -18 13q0 1 5.5 -1t13.5 -6.5t14 -8.5q20 -12 24 -4q0 5 -41 23t-58 19l-22 3h22q22 1 37 -7
q65 -35 76 -31q3 2 5 4t0.5 4.5t-5.5 2.5q-5 0 -40 22q-32 22 -48 25q-15 2 -21 3z" />
    <glyph glyph-name="uniFF27" unicode="&#xff27;" horiz-adv-x="485" 
d="M256 658q26 8 47 7q26 -2 46.5 -17.5t13.5 -26.5t-31 7q-10 6 -16 8t-22 1q-36 -4 -78 -32t-72 -68q-16 -21 -35.5 -58t-26.5 -61q-6 -17 -6 -78q0 -43 2 -57.5t9 -39.5q25 -75 62 -93q17 -8 45 -12t44 -2q15 2 32 15.5t25 31.5q9 17 23 70q16 56 19 62q3 7 11 7t13 -7
q9 -9 -18 -91q-24 -78 -56.5 -105t-90.5 -18q-48 7 -73.5 22.5t-42.5 45.5q-22 43 -29 71t-9 77q-2 56 2.5 83t22.5 63q72 154 189 195zM334 394q25 5 63 4.5t43 -5.5t-2 -40q-12 -47 -16 -70q-8 -37 -10 -108v-7q-2 -64 -4.5 -74.5t-14.5 -9.5v1q-11 0 -12.5 8.5t-2.5 55.5
q-2 90 16 173q7 38 5 41q-4 4 -40.5 0.5t-63.5 -10.5q-70 -20 -72 -8q-1 3 1 8q4 10 34.5 21.5t75.5 19.5z" />
    <glyph glyph-name="uniFF28" unicode="&#xff28;" horiz-adv-x="525" 
d="M109 660q2 8 10 6.5t12 -11.5q5 -9 5 -31q0 -14 -7.5 -96.5t-11.5 -119.5q-1 -15 3 -16t23 8q25 12 88 23t131 16q44 2 54.5 5t16.5 13q6 12 11 75q8 72 14 101.5t15 29.5q6 0 8.5 -2.5t3 -14.5t-1.5 -29.5t-6 -55.5q-10 -89 -12 -102q-2 -10 -10 -137q-14 -216 -21 -224
q-4 -5 -17 -5q-9 0 -10.5 4.5t1.5 32.5q2 36 8 105q6 68 7 118l1 48h-62q-104 -2 -183 -22q-34 -8 -47 -7t-15 -2q-2 -2 -11 -74q-16 -145 -29 -185q-10 -29 -28 -11q-9 9 -8 24.5t14 63.5q21 80 33 218q2 23 7 69t5 54q6 55 6 89t3 42z" />
    <glyph glyph-name="uniFF29" unicode="&#xff29;" horiz-adv-x="397" 
d="M140.5 669.5q12.5 3.5 68.5 4t61 -3.5q6 -3 -1 -11q-8 -9 -17 -9q-10 0 -15 -9t-12 -39q-19 -87 -24 -220q-5 -93 -10 -155q-5 -61 -5 -78v-17l52 -3q44 -2 52 -5.5t8 -19.5q0 -9 -6 -10t-45 -1t-45 -1.5t-3 -11.5q3 -17 -18.5 -51.5t-35.5 -34.5q-7 0 -2 3q1 1 3 2
q7 4 16 16t9 17q0 3 -12 -3q-13 -7 -15 -5q-1 1 4.5 6t13 9t10 4t9.5 15t7 20q0 6 -10 3q-12 -2 -21 1q-9 2 -9 3t10 3q10 3 -1 4h-10q-16 -2 -17 -4q7 -4 -3 -5q-28 -1 -47 9t-19 5q0 -2 2 -7q2 -11 -5 -21q-7 -12 -5 -19q0 -4 -1 -5.5t-5 -1.5q-5 2 -6 14t4 17q6 6 8 22
q4 26 28 8q8 -6 11.5 -6.5t8.5 3.5q7 7 24 13.5t20 12.5q11 29 26 295q6 73 13 119q8 54 10 78l4 28l-29 -2q-28 -3 -38 3q-8 6 -5.5 12t15 9.5zM330 402q19 7 23 3.5t4 -23.5q0 -34 -9 -51.5t-33 -34.5q-39 -24 -52 -15q-6 3 -1 4h5q13 0 23 9q2 3 -1 3q-12 0 -26.5 -8
t-20.5 -18q-12 -18 -24 -13.5t-8 24.5q1 4 3 17.5t3 15.5q6 32 16 45q3 3 4 0q1 -6 -3 -13q-4 -9 -4 -14q0 -4 6 -5t14 1.5t14 6.5q9 10 28 20.5t25 10.5q4 0 14 7t10 11q0 1 -37 0t-51 -8q-9 -5 -9.5 -4.5t5.5 6.5q8 10 37 13q31 5 45 10zM343 353q0 10 -17 4q-5 -2 -21 -6
q-19 -5 -37 -19q-19 -15 -23 -14q-16 1 -16 -9q0 -7 -4 -17q-4 -8 -3 -9q3 -3 26.5 10.5t27.5 20.5q11 17 51 29q16 4 16 10zM328 327q5 8 -7 7q-13 0 -31 -12l-18 -14l18 -2q26 -1 38 21zM164 70q14 5 17 3q3 -1 -1.5 -7t-12.5 -12t-16 -10q-13 -5 -14 -3.5t12 9.5
q23 12 10 13q-1 1 -2 1q-7 0 4 3q1 2 3 3zM129 60q1 1 5.5 2.5t8.5 1t4 -1.5q0 -2 -10 -3q-8 -2 -8 1zM47 30q5 10 8 2q2 -3 2 -10q0 -11 11 -25q8 -8 12.5 -9.5t14.5 0.5q15 2 25.5 18t14.5 16q7 0 -3 -14q-7 -11 -1 -14q6 -4 -2 -6q-2 -1 -13 -5q-7 -3 -25 -6
q-10 -2 -14.5 -0.5t-13.5 11.5q-23 23 -16 42z" />
    <glyph glyph-name="uniFF2A" unicode="&#xff2a;" horiz-adv-x="547" 
d="M74 827q9 3 32 3q39 1 59 -32q6 -12 9.5 -44t-3.5 -36q-2 -2 -3 4q-1 4 -1 15q0 31 -11.5 54.5t-25.5 19.5q-6 -1 -5.5 -3t6.5 -12q23 -30 23 -48q0 -9 -4 0q0 2 -2 5q-11 33 -37 49q-12 8 -14.5 7.5t-9.5 -10.5q-4 -6 -4 -9t4 -10q12 -17 -5 -32q-9 -10 -15 -17
q-4 -9 2.5 -23t21.5 -25t25.5 -13t27.5 2q7 2 7 3q1 3 -18 13q-26 17 -35 23t-8 7q3 3 20 -8q20 -10 34 -15l16 -4l-16 17q-14 16 -32 27q-4 2 -7.5 5t-5 5t-0.5 2q1 2 25 -11q5 -2 26 -20q22 -17 30 -14q7 2 7 -5q0 -6 -4 -6t1 -6q2 -3 3 -5t0 -2q-22 -16 -48 -18
q-22 -2 -38 5t-34 29q-27 33 -3 56q13 12 13 16.5t-13 -10.5q-11 -12 -11 -9q0 1 2 7q2 16 2 33q-1 32 17 40zM80 802q5 9 4 10q-2 2 -9 -3t-7 -10q0 -11 9 -2q2 2 3 5zM107 774q-3 7 -1 7q3 0 12 -16q9 -20 4 -20q-4 0 -7 11q-3 6 -8 18zM350 658q1 4 7 4.5t9 -3.5
q11 -19 4 -124l-2.5 -37.5t-3 -33t-1.5 -12.5q0 -8 15 5l2 2q23 21 24 14q0 -4 -40 -43.5t-51 -45.5q-20 -14 -14 -17.5t13 -3.5t21 -11q13 -9 21 -7t28 21q34 32 64 40q14 3 30 17.5t16 25.5q0 7 -4 9.5t-16 5.5q-25 7 -33 9q-14 2 -14 6t16 1q23 -4 40 -5q19 -1 22 -3.5
t3 -15.5q1 -29 -18 -62t-43 -46q-45 -26 -81 -23q-16 1 -16 0q0 -2 -9 -65q-21 -151 -35 -177q-18 -30 -61 -30q-17 0 -25 2.5t-24 13.5q-23 15 -31.5 32.5t-6.5 51.5q1 46 8 44q1 -4 11 -33q10 -30 19 -45t23 -24q26 -17 40.5 -7.5t28.5 51.5q7 24 19.5 102t12.5 102
q0 7 -12 10q-14 2 -24 10t-7 14q3 7 24 17q23 11 28 16q4 6 12 124q10 119 11 124zM474 387q3 10 1.5 11.5t-16.5 0.5q-18 -1 -38.5 -13t-28.5 -26q-8 -13 -16 -18q-17 -9 -1 -11q16 -3 36 5q19 9 38.5 24.5t24.5 26.5zM427 434q10 6 22.5 8.5t21 2t8.5 -4.5q0 -5 -16 -16
q-20 -12 -20 -10q0 1 7 9q6 10 5.5 11t-10.5 -2q-16 -5 -32 -13q-13 -5 -14 -4q-2 4 28 19zM385 147q6 1 19 -6q14 -7 30 -12l10 -3q0 -1 -9 -1q-13 0 -29 7q-14 5 -15.5 4.5t-1.5 -8.5t-5 -20t-9 -12q-2 0 -2.5 5t0.5 11t3 7q4 2 4 15q0 10 5 13zM484 137q4 5 8 -7v-3
q3 -14 -6 -31q-4 -9 -12 -19t-14 -16t-8 -5q-2 2 11 16q14 14 9 15q-4 0 -13 -5q-9 -4 -16 -13.5t-4 -12.5q1 -1 -3 -3q-18 -10 -32 -10q-7 0 -17.5 13.5t-10.5 21.5q0 10 4 10t4 -10q0 -8 8.5 -17t17.5 -9q7 0 23 15q14 15 28 23q14 7 18 14q2 7 0.5 6t-11.5 -8
q-14 -9 -19.5 -9t7.5 7q18 11 6 11q-3 -2 -8 -3q-14 -4 -15 -2l9 6q19 5 30 5q7 0 7 2q1 1 -3 3q-5 3 -15 3t-11 1l9 3q14 3 19 8z" />
    <glyph glyph-name="uniFF2B" unicode="&#xff2b;" horiz-adv-x="432" 
d="M136 662q2 7 9 8t14 -6q4 -5 2 -37q-10 -101 -30 -231q-13 -93 -8 -94q14 15 81 119.5t96 156.5q26 45 36.5 56.5t18.5 7.5t8 -12q0 -5 -42 -76.5t-75 -123.5q-32 -50 -35 -55q-4 -7 21 -44q24 -37 43 -70q34 -60 78 -118q39 -51 39 -66q0 -3 -5 -11q-6 -7 -14 -3
q-9 4 -44.5 54t-62.5 95q-72 118 -79 118q-3 0 -28 -33q-24 -31 -41 -50q-12 -14 -16 -27t-15 -69q-21 -101 -30 -101q-1 0 -3 1q-5 4 -11 16q-3 9 1.5 39t24.5 131q42 210 58 355q5 46 9 70z" />
    <glyph glyph-name="uniFF2C" unicode="&#xff2c;" horiz-adv-x="560" 
d="M432 712l-13 5h3q13 -2 30 -2q10 0 12.5 -1.5t2.5 -9.5q0 -23 -14 -46.5t-35.5 -34.5t-23.5 -8q0 1 1 2t3 2t5 2q13 5 26 15.5t14 17.5q1 6 -0.5 7.5t-9.5 1.5q-14 0 -24 -9q-11 -6 -23.5 -20t-12.5 -19q-1 -4 -6.5 -3.5t-13.5 4t-14 7.5q-6 6 -19 10q-26 11 8 28
q19 10 39 30t24 20q2 0 -9 -12.5t-25.5 -26.5t-20.5 -19q-17 -12 -5 -15q7 0 15 -7q15 -11 31 6q10 9 25.5 19t21.5 10t18 12t14 18q0 6 -5 9t-19 7zM409 687q8 4 17 6t14.5 1.5t5.5 -3.5q0 -4 -12 -12q-11 -9 -11 -7q-1 0 2 6q4 6 2.5 6.5t-8.5 -1.5q-11 -3 -19 -7
q-6 -2 -7 -1q-1 3 16 12zM229 652q4 11 11.5 10t8.5 -24q1 -16 2.5 -21t9.5 -8q13 -6 6 -7q-4 -1 -14 2q-38 11 -68 -16q-18 -14 -18 -17t-5.5 -3t-9.5 -5q-3 -5 -28 -25q-24 -19 -37 -30q-9 -7 -8 -8.5t14 -1.5t30 10.5t27 26.5q11 12 14 10t-1 -9.5t-13 -16.5t-20 -18
q-16 -11 -26 -13.5t-27 4.5q-9 3 -9 -1q1 -9 15 -16q32 -20 67 -7q18 6 29 6q9 0 48 39t51 41q9 2 10 3.5t-3 8.5q-12 18 -2 18q4 0 16 -13t12 -17q0 -8 -10 -13t-26 -6q-13 -2 -19.5 -5t-13.5 -12q-13 -14 -17 -34q-19 -89 -64 -271q-22 -89 -17 -93q5 -3 133 -1
q90 2 111 1.5t26 -5.5q7 -8 7.5 -15t-6.5 -9q-9 -4 -115.5 -6t-141.5 1l-46 2l4 36q2 34 12 81q56 234 63 251q1 3 -5 3q-14 1 -41 -8q-16 -7 -28 -7q-14 1 -29.5 7t-19.5 12q-4 8 -15 20q-13 15 -13 21t7 7t13 -5q6 -3 15 6q3 2 46 36q32 26 56 48q19 17 29 17q19 0 19 19
q0 9 4 20zM164 560q0 4 3.5 4t3.5 -4t-3.5 -4t-3.5 4zM371 280h21q26 -3 42 -13q20 -13 44 -24.5t32 -11.5q5 0 7.5 -0.5t2 -3.5t-2.5 -8t-8 -15q-15 -30 -34 -42t-58 -15l-37 -2l-22 23q-22 24 -20 27q1 1 7.5 -5t13.5 -15q14 -14 19.5 -17.5t17.5 -2.5q9 0 9 2
q-5 2 -20.5 16.5t-15.5 16.5q0 3 15 -12q22 -20 28 -16q2 2 -7 12q-15 16 -15.5 19t15.5 -13q24 -22 38 -22q23 0 45 26q8 9 5 9t-14 -5q-32 -17 -74 8q-41 25 -74 11q-13 -4 -23 -3.5t-12 5.5t-12 8t-10 12q0 5 1 5.5t3 -4.5q5 -7 12.5 -4.5t7.5 -3t6.5 -11t21.5 0.5
q13 7 33 10q15 2 22.5 0t26.5 -15q36 -22 49 -16q2 0 2 2q0 5 -19 15q-18 12 -18 14q0 1 7.5 -1.5t16.5 -7.5t14 -8q18 -12 19 -3q0 5 -70 38q-28 13 -43 10q-11 0 -10 2q7 4 20.5 3.5t24.5 -6.5q26 -15 57 -26.5t38 -9.5q12 4 7 9q-2 2 -6 2q-8 0 -46 24t-57 26
q-21 5 -23 6z" />
    <glyph glyph-name="uniFF2D" unicode="&#xff2d;" horiz-adv-x="695" 
d="M200 664q10 4 18 -3t16 -27.5t15 -54.5t18 -89q7 -41 34 -149.5t31 -112.5q2 -1 3.5 0t4.5 11.5t8 27.5t13 50q31 122 71 239q24 71 35 90.5t25 19.5q10 0 15.5 -4.5t14 -32t17.5 -68.5t27 -130q27 -134 45 -185q30 -81 37 -106t3 -31q-4 -7 -12 -8t-13 5q-5 7 -35 97
q-31 93 -49 182q-38 183 -49 210q-6 10 -8 6q-2 -2 -7 -15q-12 -27 -38.5 -107.5t-37.5 -121.5q-13 -54 -29 -128q-23 -114 -35 -114q-16 0 -38 98q-15 67 -32 125q-19 68 -32 144q-21 112 -27 113q-4 0 -10 -34q-7 -33 -32 -113q-19 -61 -50 -163q-50 -168 -65 -169
q-5 0 -9 10q-3 9 14 56q18 56 38 126q30 102 45 150q23 73 32 127q15 74 28 79z" />
    <glyph glyph-name="uniFF2E" unicode="&#xff2e;" horiz-adv-x="487" 
d="M437 685q0 3 5 1t4 -47t-7 -81q-35 -208 -86 -422q-10 -43 -21 -43q-3 0 -7 3q-6 5 -32.5 108t-34.5 147q-6 37 -23 102q-15 64 -24 107q-13 69 -23 69t-26 -92q-17 -95 -54 -223q-17 -63 -30 -129q-15 -70 -17 -71q-2 -3 -12 7q-8 7 -8.5 12.5t3.5 28.5q18 87 36 150
q44 153 53 223q7 54 20.5 93.5t27.5 49.5q7 4 9.5 4t8.5 -4q9 -10 21.5 -42t21.5 -70q10 -50 25 -105q15 -60 24 -108q24 -129 35 -140q4 -4 7 -1q4 5 19.5 65.5t26.5 122.5q8 36 38 183q20 99 20 102z" />
    <glyph glyph-name="uniFF2F" unicode="&#xff2f;" horiz-adv-x="601" 
d="M130 771q15 6 37 5q17 -1 20 -4t4 -22q1 -23 -7.5 -37t-27.5 -26q-46 -24 -100 12l-16 10l20 9q19 10 38 29q20 19 32 24zM169 765q8 3 -3 3q-3 1 -10 1q-20 0 -34 -8t-28 -28q-12 -17 -26 -21l-13 -3l14 -9q15 -9 24 -9t19 10q13 10 23 14q10 6 4 9q-4 3 10 10
q15 9 14 11.5t-18 -2.5q-20 -7 -43 -25l-1 2q4 3 9 9q20 19 46 25q16 5 15 6q-6 2 -6.5 2.5t4.5 2.5zM175 743q0 2 -4 -1q-3 -1 -13 -8l-13 -10q3 0 16.5 8.5t13.5 10.5zM175 713q10 16 7 19q-4 2 -32.5 -13t-33.5 -24q-6 -8 -15 -9q-5 -1 1 -2q4 0 12 -1q43 0 61 30z
M312 668q58 14 90 -9q36 -26 61 -76q12 -24 17 -29.5t21 -10.5q22 -7 40 -6q14 0 16 -2t2 -14q2 -27 -21 -70q-15 -27 -35 -40q-11 -8 -11 -24q0 -38 -37 -132q-29 -70 -54 -99.5t-69 -38.5q-55 -14 -106 -2q-28 6 -38 4h-7q0 2 10 13q17 18 12 19q-2 0 -5 -1
q-11 -2 -21.5 -12t-11.5 -17q0 -9 -20 -16q-20 -6 -30 0t-18 20.5t-4 21.5q4 12 7 3q2 -3 2 -9q0 -13 10 -22q11 -11 21.5 -8t27.5 19q18 18 32 26q23 12 23 32q0 7 -16 8h-18l16 5q15 6 21 10q4 3 6 -5q6 -21 -2 -37q-6 -11 -3 -12q4 -2 28.5 -7.5t54.5 -1.5q52 9 79 48
q19 27 42 84.5t29 90.5q2 13 1 15t-8 0q-19 -7 -43.5 -1t-35.5 18q-8 9 -16 9q-6 0 -21 8.5t-15 11.5q1 9 33 25q27 14 49 37q23 24 37 34l13 12l-13 26q-14 29 -39 54q-19 20 -26.5 22.5t-29.5 1.5q-44 -4 -67 -24t-53 -83q-25 -48 -34.5 -84.5t-17.5 -112.5
q-6 -54 -6.5 -70t4.5 -32q3 -17 8 -32q1 -2 1 -3.5t-2.5 -2t-6.5 -1t-13 -0.5q-24 0 -32 6q-9 6 -11.5 4.5t-2.5 -11.5q0 -15 -6 -19q-5 -5 -3 -12q2 -5 -2 -5q-13 0 -6 26q9 30 14 34t19 -6q10 -9 13 -9q1 0 0.5 8.5t-2.5 21.5q-4 25 0.5 81.5t13.5 105.5q7 36 26.5 89
t34.5 77q13 18 33 38.5t33 27.5t38 12zM506 533q-34 14 -64 -9q-21 -17 -37 -39q-18 -23 -42 -37q-36 -24 -9 -24q10 0 22 -10q14 -12 24.5 -9.5t24.5 17.5q20 20 32 26q11 5 20 12q6 6 19 9q17 1 30 14t17 31q2 9 0.5 11t-9.5 2q-13 0 -28 6zM528 460q0 1 -19 0
q-17 -1 -38 -13t-31 -27t-18 -20q-18 -9 -2 -12q17 -2 38 7q22 10 40.5 24t23.5 24q6 15 6 17zM477 497q36 19 51 11q6 -2 1 -8q-4 -5 -19 -16t-16 -9q-2 2 6 12q6 9 5.5 10t-10.5 -1q-12 -2 -34 -13q-16 -7 -15 -4q7 6 31 18zM190 183q21 8 20 0q-1 -6 -18 -16
q-15 -9 -19 -9q-2 1 7 6q2 1 4 3q11 10 6 11q-6 1 -6 2t6 3zM171 176q0 1 2 2q6 0 6 -2q-4 -2 -8 0zM473 134l-11 3h9q12 1 43 -16q30 -17 36 -17q7 0 7 -2t-5 -11q-7 -12 -19 -24t-16 -12q-7 0 6 8q18 11 13 14q-2 2 -10 -1q-22 -9 -44 6q-16 12 -38 9h-15q1 1 7 4
q26 11 47 -4q14 -11 24 -11q9 0 9 1t-8 7q-10 8 -7 8t14 -6q9 -7 12 -5l-3 3.5t-8 7.5q-9 5 -10 7h3q5 -1 11 -5q6 -3 12 -4.5t9.5 -0.5t3.5 3q0 4 -5 4t-28 15t-39 19zM485 112l-5 4q1 0 7 -3q13 -7 13 -8t-3 -1q-4 0 -12 8zM408 95q-11 7 -8 8q1 0 4 -1q10 -3 14 -8
q6 -8 2.5 -7.5t-12.5 8.5zM445 74q-2 6 8 -5q11 -14 19 -14q7 0 6.5 2t-7.5 9l-5 8l3 -3q12 -10 13 -7q0 2 -3 7l-1 3q1 -1 5 -4q11 -9 19 -14q7 -4 0 -4q-3 -1 -8 -1q-21 0 -31 4.5t-18 18.5z" />
    <glyph glyph-name="uniFF30" unicode="&#xff30;" horiz-adv-x="458" 
d="M220 674q20 1 65 0q50 -1 72 -9q28 -12 44.5 -34t16.5 -49q0 -23 -18 -68t-36 -65q-11 -13 -45.5 -37t-64.5 -39q-18 -9 -28 -11.5t-34 -3.5q-33 0 -50 10q-16 9 -19 6q-4 -3 -19.5 -73.5t-23.5 -120.5q-7 -43 -12 -56t-14 -13q-8 0 -11 2t-3 12.5t2.5 26t10.5 48.5
q20 90 54 274q9 50 18 110q10 65 18 74q6 5 8 5.5t5 -3.5q10 -16 -19 -178q-11 -55 -9 -71q1 -11 4 -14t13 -6q17 -5 42 -5q16 0 26.5 2.5t31.5 12.5q64 33 100 79t36 95q0 26 -7.5 39t-30.5 20q-43 16 -105 10q-39 -4 -53 0q-11 4 -12.5 7t6.5 11t41 12z" />
    <glyph glyph-name="uniFF31" unicode="&#xff31;" horiz-adv-x="538" 
d="M206 673q26 9 67 -5q18 -6 48 -26.5t49 -39.5q26 -25 44 -72t18 -87q0 -22 -7 -71t-13 -74q-9 -30 -9 -39.5t30 -46.5q65 -80 51 -89q-2 -2 -8 -2q-9 0 -20.5 11.5t-37.5 44.5q-21 26 -27 28q-8 2 -40 -29q-32 -32 -54 -44q-15 -9 -26.5 -10t-61.5 0q-48 1 -60 2.5
t-30 10.5q-45 23 -57 63q-6 16 -16 86q-5 46 -5.5 60.5t3.5 36.5q20 104 64 193q18 34 45.5 62t52.5 37zM279 630q-23 12 -28 12q-39 -4 -53 -10t-31 -24q-25 -28 -52.5 -94t-37.5 -124q-5 -35 1 -98q6 -68 19.5 -92.5t53.5 -41.5q20 -9 59 -11q28 -2 36.5 -0.5t24.5 10.5
q37 20 62 45.5t20 38.5q-2 7 -42 28q-28 15 -36.5 23.5t-2.5 15.5q5 6 13 4t41 -18q41 -19 46 -13q11 9 19.5 66.5t6.5 103.5q-7 122 -119 179z" />
    <glyph glyph-name="uniFF32" unicode="&#xff32;" horiz-adv-x="558" 
d="M76 770q10 3 24.5 0.5t22.5 -8.5q21 -16 20 -55v-26l-3 23q-3 21 -11 36t-17 15q-5 0 -5 -2q1 -3 11 -18q13 -21 13 -29q0 -10 -7 5q-4 12 -17 26.5t-18 14.5q-4 0 -12 -6q-5 -5 -6.5 -4.5t1.5 7t2 7t-6 -2.5q-5 -4 -4.5 -6.5t8.5 -10.5q10 -10 10 -17t-10 -15
q-18 -18 -2 -39q20 -25 45 -21q13 3 13 8q-1 2 -5 2q-3 0 -25 14q-19 13 -18 14.5t18 -7.5q26 -13 28 -10.5t-15 19.5l-18 19q3 -3 10 -3q6 0 20 -15t24 -15q5 0 7 -1t0 -5q-1 -4 -0.5 -4.5t5.5 3.5q15 12 18 -18q2 -33 -11 -140q-10 -94 -5.5 -99t42.5 -5q31 0 48.5 7
t48.5 31q69 54 76 143q2 19 1 26t-7 14q-16 20 -46 26t-90 2q-32 -2 -32 5q0 4 7 11q6 6 17 7t60 1q67 0 81 -5q13 -5 25.5 -21.5t18.5 -32.5q5 -19 -3 -59q-12 -48 -21.5 -69.5t-29.5 -39.5q-17 -18 -41.5 -36t-38.5 -23q-25 -11 -27.5 -12.5t1.5 -8.5q5 -11 54.5 -61
t53.5 -50q5 0 33 23q18 14 25 18.5t19 4.5q17 0 24 -5q3 -2 -2 -2q-3 -1 -13 0q-15 2 -21.5 -0.5t-27.5 -20.5q-9 -8 -25.5 -21t-17.5 -14q-13 -11 -10 -11q2 -1 7 -1q11 0 27 15q20 18 19 12q0 -2 -4 -8q-9 -13 -23 -20t-26 -4q-9 2 -10 1t5 -7q17 -18 55 -7q21 5 46 31
q24 25 32 25q5 0 1 7q-4 8 -1 9q4 0 12 -10q9 -8 5.5 -13.5t-16.5 -5.5q-20 0 -41 -31l-13 -20l18 -16q42 -37 62 -42q9 -2 14.5 -8t3.5 -12q-2 -5 -23.5 -6t-34.5 4q-10 3 -49 39q-39 35 -51.5 35t-27.5 15q-21 23 -10 27q4 1 -24.5 29t-62 57.5t-43.5 34.5q-10 6 -15 6.5
t-13 -4.5q-14 -5 -19 -23q-3 -14 -17.5 -87t-14.5 -79q0 -4 13 -8q9 -3 9 -3.5t-16 -1.5q-20 0 -36 8q-19 10 -19 5q0 -2 1 -9q2 -12 -4 -21q-7 -9 -5 -18q0 -5 -0.5 -5.5t-6.5 3.5q-5 4 -6 13.5t4 12.5q4 3 4 13q0 14 5.5 20.5t14.5 5.5q8 -1 11 6.5t14 51.5q13 64 23 127
q10 68 23 169.5t11 103.5t-19 -4q-30 -13 -50 3q-12 9 -22.5 24t-10.5 22q0 8 11 18q2 3 4 5.5t3 4l1 1.5q-1 2 -4 -0.5t-7 -6.5q-8 -8 -8 -6q0 1 3 6q3 12 2 27q-1 27 22 32zM93 728q-3 4 0 4q2 0 8 -12.5t4 -14.5q-1 -1 -4 3q-1 2 -2 5q-5 14 -6 15zM176.5 168.5
q10.5 6.5 13 4.5t4.5 -15q4 -17 -5 -34.5t-23.5 -34.5t-20.5 -17t4 8q10 7 15 15.5t3 11.5q-3 2 -15.5 -5.5t-19.5 -16.5q-9 -10 -4 -13q4 -3 -8 -10q-2 0 -3 -1q-34 -13 -51 1q-20 17 -19 38q0 8 7 8q4 0 4 -12t10 -22.5t21 -10.5t28 18q18 19 34 27q13 7 23.5 20t10.5 22
q0 8 -12 6t-20 2q-6 3 -2 4h6q9 0 19.5 6.5zM157 144q17 4 20.5 4.5t3.5 -2.5q0 -5 -11 -13.5t-24 -13.5q-9 -2 -8 -1l15 12q8 7 5 7q-2 0 -14 -1h-13q2 2 26 8z" />
    <glyph glyph-name="uniFF33" unicode="&#xff33;" horiz-adv-x="438" 
d="M244 649q10 4 48 4q24 -1 31.5 -3t12.5 -8q15 -17 -2 -18q-8 0 -31 3q-33 3 -42 1q-12 -3 -41 -32q-27 -27 -36.5 -48t-5.5 -47q3 -27 20 -43t63 -31q29 -11 35.5 -11.5t15.5 6.5q13 11 14 10q2 -1 -12 -16t-30 -30.5t-22 -18.5q-7 -8 -1 -8q9 -1 18 -9q17 -12 33 7
q5 8 22 18t24.5 11.5t19.5 13.5t12 18t-8 6q-7 0 -24 7l-16 6l16 -2q18 -2 29 -2q7 0 8.5 -2.5t1.5 -13.5q0 -18 -12 -40q-9 -17 -9.5 -21.5t5.5 -15.5q17 -28 17 -80q0 -38 -9.5 -58.5t-40.5 -54.5q-32 -32 -63 -48q-23 -12 -31.5 -14t-33.5 0q-35 2 -49 9q-12 6 -13 6
q-6 -10 -18.5 -23.5t-16.5 -13.5q-5 0 3 7q17 12 15 21q-1 2 -3 2q-7 0 -19.5 -13t-10.5 -18q1 -2 -5 -5.5t-15 -6t-16 -2.5q-12 0 -22 20t-2 27q3 0 4 -1.5t1 -7.5q0 -9 8.5 -20t16.5 -11t22 15q12 12 29 24q27 15 27 32q0 6 -36 7q-35 1 -47 6.5t-14 5t-2 -10.5
q0 -13 -4 -15q-5 -2 -5 -11q0 -3 -1 -5t-3 -1q-3 3 -3 12.5t3 12.5q4 2 4 14q0 10 6 13.5t15 -4.5q8 -5 24 -9q10 -2 10 -0.5t-14 16.5q-48 50 -27 50q7 0 62 -43q24 -19 32 -17.5t8 -4t19 -14.5q34 -15 89 4q19 6 44.5 29.5t37.5 45.5q8 15 10 24t-1 35q-2 71 -27 69l-6 1
q1 1 10 6q32 17 37 33q1 7 -6 6h-5q-18 -4 -28 -9.5t-21 -19.5q-13 -17 -10 -18h5l5 -2l-1 -1q-6 -2 -19.5 1t-19.5 8q-6 6 -21 12q-27 12 1 25q12 7 12 8t-5 3q-11 4 -40 17q-61 25 -75 68q-10 39 0 70q7 19 4.5 20.5t-17.5 -2.5q-35 -9 -52 14q-10 13 -6 16t7 0t39 27
q23 18 32 23t19 5q17 0 18 -3l-3 -2h-11q-17 1 -28 -9q-9 -8 -33 -27q-24 -18 -24 -19q0 -8 22 4q5 4 9 7q14 13 14 9t-13 -16q-14 -10 -25 -9q-3 1 -5.5 0.5t-4 -1t-0.5 -1.5q2 -6 14.5 -9t26.5 -1q20 4 40 25q19 19 26.5 19t4.5 8t2 8t16 9q10 7 23 11zM341 403q13 9 28 9
q10 0 10 -2q0 -1 -2 -4q-6 -7 -13 -11q-5 -2 -6 -1.5t1 4.5q2 5 -4.5 5t-16.5 -6t-10 -3.5t13 9.5zM130 121q8 4 14 4q12 0 1 -10q-5 -6 -15 -11q-14 -7 -18 -7q-3 0 6 5q3 2 7 4q16 10 7 11q-4 0 -4.5 1t2.5 3zM330 111q24 6 27.5 5t1.5 -16q-2 -18 -16 -32t-26 -11
q-10 3 -12 -4q-4 -5 -8.5 -5t-7 5.5t1.5 7.5q4 3 4 14t4 18q4 4 4 2q0 -1 -2 -5q-3 -10 4 -10q5 0 14 8q11 8 17.5 8t10.5 4q1 2 -6 4q-5 0 -12 1h-20zM345 80q8 13 7 14q-2 2 -14 -2.5t-24 -10.5l-14 -7q-1 0 -3 -10q-2 -7 -1 -7t11 6q13 8 21 6q7 -3 17 11z" />
    <glyph glyph-name="uniFF34" unicode="&#xff34;" horiz-adv-x="458" 
d="M150 670q36 3 141.5 2t117.5 -4q7 -2 8 -9t-5 -14q-4 -7 -61 -11q-57 -2 -59.5 -5.5t-19.5 -109t-27 -179.5q-20 -147 -28.5 -185t-20.5 -38q-13 0 -14 12.5t7 60.5q9 48 20 122q5 46 24 160q16 105 18 130q2 22 1 27t-7 9q-8 4 -59 3t-98 -8q-36 -4 -42 -2t-5.5 10.5
t6.5 11.5q20 11 103 17z" />
    <glyph glyph-name="uniFF35" unicode="&#xff35;" horiz-adv-x="491" 
d="M424 643q17 19 23 -6q4 -13 3 -32q-7 -77 -25.5 -175t-36.5 -151q-15 -41 -46.5 -85t-58.5 -61q-14 -9 -23.5 -10.5t-47.5 -1.5t-48 2t-29 17q-95 68 -95 256q0 39 5.5 101t11.5 91q3 19 10.5 35t12.5 18q4 1 5 -8q1 -15 -6 -85q-6 -52 -7 -134q0 -78 9 -119
q9 -42 20 -64q15 -31 51.5 -60.5t61.5 -29.5q28 0 65 30q14 11 41 50.5t34 60.5q7 20 13 46q5 25 15 61q10 30 21 123q10 88 13 106.5t8 24.5z" />
    <glyph glyph-name="uniFF36" unicode="&#xff36;" horiz-adv-x="671" 
d="M484 673q3 6 11 5q6 -2 6 -27v-25l34 -1q33 -2 39 -7q11 -9 -2 -8q-4 1 -13 3q-18 6 -40.5 2.5t-41.5 -19.5q-19 -18 -19 -29t-4 -13q-2 -1 -3 0t0 4q1 10 -3 10t-71 -53q-24 -21 -29 -21t-5 -4q0 -7 31 -5q10 1 32.5 17.5t28.5 26.5q7 14 10 14q17 0 -6 -26
q-12 -13 -26 -25q-23 -17 -34 -20t-27 3q-13 5 -15 4.5t-2 -5.5q0 -17 34 -27t61 0q14 5 35 8q17 3 29 15q25 26 45 43q18 15 20 22q2 6 12 11.5t20 5.5q11 0 12.5 4t-5.5 14q-10 15 -5 19.5t20 -13.5q15 -15 16.5 -21t-4.5 -14t-36 -10q-29 -3 -33 -10t-18 -22.5t-20 -27.5
q-7 -12 -22 -23t-25 -11q-14 0 -20.5 -9.5t-14.5 -40.5q-12 -42 -48.5 -147t-42.5 -112q-7 -7 -21.5 -7t-24.5 6q-9 7 -26 32q-16 24 -19 27q-1 2 -10 -7q-10 -9 -22.5 -13t-40.5 -6q-30 -2 -39 2t-28 28q-14 18 -11 17q4 -1 24 -24q17 -17 32 -17q8 1 8 3q-6 2 -16 11
t-14 17q-1 3 1 2q2 0 12 -9q25 -23 25 -13q0 1 -15 19l-8 10q4 -2 15 -15q15 -13 21.5 -17t17.5 -4q27 0 45 27q5 7 3 7t-14 -5q-19 -9 -33 -8t-35 14q-22 15 -39 17q-24 4 -57 -9q-6 -2 -17 9q-12 9 -16 9q-3 0 -3 8q0 7 3 2q4 -6 12 -4q7 1 12 -8q3 -6 10.5 -6t34.5 6
q21 6 30.5 3.5t39.5 -20.5q18 -9 31 -8q10 1 10 2q0 2 -18 13q-21 13 -21 14.5t5.5 -0.5t13.5 -6t13 -7q19 -12 25 -6q0 4 -17 12q-67 34 -92 36l-21 1l21 1q28 1 97 -35q20 -10 28 -5q8 3 7.5 4.5t-10.5 4.5q-16 8 -45 28q-20 14 -30.5 18.5t-28.5 5.5l-26 3l26 1
q18 0 26.5 -2t24.5 -13q22 -12 22 -8q0 1 -1 6q-3 13 -43.5 133.5t-56.5 164.5q-31 80 -14 87q6 3 12 -4q12 -13 90 -241q58 -170 64 -170q5 0 4 -11q-1 -10 8.5 -29t20.5 -32.5t15 -9.5q4 3 13 30q10 29 25 70q43 112 51 147q2 9 0 10.5t-19 3.5q-31 3 -43.5 9.5
t-26.5 24.5q-16 23 -19 23q-5 0 -5 10t4.5 12t17.5 -3q10 -4 12.5 -4t3.5 5q2 7 16 15q10 5 54.5 40t48.5 42q3 3 13 38q11 35 16 40zM479 282q0 11 7.5 11t11.5 -4t24 -10l16 -6h-11q-14 -1 -28 6q-9 5 -10.5 4.5t-1.5 -8.5q0 -7 -5 -19t-8 -12q-2 0 -2.5 5t0.5 10.5t3 7.5
q4 2 4 15zM578 281q6 5 8 3t2 -14q1 -17 -11.5 -38.5t-25.5 -25.5h-3q1 2 9 8q19 19 10 20q-2 0 -6 -3q-9 -4 -12 -2q0 1 2 3t7 3q9 6 16 15t8 15q0 7 -13 5q-11 -3 -13 2q-3 2 -0.5 3t6.5 1q8 0 16 5zM559 261q12 5 14.5 2.5t-7.5 -11.5q-14 -12 -19 -12q-4 0 8 8q11 7 6 8
h-2q-7 0 -7 1t7 4zM475 227q0 8 4 8t4 -9q0 -10 7 -18.5t16 -8.5q11 0 24 15q14 15 14 11q1 -3 -5 -12q-7 -7 -4 -10q0 -1 -4.5 -3.5t-10.5 -4.5q-17 -6 -26 0q-9 4 -14 13.5t-5 18.5z" />
    <glyph glyph-name="uniFF37" unicode="&#xff37;" horiz-adv-x="698" 
d="M636 666q5 13 14 12q5 -2 6.5 -6.5t1.5 -25.5q0 -30 -15 -80q-15 -49 -15 -59q0 -8 -46.5 -150.5t-64.5 -189.5q-15 -38 -25 -49t-28 -7q-17 3 -20 7q-4 5 -29 101.5t-38 154.5q-13 63 -17 63q-3 0 -11 -29l-20 -70q-28 -90 -34 -139q-8 -75 -22 -86q-6 -6 -15 2
q-7 6 -31 54t-37 81q-21 55 -31 80q-18 46 -38 120q-18 72 -43 127q-38 86 -16 86q5 0 12.5 -12t24.5 -47q28 -59 39 -96q3 -11 12.5 -46t11.5 -42q9 -34 34 -99t45 -104q10 -22 15 -22q2 1 2 7q0 7 19 74q48 169 61 248q10 52 14.5 66.5t11.5 14.5q14 0 18.5 -12.5
t9.5 -67.5q13 -128 27 -178q10 -37 22 -93q22 -89 33 -90q1 0 3 3.5t6.5 15.5t11 31t18.5 53q9 33 40 119q26 70 52 168q30 108 31 112z" />
    <glyph glyph-name="uniFF38" unicode="&#xff38;" horiz-adv-x="494" 
d="M410 672q14 11 20 4t-3 -25q-5 -11 -30 -52q-23 -36 -55 -95q-9 -17 -26.5 -49t-21.5 -40l-17 -31l24 -36q25 -36 63 -79q71 -82 82 -111q4 -11 6 -17.5t2 -11t-1.5 -6.5t-6.5 -2q-15 0 -57 62q-23 34 -56 72q-35 40 -50 63q-15 25 -19 25q-8 -1 -36 -50
q-23 -41 -76.5 -118.5t-64.5 -86.5q-6 -5 -16.5 -2.5t-10.5 10.5q0 6 27 42q96 125 144 222q9 17 9 22.5t-8 17.5q-18 34 -63.5 95.5t-88.5 110.5q-24 27 -32 40t-5 20q6 17 51 -34q27 -29 73.5 -87.5t68.5 -90.5q18 -25 25 -24q6 1 24 33q53 97 88 150q28 46 28 49
q0 4 9 10z" />
    <glyph glyph-name="uniFF39" unicode="&#xff39;" horiz-adv-x="604" 
d="M166 651q3 4 13 -12q10 -18 52 -100q9 -15 16.5 -31t14 -28t11.5 -21.5t8 -15t3 -6.5q2 -1 16 13q10 8 11.5 11t-2.5 7q-10 7 -5 14.5t26.5 18t37 25t62.5 65.5q28 34 40 43.5t18 3.5q5 -5 -4 -20q-6 -11 -5 -13.5t16 -7.5q16 -6 43 -6q19 -1 22 -3t3 -15q1 -18 -9 -46
t-23 -45q-27 -37 -89 -55q-48 -14 -84 17q-8 9 -12.5 7.5t-19.5 -18.5q-17 -17 -20 -27.5t-9 -54.5q-7 -63 -13 -150q-7 -88 -12 -101q-5 -9 -17 -9q-9 0 -10.5 2.5t-1.5 14.5q1 50 16 218l7 68l-19 45q-18 41 -41 88q-55 111 -40 124zM504 586q-28 13 -52.5 0.5
t-57.5 -55.5q-19 -25 -42 -39q-25 -15 -25 -18t14 -5.5t27 -13.5t20 -11q17 0 43 31q11 15 15.5 15t18.5 11t32 15q14 3 28.5 15.5t19.5 27.5q3 12 0.5 16.5t-14 4.5t-27.5 6zM529 508q-3 3 -5 2l-3 -1t-7.5 -1.5t-8.5 -1.5q-19 -2 -40 -14.5t-29 -25.5q-11 -16 -19 -23
q-8 -8 -7 -11t13 -3q22 0 56.5 20.5t44.5 40.5q7 15 5 18zM479 549q10 6 23 8.5t21 1.5t8 -5q0 -6 -18 -20q-21 -17 -23 -12q0 2 6 7q13 17 5 16q-2 0 -6 -1q-12 -1 -34 -11q-19 -10 -22 -10q-4 0 9 10q15 9 31 16zM419 225q13 5 15 4q3 -2 3 -21.5t-4 -27.5q-7 -17 -26 -32
t-36 -14l-5 1q0 1 8 5l13 5l-13 -2q-12 -2 -23 -15q-12 -12 -18 -9q-7 2 -4 28q2 17 7 32.5t10 15.5v-2v-4.5t-1 -6.5q-2 -7 -0.5 -9.5t7.5 -2.5q10 0 18 8q7 8 27 17q20 8 22 12q1 2 -4 3q-26 4 -51 -2q-1 -1 -2 -1q-8 -3 -10 -2.5t4 4.5q4 2 10 4q15 7 27 7q15 0 26 5z
M425 189q0 4 -2.5 5t-11.5 -4q-8 -3 -19 -5t-23 -14q-13 -10 -17 -7.5t-7 -2.5q-4 -3 -6 -9t-2 -10t1 -4q7 0 20.5 8.5t22.5 17.5q15 15 23 15q21 0 21 10zM413 165q3 6 2.5 8t-5.5 2q-8 0 -21 -10q-12 -7 -12 -8t8 -2q20 -4 28 10zM58 225q9 4 26 -6q15 -10 38 -14l22 -5
h-26q-27 -1 -40 7q-11 6 -12.5 5.5t-1.5 -12.5q0 -17 -6 -22.5t-4 -14.5q0 -5 -1 -7t-5 -1q-7 1 -7.5 12.5t4.5 19.5q7 10 7 22q0 14 6 16zM189 208q11 5 15 8q3 0 4.5 -10t1 -22.5t-3.5 -17.5q-2 -3 -12 -23q-7 -14 -18.5 -26t-19.5 -15q-5 -1 -5 1q1 2 13 16q26 25 16 24
q-5 0 -12 -4q-14 -5 -16 -4t5 5q3 2 9 5q13 6 23.5 20t10.5 23q0 7 -23 8l-17 1q1 1 5 2q12 2 24 9zM157 178q34 10 35 7q1 -2 -7 -11t-23 -17.5t-18 -6.5q0 1 1.5 3t5 4t8.5 5q16 8 16 12q0 2 -22 0l-21 -4zM48 129q0 16 3.5 16t6.5 -15q2 -12 12.5 -24.5t18.5 -12.5
q21 0 39 24q10 17 14 17q9 0 -4 -17q-8 -10 -8 -13t8 -4q4 -1 -5 -5q-26 -11 -46 -11q-14 0 -26.5 14.5t-12.5 30.5z" />
    <glyph glyph-name="uniFF3A" unicode="&#xff3a;" horiz-adv-x="463" 
d="M208 648q5 4 86 -0.5t105 -9.5q16 -6 18 -11q2 -6 -11.5 -31t-55.5 -90q-51 -76 -147.5 -237.5t-96.5 -166.5q0 -7 11 -4q27 7 163 12t139 -1q4 -6 0.5 -14t-11.5 -11q-14 -5 -187.5 -11t-178.5 0q-2 2 30 44q30 42 53 82q36 60 112.5 185.5t91.5 146.5q21 30 31 52.5
t4 25.5t-63.5 6t-81.5 1q-10 -1 -27 -3q-83 -7 -97.5 -7.5t-19.5 4.5q-1 0 -1 1q-9 8 -9 10q0 10 82 19q59 6 61 8z" />
    <glyph glyph-name="uniFF41" unicode="&#xff41;" horiz-adv-x="338" 
d="M149 370q15 10 23.5 11.5t36.5 1.5q39 0 43 -3t4 -103q0 -76 1.5 -91.5t10.5 -33.5q30 -64 -4 -46q-14 7 -26.5 22.5t-15.5 28.5q-6 17 -10.5 17t-24.5 -26q-49 -67 -98 -68q-14 0 -27 13q-19 22 -20.5 50t14.5 76q34 112 93 151zM216 359q-14 9 -39 -3
q-27 -13 -54.5 -60t-41.5 -97.5t-2 -72.5q7 -14 17 -14q21 0 54.5 41t52.5 91q9 27 14.5 69t-1.5 46z" />
    <glyph glyph-name="uniFF42" unicode="&#xff42;" horiz-adv-x="320" 
d="M108 552q8 12 18 -7q5 -8 6 -19q7 -36 -11 -143q-11 -64 -2 -69q4 -4 28 14q17 11 25.5 14.5t21.5 3.5q51 0 74 -27q9 -9 12.5 -23t3 -30.5t-4.5 -29.5t-14 -35q-15 -33 -46 -65q-31 -35 -56.5 -45.5t-53.5 -11.5q-65 5 -68 25q-1 12 14 75q40 175 47 304q4 64 6 69z
M225 304q-22 11 -26 11q-4 1 -27 -11q-36 -19 -58 -69q-10 -21 -21 -60t-11 -53q0 -9 3 -10.5t22 -1.5q25 0 46 13q36 22 67 70.5t29 78.5q-1 14 -4 18.5t-20 13.5z" />
    <glyph glyph-name="uniFF43" unicode="&#xff43;" horiz-adv-x="535" 
d="M81 488q14 6 35 5.5t33 -6.5q15 -7 26 -23q10 -11 12 -19t3 -37q1 -41 -3 -41t-4 27t-11 49q-7 18 -13.5 23t-18.5 6q-9 1 -9.5 -0.5t8.5 -9.5q10 -11 20.5 -31.5t9.5 -29.5q0 -6 -0.5 -6t-4.5 10q-14 37 -43 57q-10 7 -13 7t-10 -8q-17 -20 -7 -20q4 0 9 -10
q7 -16 -19 -39q-6 -6 -7.5 -10t0.5 -14q3 -19 24.5 -36.5t39.5 -17.5q16 3 29 12q-3 0 -21 10.5t-33.5 21.5t-14.5 12q1 3 25 -10q26 -13 39 -17q11 -2 10.5 -0.5t-15.5 17.5q-20 19 -35 28q-14 10 -14 13q0 5 5.5 0t10.5 -4.5t5 4.5q0 6 -10 25q-7 15 -3 15q6 -5 14 -21.5
t6 -20.5q-1 -7 24.5 -28t34.5 -21q10 0 11.5 -3t-6.5 -8q-6 -3 -6 -3.5t6 -2.5q12 -6 -2 -13q-5 -3 -12 -6q-21 -10 -43.5 -10.5t-36.5 8.5q-12 8 -32 30q-34 41 -11 55q9 5 9 8.5t-7 -1.5q-9 -7 -9 1l3 12q5 12 3 28q-5 33 19 43zM87 462q3 10 1 11t-7 -4q-4 -4 -4.5 -9.5
t2.5 -7.5q1 -1 2 0t2.5 4t3.5 6zM82 421q-6 9 -6 -2q0 -7 4 -4t2 6zM331 412q22 7 48.5 0t33.5 -23q4 -10 -2 -16q-5 -5 -7.5 -5t-7.5 5q-35 32 -84 -13q-61 -59 -84 -141q-11 -34 -9 -46t16 -19q16 -8 23 -8q6 0 6.5 -2t-3.5 -13q-4 -7 -2 -9.5t12 -7.5q51 -21 106 36
q36 38 35 7q-1 -4 -2 -10q-2 -15 -25 -36q-53 -52 -142 -22q-27 8 -43 6q-17 -3 -30 9q-12 10 -12 14.5t9 -6.5q8 -10 19 -12q7 -3 7 -1.5t-7 9.5q-8 9 -5 7q1 -1 4 -3q10 -9 13 -6q1 1 -6 8l-2 4q2 -1 8 -6q19 -18 39 -3q11 8 9.5 10.5t-14.5 -3.5q-8 -3 -14.5 -1.5
t-19.5 9.5q-24 11 -46 8q-21 -3 -31 5q-7 7 -6 8q1 0 4 -1q9 -5 13 -8q5 -3 25 1q14 5 19.5 3.5t18.5 -8.5q18 -10 27 -10q5 0 5 1t-7 6q-9 7 -6.5 8t12.5 -6q14 -10 14 -2q0 4 -9 6q-6 3 -6 5q1 2 12 -3t15.5 0t-1.5 5t-29 14.5t-27 14.5q-11 0 -3 39q15 63 49 113
q16 25 46.5 55t43.5 34zM459 331l-14 6q1 0 3 -1q16 -2 31 -2q13 0 14.5 -3t0.5 -17q-6 -48 -49 -71q-22 -11 -24 -9l6 5l6 2q12 6 26.5 18.5t14.5 18.5t-17 3t-23 -8q-10 -8 -22 -22t-12 -18q0 -5 -15 1t-17 10q-1 5 -9 5q-6 0 -15.5 6t-9.5 9q0 4 23 17q22 13 39 31.5
t21 18.5q3 0 -7.5 -13t-24.5 -27t-22 -18q-16 -10 -8 -15q2 -1 7 -1q8 0 13 -6q12 -14 29 4q10 10 25.5 20t21.5 10t18 11.5t14 19.5q0 4 -4.5 7t-19.5 8zM438 305q26 13 37 9q2 -1 1 -4q-2 -4 -16 -13q-9 -6 -9 -5t2 3q6 8 2 8q-3 1 -16 -3q-15 -5 -17 -4l8 5q3 2 8 4z
M186 156q0 4 7 1q2 -1 3 -3q2 -2 0.5 -2.5t-3.5 0.5q-7 2 -7 4z" />
    <glyph glyph-name="uniFF44" unicode="&#xff44;" horiz-adv-x="349" 
d="M275 554q4 2 13 2q21 -3 -5 -134q-25 -113 -28.5 -157t6.5 -87q9 -38 11 -60q1 -16 0.5 -20.5t-6.5 -7.5q-9 -6 -19 -3t-13 9q-3 9 -9 44q-6 36 -11 38q-5 1 -21 -24q-16 -26 -38.5 -47.5t-34.5 -24.5q-37 -6 -58.5 20.5t-13.5 66.5q16 74 43 125t57 66q27 14 55 4
q14 -7 12 -17q-1 -6 -4.5 -7t-19.5 -1q-17 2 -22.5 -1t-18.5 -15q-18 -16 -29.5 -38.5t-24.5 -65.5q-13 -39 -15 -56t4 -31q8 -19 21.5 -16.5t36.5 28.5q31 35 51 86t35 136q32 177 46 188z" />
    <glyph glyph-name="uniFF45" unicode="&#xff45;" horiz-adv-x="488" 
d="M197 422q12 5 41 5.5t46 -4.5q22 -5 30.5 -30.5t-3.5 -49.5q-15 -29 -68.5 -75t-83.5 -54q-14 -3 -26 -0.5t-14 8.5q-1 4 37 23q39 18 77 51t53 61q5 10 -1.5 24t-17.5 19q-22 8 -54 -9.5t-61 -54.5q-22 -30 -30 -57t-9 -73q0 -30 1 -38.5t7 -14.5t8.5 -6.5t9.5 4.5
q12 7 13 6q1 -2 -14 -16q-18 -16 -29 -31q-9 -15 -29 -26q-33 -21 -11 -21q9 0 19 -9q11 -8 20 -7t20 12q15 15 33 26.5t26 12.5q11 1 24 14.5t15 22.5q2 8 -2 10.5t-31 7.5q-7 2 -12 3.5t-8.5 3t-2.5 2.5q2 4 14 0q10 -3 32 -5q17 -1 20 -4t3 -17q-2 -20 6 -20q16 0 64 40
q31 26 37 10q3 -11 -2 -20t-20 -22q-39 -35 -80 -39q-15 -2 -20.5 -5t-12.5 -11q-10 -13 -37 -26.5t-45 -13.5q-13 0 -30.5 6t-17.5 11q0 4 -16 8q-12 4 -19 10t-4 11q2 4 20 13q20 10 31 19q10 7 10 9.5t-7 11.5q-13 11 -16 23.5t-3 49.5q0 74 26 122q12 22 45 56.5
t49 42.5zM212 91q0 4 -2 4q-53 -8 -71 -39q-9 -13 -13 -13t-4 -5q0 -13 40 5q20 8 35 21q5 4 10 13t5 14zM334 310q25 22 33.5 26.5t23.5 4.5q21 0 27 -3q4 -3 -5 -2q-4 0 -12 1q-17 1 -25 -3.5t-43 -32.5q-46 -39 -46 -43t8.5 -9.5t17.5 -5.5q6 -2 31 2q14 2 22 7t26 23
q25 26 31 26q7 0 8.5 3t-1.5 7q-8 9 -2 9q5 0 12 -7t8 -9.5t-5 -7.5q-6 -8 -20 -8q-12 0 -23 -12q-12 -16 -18 -23q-9 -12 -33 -17q-31 -6 -42.5 -4t-24.5 15q-27 27 -7 25q8 -1 14 3t45 35zM339 288q6 9 10 9q9 0 -13 -21q-6 -5 -11 -10q-18 -12 -27 -7q-7 3 -7 3.5t7 0.5
q10 0 24 9t17 16zM167 121q11 6 22.5 9t19 2.5t7.5 -3.5t-13.5 -14t-16.5 -11q-2 0 4 10q4 7 3.5 7.5t-11.5 -1.5q-15 -3 -21 -8q-5 -5 -11 -3q-2 1 7 6q4 3 10 6z" />
    <glyph glyph-name="uniFF46" unicode="&#xff46;" horiz-adv-x="539" 
d="M80 657q15 6 36 5.5t33 -6.5q14 -6 26 -21q9 -9 11 -17t3 -33q2 -38 -2.5 -38t-4.5 25q0 24 -10 44q-8 17 -14 22t-18 5q-10 1 -10 -0.5t8 -9.5q11 -9 21 -28t10 -27q0 -6 -1 -6t-5 10q-13 33 -42 51q-11 7 -13.5 7t-9.5 -7q-17 -19 -8 -19q5 0 9 -8q7 -16 -18 -36
q-7 -6 -8 -9.5t0 -12.5q4 -17 25 -33.5t40 -16.5q15 3 28 12q-3 0 -20.5 9.5t-33.5 19.5t-14 11q1 2 25 -10q25 -11 39 -15q10 -2 9.5 -0.5t-15.5 15.5q-20 18 -34 26q-14 9 -14 13t5 -1t10 -4.5t5 5.5t-9 22q-8 13 -4 13q6 -5 14 -19.5t7 -18.5q-3 -6 23 -25t35 -19
q11 0 12 -3t-6 -8q-6 -2 -6 -3t6 -3q11 -4 -2 -11q-5 -3 -13 -6q-20 -8 -43 -8.5t-37 6.5q-12 8 -31 28q-34 37 -11 50q7 5 7 8t-5 -1q-9 -7 -9 1q0 3 3 10q5 12 2 26q-5 30 19 39zM86 633q4 10 1 11q-2 1 -7 -4q-4 -4 -4.5 -8.5t3.5 -6.5q0 -1 1.5 0t3 3.5t2.5 4.5zM81 596
q-6 9 -6 -2q0 -6 4 -4q4 3 2 6zM284 652q15 8 53 1q16 -4 15 -8q-2 -3 -20 -6q-26 -4 -36.5 -18t-19.5 -57q-7 -37 -14 -87.5t-5 -52.5q4 -2 60 4q58 6 64 4t6 -9.5t-7 -14.5t-19 -7t-54 -6t-46 -8q-7 -4 -11 -36.5t-8 -121.5q-4 -56 -6 -82t-5.5 -43.5t-7 -21t-11.5 -3.5
q-5 0 -9.5 5t-2.5 9q2 2 10 135q9 131 11 142q2 12 -1 14q-4 2 -47 -4q-34 -5 -46.5 -4t-16.5 9q-3 7 6.5 10t50.5 12q49 11 54 15q5 5 10 51q6 57 13 93q4 31 7.5 42.5t12.5 23.5q12 17 20 20zM299 267q5 4 17.5 2.5t19.5 -7.5q10 -6 30.5 -12t33.5 -6q12 0 12 -4.5
t-33 -2.5q-32 2 -47 12l-17 9l-2 -20q-2 -20 -9.5 -27t-4.5 -18q2 -8 -1 -9t-10 6q-15 13 1 33q7 11 7 27q0 15 3 17zM471 249q16 8 21 8q4 -1 6 -41q1 -11 -9 -21q-8 -12 -8 -15q0 -7 -22 -30t-29 -25q-10 -2 -13 0q-2 2 4 5q1 1 3 1q17 5 34 31q5 8 5 9.5t-5 1.5
q-8 -1 -18 -6q-16 -9 -20 -5q-1 0 1 2q3 2 22 13q17 7 30 24.5t10 26.5q-1 3 -5.5 4t-19.5 1q-23 -2 -27 3q2 3 9 4q14 0 31 9zM455 221q22 7 22 2q0 -4 -9 -13.5t-17 -14.5q-22 -11 -52 -18q22 12 31 16q23 14 21 17q-4 3 -25 -3q-21 -4 -31 -4q-4 0 2 2t17 5q23 5 41 11z
M293 172q11 6 12 -12q0 -10 7.5 -22.5t17.5 -19.5q11 -6 27 -2t26 16q28 30 33 27q4 -2 -10 -18q-12 -16 -5 -16q18 -4 -16 -15q-28 -8 -42 -8t-25 8q-10 8 -19.5 24.5t-9.5 24.5t4 13z" />
    <glyph glyph-name="uniFF47" unicode="&#xff47;" horiz-adv-x="278" 
d="M164 431q20 5 28.5 4.5t19.5 -6.5q18 -11 22 -25t0 -52q-3 -44 -8 -148q-4 -99 -11 -130q-19 -82 -32 -102q-12 -17 -29 -30.5t-28 -15.5q-15 -3 -31 2t-22 14q-11 13 -4.5 19t27.5 -3q12 -3 17 -3t12 5q40 23 57 139q4 34 4.5 79.5t-3.5 46.5q-5 2 -21 -10
q-47 -40 -79 -16q-43 33 -27 102q11 49 41 84.5t67 45.5zM196 409q-5 5 -23 2q-10 -2 -36 -26.5t-33 -39.5q-8 -15 -14.5 -39t-6.5 -39q0 -21 11 -35t26 -10q8 1 29 23.5t30 38.5q13 24 19.5 71t-2.5 54z" />
    <glyph glyph-name="uniFF48" unicode="&#xff48;" horiz-adv-x="290" 
d="M89 556h12q19 0 20.5 -22.5t-9.5 -129.5q-10 -96 -10 -101q0 -13 42 34q27 30 38 35t35 -3q23 -7 27 -26.5t5 -125.5q1 -122 -3 -127t-13 -1t-13 11q-5 9 -7 120q-3 110 -7 115q-11 10 -47 -36q-36 -47 -68 -151q-12 -40 -17 -51t-11 -13q-10 -2 -17 0q-1 0 -2 1
q-4 1 -2.5 15.5t14.5 102.5q2 14 3 22q27 191 29 266q0 15 0.5 31t0.5 24.5v9.5z" />
    <glyph glyph-name="uniFF49" unicode="&#xff49;" horiz-adv-x="460" 
d="M168 652q14 6 35 5.5t33 -7.5q15 -8 27 -22q9 -12 11 -20.5t3 -36.5q1 -41 -3 -41t-4 27q0 26 -11 48q-7 18 -13 24t-19 6q-8 1 -9 0t8 -10q10 -11 20.5 -31.5t9.5 -30.5q0 -6 -0.5 -6t-4.5 12q-14 36 -43 56q-9 7 -12.5 7t-10.5 -9q-17 -19 -6 -19q3 0 8 -10
q7 -16 -19 -39q-6 -5 -7.5 -10t0.5 -14q3 -18 24.5 -36.5t39.5 -17.5q17 2 29 12q-3 0 -21 10.5t-33.5 21.5t-14.5 12q1 2 25 -10q26 -12 39 -16q12 -3 11 -1.5t-16 17.5q-20 19 -35 28q-14 9 -14 14q0 4 5.5 -1t10.5 -5t5 6q0 5 -10 24q-6 15 -3 14q6 -5 14 -20.5t6 -21.5
q-1 -5 24.5 -26t35.5 -21q9 0 10.5 -3.5t-6.5 -8.5q-5 -3 -5 -4t5 -3q12 -4 -2 -12q-5 -2 -12 -7q-21 -9 -43.5 -9.5t-37.5 8.5q-11 8 -31 31q-34 40 -11 54q9 6 9 9.5t-7 -1.5q-9 -9 -9 0q1 4 3 11q5 14 3 29q-5 33 19 44zM174 625q4 10 1 12q-2 1 -7 -5q-4 -4 -4.5 -9.5
t2.5 -7.5q1 -1 2 0t2.5 3.5t3.5 6.5zM169 584q-6 10 -6 -3q0 -6 4 -4q4 3 2 7zM240 425q3 4 10 2t9 -7q4 -9 0 -60l-3 -52l14 7q13 7 36 31q24 24 29 24q6 0 -8 -12q-16 -16 -27 -30q-12 -15 -27 -24q-24 -15 -8 -16q7 0 18 -8t18 -6.5t20 13.5q31 29 53 33q7 1 18.5 12.5
t13.5 19.5q3 6 0.5 8t-10.5 4q-37 7 -39 12q-2 3 3 2q3 0 9 -1q14 -5 30 -4q13 0 15.5 -2t3.5 -10q2 -25 -20 -61q-6 -11 -28 -25.5t-31 -14.5q-5 0 6 5q1 1 3 2q47 25 46 46q-2 2 -8.5 1.5t-16.5 -3.5t-15 -6q-14 -8 -28 -26t-11 -19q2 -1 7.5 -1.5t5.5 -1.5l-10 -1
q-13 0 -28 7q-7 4 -24 14q-9 5 -12 2q-2 -2 -5 -95q-2 -92 -7 -98q-6 -7 -15.5 -7t-11.5 6q-2 4 1 75.5t7 121.5q2 33 8 86.5t9 56.5zM357 342q9 4 18 6t15.5 1.5t6.5 -3.5t-11.5 -12t-15.5 -9q-3 0 5 9q5 6 4.5 6.5t-9.5 -1.5q-13 -3 -24 -9q-8 -3 -9 -1q3 6 20 13z
M122 191q-11 1 -13 1q-3 1 1 1q2 0 10 1q12 0 20 -3t37 -19q18 -11 27 -11q7 0 7.5 -2.5t-5.5 -15.5q-15 -33 -57 -39q-24 -4 -33 -0.5t-20 20.5l-12 14l17 -16q16 -15 27 -12q9 2 9 3.5t-8 10.5q-5 6 -4.5 6t11.5 -9q13 -11 20.5 -12t21.5 7q23 15 13 16q-4 1 -14 -3
q-14 -5 -19.5 -4t-24.5 11q-17 10 -23.5 11t-24.5 -2q-24 -6 -31 1t-11 7q-3 0 -3 4q0 5 5 0q6 -4 9 -1q2 2 8 -5q3 -5 6.5 -5t11.5 3q30 12 56 -6q7 -5 15.5 -8t13.5 -3t6 2q0 2 -13 11l-10 8q4 0 18 -8q15 -9 17 -7q2 3 -11 11q-4 2 -11 6l-12 7q3 2 28 -10q21 -11 18 -4
q-2 6 -25 21q-29 19 -48 22zM111 174q-9 1 -11 2q-2 0 1 1h9q15 0 22 -6l3 -3q-6 3 -24 6zM112 127q-3 7 0 4q3 -1 10 -10l6 -8q-1 0 -5 2q-8 4 -11 12z" />
    <glyph glyph-name="uniFF4A" unicode="&#xff4a;" horiz-adv-x="375" 
d="M174 664q17 3 24.5 1.5t18.5 -7.5q32 -18 32 -62q0 -26 -3 -26q-4 0 -2 12q1 10 -5 30t-13 29q-5 9 -14 7q-3 -1 -4 -2t0 -3.5t3 -6t8 -10.5q13 -20 13 -29q0 -7 -5 3l-2 4q-5 12 -20.5 27t-20.5 15q-4 0 -11 -9q-6 -9 -1 -14q8 -6 7 -14.5t-10 -15.5q-12 -12 -11 -27
q1 -12 21.5 -26.5t29.5 -11.5q2 1 7 2.5t7 1.5q6 2 -19 18q-1 1 -3 2q-27 17 -23 18q1 0 18 -8q16 -9 30 -13q8 -2 8 0q0 1 -14 15q-20 17 -29 24l-7 6l6 -1q8 -2 9 1t-4 14q-1 3 -1.5 5t-0.5 3.5v1.5q2 0 8.5 -12.5t4.5 -13.5q-2 -2 8.5 -11.5t23 -18t16.5 -8.5q8 0 3 -5.5
t-1 -8.5q10 -6 -13 -14q-31 -12 -48 -7q-10 4 -27.5 20.5t-21.5 27.5q-3 8 -2.5 11t6.5 12q9 8 8.5 8t-7.5 -1q-7 -2 -7.5 -1t2.5 6q5 10 2 25q-2 13 5.5 24t20.5 13zM168 641q3 6 1 8q-1 1 -3.5 -1t-4.5 -5t-2 -5q0 -7 6 -2q2 2 3 5zM221 440q3 8 8 9t11 -5q16 -19 10 -99
l-3 -44l22 2q22 2 40 8t21 4q5 -3 2.5 -28t-7.5 -38q-8 -12 -25 -26.5t-30 -17.5q-16 -3 -18.5 -7t-2.5 -20q0 -49 -23 -129t-42 -100q-7 -7 -19 -12.5t-24 -4.5t-18.5 5t-13.5 11q-8 10 -16.5 37.5t-7.5 38.5q1 9 2 9q2 0 17 -14q17 -17 25 -17q6 0 7 1q0 2 -9 10
q-7 6 -7.5 7t6.5 -4q15 -9 14 -4q0 2 -4 6q-7 7 -6 7t5 -1q7 -2 11 -10q5 -10 21 -8t26 13q11 10 8 10q-1 0 -3 -1q-30 -11 -62 7q-16 8 -22.5 9.5t-20.5 -1.5q-21 -4 -26.5 -3.5t-15.5 8.5q-11 8 -9 9h7q11 -1 11 -6q0 -11 29 -3q21 6 27.5 5.5t22.5 -10.5q18 -13 30 -13
q9 0 9.5 1.5t-6.5 5.5q-2 2 -7.5 6t-7.5 6l-1 1q2 0 12 -5q23 -11 23 -7q0 3 -14 10q-13 7 -13 9q1 2 19 -7q17 -8 24 -4q6 4 2 4t-35 20q-30 18 -48 21l-19 2l18 1q17 0 44 -14q22 -12 26 -9t10 40q8 49 8.5 59t-5.5 13q-7 4 -9.5 14.5t3.5 16.5q6 10 13 94q4 45 7 57
q2 8 -1 38q-4 29 0 37zM309 288q5 7 -2 8q-4 1 -22 1q-31 0 -44.5 -7.5t-18.5 -23.5q-5 -18 -5 -19q6 -3 16 -1t16 8q8 8 25.5 17t23.5 9q7 0 11 8zM318 267q0 8 -14 3q-4 -1 -19 -3q-16 -3 -34 -18q-18 -14 -22 -12q-4 3 -8.5 -1.5t-6.5 -16.5q-2 -13 0 -14t13 7
q10 7 38 12q26 5 36 15q13 13 -1 13q-13 -1 -31 -15q-11 -8 -11 -7t3 4q4 9 14.5 15.5t19.5 6.5q23 0 23 11zM265 212q4 2 3.5 2.5t-5.5 0.5q-9 0 -20 -4t-11 -8q0 -3 4.5 -3t4.5 4t9 4q8 0 15 4zM153 -2q-22 -3 -30 0q-9 4 -9 0q0 -2 5 -11q6 -12 14.5 -19t14.5 -6
q5 1 15.5 15.5t10.5 20.5q0 2 -5.5 1t-15.5 -1zM138 67q-12 6 -11 7q5 0 19 -7q12 -8 11 -8q-6 0 -19 8z" />
    <glyph glyph-name="uniFF4B" unicode="&#xff4b;" horiz-adv-x="357" 
d="M128 557q5 2 13 2q8 -1 9 -18q1 -10 -14.5 -118t-24.5 -144q-2 -11 4 -11t42.5 35.5t71.5 73.5q27 31 38 39.5t17 3.5q8 -8 -11 -34.5t-79 -88.5q-51 -55 -51 -57.5t38 -22.5q98 -54 126 -96q10 -17 0 -23q-9 -5 -83 51q-46 34 -98 56q-19 7 -23 3t-16 -50
q-12 -52 -16.5 -64t-11.5 -13q-8 -1 -14 3h-1q-4 3 -1.5 20t23.5 118q3 15 4 22q53 256 53 294q0 18 5 19z" />
    <glyph glyph-name="uniFF4C" unicode="&#xff4c;" horiz-adv-x="335" 
d="M178 555q3 7 8.5 7t10.5 -5.5t5 -13.5q0 -9 4 -10q2 -1 5 4q2 3 8 3q3 0 -9 -12.5t-28 -26t-23 -17.5l-13 -7l13 -5q13 -5 15 -8q4 -6 12 -4t16 9q10 11 28 21t25 10q16 0 24 17q8 16 -6 18q-9 2 -23 7l-14 6l14 -3q12 -2 29 -3q10 0 12.5 -2t3.5 -10q0 -7 -8.5 -27
t-16.5 -29q-5 -6 -25 -16t-22 -8q0 1 0.5 2t2.5 1.5t5 1.5q10 4 27 18t17 19q-1 3 -7 3t-16.5 -2.5t-18.5 -7.5q-7 -3 -21 -17t-14 -16q0 -3 9 -4q6 -2 -1 -2h-4q-11 1 -15 -9.5t-19 -73.5q-42 -177 -38 -186q2 -5 -5 -5q-4 0 -14 1q-23 2 -31 8q-18 10 -17 0v-4
q3 -8 -5 -18q-9 -9 -5 -14q1 -4 0.5 -5t-4.5 0q-9 2 -2 35q8 33 34 15q10 -7 14 -5q3 1 5 20q3 21 21 90q36 134 36 162q0 6 -12 11q-26 11 2 23q14 5 17 10.5t6 27.5q3 21 8 26zM238 515q8 5 17 7t14 2t6 -1q0 -3 -9.5 -11t-12.5 -8q-4 0 1 4q9 8 2 8q-5 0 -28 -7h-2
q1 1 12 6zM183 187q5 7 7 -6q1 -5 2 -11q1 -16 -11 -37q-12 -18 -9 -18q2 0 8 1q24 4 49 21q35 22 40 6q5 -14 -13.5 -30.5t-48.5 -23.5q-28 -9 -81 -8q-40 1 -48.5 2.5t-16.5 8.5q-18 18 -15 34q2 5 8 5q4 0 4 -10.5t11 -21.5q9 -9 12.5 -10t14.5 2q15 5 23 17q9 12 12 12
q7 0 25 13t23 21q6 10 3 14t-21 4h-19l19 5q20 6 22 10zM165 121q4 9 1 9t-15 -6q-10 -5 -19 -13t-9 -13q0 -9 23 5q14 9 19 18zM157 160q3 3 7.5 4t8.5 0t4 -3t-9.5 -9.5t-18.5 -12.5q-13 -6 -14 -4q0 3 10 9q16 7 15 12q0 2 -8 0q-2 -1 -8 -2.5t-8 -2.5q-8 -1 -7 2
q3 4 12 4q8 0 16 3z" />
    <glyph glyph-name="uniFF4D" unicode="&#xff4d;" horiz-adv-x="429" 
d="M273 423q14 9 35 9q20 0 39 -9t28 -22q9 -15 11.5 -46.5t1.5 -134.5q-1 -123 -8 -129q-5 -6 -12.5 -6.5t-11.5 4.5q-3 5 -5 147q-1 96 -2.5 120.5t-7.5 31.5q-11 18 -26.5 15.5t-28.5 -23.5q-37 -58 -54 -215q-4 -45 -7 -56t-12 -14q-10 -5 -14 1q-4 5 -5 142
q0 101 -1.5 127.5t-8.5 28.5q-5 2 -26.5 -22t-30.5 -41q-19 -38 -25 -158q-3 -46 -4.5 -59.5t-8.5 -18.5q-6 -6 -13.5 -5t-9.5 9q-2 9 -12 13q-11 6 -12.5 18t3.5 47q23 152 18 231q-1 9 0.5 11.5t8.5 2.5t10 -4.5t8 -21.5q8 -25 12 -25q3 0 33 29q19 20 26 24t21 4
q19 0 27 -6t17 -26q9 -21 14 -19q3 3 11 19q8 18 22 27z" />
    <glyph glyph-name="uniFF4E" unicode="&#xff4e;" horiz-adv-x="560" 
d="M67 515q16 6 36 5.5t35 -9.5q21 -11 30 -30t10 -53q0 -15 1 -15t4 14q4 21 21 4q5 -7 5 -17t-6 -53q-2 -12 1 -12t32 28q51 46 84.5 52t58.5 -29q6 -7 7.5 -18.5t1.5 -52.5l-1 -61l19 20q21 22 24 19q3 -2 -25 -33q-29 -32 -45 -41q-20 -13 -5 -16q9 0 20 -8q10 -8 18 -7
t21 13q33 32 58 37q10 2 21 13t13 22q0 6 -4 9t-24 8q-23 6 -22 9q6 3 18 -1t28 -4q14 0 16 -2t1 -16q-1 -31 -24 -65q-8 -11 -30 -24t-30 -12q-4 0 3 4q2 1 5 2q36 16 49 39q4 9 3 10.5t-13.5 1.5t-33.5 -11t-21 -18q0 -4 -10 -13q-11 -9 -10 -12t11 -5q5 -1 0 -1h-13h-5
q-15 1 -17.5 -5t-5.5 -42q-1 -9 -1 -13q-3 -28 -13 -39q-6 -7 -8.5 -8t-7.5 3t-6 14.5t1 52.5q1 42 0.5 52t-5.5 13q-8 6 -7.5 12.5t8.5 10.5t9.5 12.5t3.5 56.5q3 54 0 70t-16 17q-24 3 -54 -22t-52 -66q-10 -20 -27 -65.5t-17 -52.5q0 -6 11 -7q7 -2 0 -2q-4 0 -9 1
q-19 0 -30 4q-7 2 -8 1t1 -5q2 -9 -4 -17q-6 -11 0 -42q2 -11 12 -16t20 -2q11 5 15 13q5 7 22 18q36 20 31 34q-2 5 -15 5h-16l19 9l18 8q2 0 2 -9t-1.5 -19t-3.5 -14q-5 -13 -17 -27t-17 -14t8 13q15 13 9 14q-4 1 -13 -4q-18 -8 -19 -24q-1 -4 -19 -10q-20 -7 -25 -10
q-17 -8 -24 4q-10 19 15 128q26 112 20 118q-2 2 -17 -3q-12 -4 -29.5 -2.5t-29.5 7.5q-8 5 -29 30q-18 21 -20 34t9 25l4 7l-2 -2q-10 -8 -11 0q0 4 3 11q6 13 2 28q-5 34 20 45zM74 490q4 10 1 10t-8 -5.5t-5 -9.5q0 -11 7 -2q3 2 5 7zM148 488q-7 11 -20 11l-11 -1
l11 -15q11 -14 20 -32t8 -27q0 -4 -6 6q-3 5 -6 11q-7 18 -24.5 37t-25.5 19q-6 0 -15 -13q-6 -8 -6 -11t6 -8q17 -16 -7 -40q-10 -10 -12 -15.5t-1 -14.5q3 -16 22 -33q28 -27 57 -18q9 4 9 6q0 3 -29 22q-16 10 -25.5 17t-8.5 8t31 -14q56 -29 28 0q-3 3 -7 8
q-26 23 -35 28q-10 7 -8 11q1 2 10 -4t11 -1q0 5 -5 18q-6 18 -4 19q1 2 5 -4q14 -24 12 -33q-1 -3 20.5 -23.5t29.5 -23.5q2 -1 3.5 1.5t1.5 8.5q-2 8 -5 8q-1 -1 -2 4.5t-1 16.5q0 41 -21 71zM68 447q-6 10 -6 -3q0 -6 4 -3q4 2 2 6zM456 276q34 16 39 5q2 -4 -9 -12
q-17 -14 -18 -11q-1 1 4 6q10 10 -3 9q-10 -1 -27 -9q-8 -4 -9 -1q3 5 23 13zM229 165q14 4 14 -1q0 -3 -11 -11.5t-16 -8.5t4 5q7 5 5 11q-3 4 4 5zM209 157q-3 1 -2 2t4 1q5 0 5 -2q-2 -4 -7 -1z" />
    <glyph glyph-name="uniFF4F" unicode="&#xff4f;" horiz-adv-x="326" 
d="M161 457q20 6 44.5 4t39.5 -11q23 -16 32 -47.5t8 -95.5q-1 -37 -3.5 -53.5t-11.5 -44.5q-14 -44 -36 -78q-21 -32 -37.5 -41.5t-54.5 -11.5q-23 -1 -32 0t-19 7q-28 18 -38 78q-8 45 -9 49q-4 25 2.5 70t16.5 67q47 92 98 108zM216 419q-13 6 -32 6t-32 -7
q-20 -13 -45 -52.5t-28 -66.5q-3 -23 0 -69.5t9 -68.5q7 -26 19 -36t36 -10t37 6.5t29 27.5q25 34 36 86.5t5 110.5q-3 37 -9.5 50.5t-24.5 22.5z" />
    <glyph glyph-name="uniFF50" unicode="&#xff50;" horiz-adv-x="337" 
d="M117 475q14 8 60.5 6.5t67.5 -10.5q27 -12 39.5 -40.5t4.5 -58.5q-5 -22 -26.5 -54t-48 -58.5t-46 -37.5t-50.5 -16l-28 -5l-5 -45q-4 -38 -8 -103q-3 -44 -7.5 -57.5t-15 -13.5t-12.5 8.5t1 32.5q4 41 12 125q3 30 8 85.5t6 68.5q7 69 9 100q3 48 5.5 58.5t11.5 9.5
q8 -3 22 5zM230 442q-14 8 -49 10q-32 2 -46.5 -3t-19.5 -17q-5 -11 -12.5 -79t-7.5 -97q0 -16 1.5 -19t13.5 -2q36 3 83 49q31 30 45 62q19 41 17 62.5t-25 33.5z" />
    <glyph glyph-name="uniFF51" unicode="&#xff51;" horiz-adv-x="475" 
d="M189 473q21 9 61 9q39 0 48 -4q14 -7 -1 -63q-13 -53 -15 -155q0 -9 1 -9.5t7 3.5q9 7 17.5 7t-8.5 -12q-12 -9 -29.5 -28t-25.5 -34q-9 -11 -35 -26q-27 -17 -28 -20q0 -4 23 -8q9 -3 23 -14q11 -10 17 -10q7 0 19 8t21 19q11 13 27 23q18 8 26 17q9 7 13 7
q14 -4 38.5 16.5t24.5 36.5q0 9 -2 11t-10 2q-12 0 -31.5 8t-30.5 8q-8 0 -7 1q0 1 4 4q9 4 31 -3q23 -6 42 -4q15 2 20.5 -2t-0.5 -12q-4 -6 0 -14q4 -6 -5 -28q-26 -71 -57 -88q-51 -26 -74 -32l-20 -4l3 -59l2 -58h-13q-19 0 -23 9t-5 60q-2 62 -6 62t-18 12t-22 12
q-6 0 -21.5 8.5t-15.5 12.5q0 9 44 33q32 16 37 22q6 5 5 44l-2 39l-32 -31q-26 -24 -37.5 -31t-27.5 -7q-25 0 -43.5 26.5t-18.5 61.5q1 50 33.5 101.5t76.5 72.5zM259 455q-4 14 -43 -6q-40 -20 -67.5 -61t-30.5 -83q-3 -34 7.5 -51t29.5 -11q15 4 44 38t40 63
q8 16 15.5 60t4.5 51zM393 177q-2 2 -4 2q-2 -1 -21 -4q-20 -3 -47 -20t-27 -27q0 -4 -16 -20l-14 -15h16q27 0 64 22.5t46 43.5q5 16 3 18zM340 219q21 11 26 12t7.5 -3t9.5 0q11 5 16 -3q1 -2 0 -4q-6 -9 -43 -32q-4 -2 -4 0q0 3 12 17q8 7 5 8q-1 0 -12 -1
q-16 -3 -36 -12.5t-22 -9.5q-4 0 9 9t32 19zM55 65q8 10 22 -4q7 -6 35 -14l28 -7h-24q-25 -1 -38 9q-11 6 -13 4.5t-1 -13.5q0 -8 -6 -19q-6 -9 -6 -19q0 -5 -1.5 -6t-5.5 2q-5 5 -5 14.5t5 17.5q7 7 7 20t3 15zM183 50q11 6 13.5 4.5t4.5 -17.5q3 -18 -10 -42
q-10 -20 -23.5 -35t-20.5 -15q-5 0 12 16q26 27 12 26q-5 -1 -18 -9q-11 -7 -19 -18.5t-4 -14.5q6 -4 -6 -8q-13 -5 -31 -7q-19 -2 -28 5q-7 6 -13 19t-6 21.5t6 11.5q3 0 6 -16q4 -29 25 -33t38 19q10 16 17 18q21 8 37 24.5t16 29.5q0 6 -21 6q-19 1 -18 4q2 4 12 4
q9 1 19 7zM161 23q7 3 18 3q7 0 7 -1t-8 -8.5t-24 -17.5t-19 -7q-2 1 14 11q18 9 18 15q0 2 -6 0q-7 -3 -22 -5l-1 2q8 3 23 8z" />
    <glyph glyph-name="uniFF52" unicode="&#xff52;" horiz-adv-x="311" 
d="M219 443q39 51 47 39q1 -2 2 -6q3 -14 -3 -29t-25 -47q-74 -110 -84 -216q-11 -91 -26 -101q-9 -5 -13 0q-5 5 -8 82q-4 96 -13 140t-35 97q-21 41 -21 47t3.5 8t10 -0.5t13.5 -8.5q29 -28 53 -102q12 -40 18 -44q3 -3 26 48q22 49 55 93z" />
    <glyph glyph-name="uniFF53" unicode="&#xff53;" horiz-adv-x="416" 
d="M77 516q47 10 66 -30q4 -8 6 -23t1.5 -26.5t-4.5 -11.5t-2 11t-3.5 31t-12.5 27q-9 10 -19 6q-2 -1 -1 -3q4 -6 15 -21q12 -15 12 -24q0 -7 -7 4q-1 2 -2 5q-6 12 -18.5 24.5t-19.5 12.5q-5 0 -10 -8q-5 -9 1 -16t5 -12t-11 -15q-13 -12 -11 -23q3 -17 21.5 -29.5
t34.5 -9.5q13 3 13 8q0 1 -5 1q-3 0 -24 14.5t-21 16.5q0 1 3 0t8.5 -3.5t11.5 -6.5q33 -16 31 -9q-2 4 -13 14q-17 14 -26 23q-6 3 -6 4l9 -2q13 -5 28 -18q17 -15 27 -15t6 -6t0 -9q5 -7 -13 -14q-11 -5 -26 -7q-17 -3 -29.5 3t-28.5 24q-23 26 -8 43q6 6 5 6t-5 -1
q-6 -2 -6.5 -1t2.5 5q3 8 3 28q-2 28 23 33zM73 494q4 9 0 9t-7 -6.5t0 -8.5q1 -2 7 6zM98 463q-3 8 -3 9l7 -6q7 -11 7 -16q0 -9 -6 1q-3 4 -5 12zM234 431q22 6 40.5 4t22.5 -13q3 -7 -4.5 -11t-26.5 -4q-43 0 -74 -36q-26 -31 -15 -53q6 -12 27.5 -25.5t44.5 -20.5
q45 -13 60 -33q3 -6 -0.5 -12t-22.5 -25q-29 -29 -41 -35q-14 -8 -9 -13q2 -2 7 -2t19 -7q8 -6 11.5 -5.5t13.5 10.5q32 30 46 30q6 0 18.5 11.5t12.5 18.5t-24 12q-15 4 -18 7l10 1q7 -1 18 -2q16 -3 20 -5t4 -8q2 -18 -13 -42t-34 -34q-16 -8 -28 -22q-9 -12 -27 -24
q-10 -7 -20 -8.5t-43 -1.5q-48 0 -66 8q-16 8 -26.5 22.5t-10.5 26.5q0 31 32 -4q20 -20 34 -27q42 -17 83 11q9 7 9 8.5t-7 7.5q-10 8 -23 12q-13 5 -13 10q0 6 22 18q19 11 29.5 22t7.5 17q-3 7 -18.5 16t-35.5 15q-34 11 -58 33t-28 47q-4 26 25 59.5t69 45.5zM352 167
q2 7 1 8t-11 1q-24 0 -50 -31q-8 -10 -8 -12t9 -2q11 0 32.5 13t26.5 23zM317 200q12 5 26 7q11 0 11 -3q0 -1 -2 -4q-7 -7 -14 -12l-6 -2q0 1 3 4q3 6 2.5 7t-6.5 1q-11 0 -15 -5q-5 -5 -7 -3q-1 1 1.5 4t6.5 6z" />
    <glyph glyph-name="uniFF54" unicode="&#xff54;" horiz-adv-x="348" 
d="M178 571q1 5 6.5 5t10.5 -5t4.5 -23t-7.5 -72q-6 -61 -2 -65t46 4q42 9 48 7t6 -10t-6 -13q-8 -8 -67 -25q-2 0 -6 -1q-23 -6 -27 -13.5t-7 -44.5q-2 -8 -2 -12q-5 -47 -4.5 -103.5t6.5 -68.5q9 -23 31 -17q13 4 30.5 39.5t30.5 82.5q2 8 10.5 10t14.5 -4
q14 -17 -14.5 -81.5t-55.5 -79.5q-18 -9 -41 -2t-32 25q-12 24 -14 52.5t3 104.5q7 95 3 99q-3 3 -42 -1q-61 -9 -61 12q0 7 7.5 9.5t43.5 6.5q56 7 61 19q2 6 13 83q9 74 13 82z" />
    <glyph glyph-name="uniFF55" unicode="&#xff55;" horiz-adv-x="325" 
d="M254 428q4 9 12 7q13 -2 16 -33.5t-8 -77.5q-5 -25 -6.5 -47.5t-0.5 -86.5v-7q1 -74 -1.5 -86.5t-19.5 -12.5h-1q-8 0 -9.5 5.5t-3.5 41.5q0 46 -5 51q-2 2 -10.5 -7.5t-24.5 -30.5q-27 -36 -40.5 -46t-37.5 -10q-16 0 -22.5 2t-15.5 10q-16 14 -25 32q-9 14 -10 23.5
t1 56.5q3 83 12 143t19 64t11 -12q1 -15 -5 -66q-7 -74 -7 -129.5t7 -69.5q6 -12 18.5 -19t23.5 -4q12 3 33 29.5t40 62.5q23 44 30 66t16 79q9 63 14 72z" />
    <glyph glyph-name="uniFF56" unicode="&#xff56;" horiz-adv-x="392" 
d="M228 461l-8 4q1 0 10 -2q13 -1 25 -1q9 0 10.5 -2.5t0.5 -12.5q-2 -15 -11 -31q-6 -12 -23 -27t-26 -15q-5 1 6 7q11 4 23 15t12 16q0 3 -6 3.5t-13.5 -1.5t-14.5 -5q-9 -6 -21 -21q-8 -9 -8.5 -11.5t6.5 -3.5q8 -1 0 -2h-5q-16 0 -25 8q-11 8 -16 8q-6 1 -13.5 7t-5.5 9
q2 4 20 13t29 22q12 15 20 19q2 1 2 0q-1 -4 -14 -20q-22 -25 -32 -29q-7 -3 -8.5 -5t2 -5.5t13.5 -7.5q16 -7 25 -3q7 4 7 8.5t16.5 14.5t22.5 10q5 0 17 9q14 12 9 23q-1 4 -6 4q-6 0 -20 5zM214 436q24 14 31 7q4 -5 -11 -14q-6 -4 -7 -5q-1 0 3 6q4 5 3.5 6t-7.5 -1
q-1 0 -18 -4l-2 -1q0 1 8 6zM292 435q7 7 13 4t7 -14q1 -13 -18 -82q-20 -77 -26 -103q-25 -98 -43 -128q-8 -16 -22 -18q-18 -4 -27 1t-17 23q-9 17 -11 19t-9 -2q-12 -8 -11 -5t12 14q17 17 7 17q-4 0 -11 -4l-7 -2q1 1 7 5q29 23 29 35q0 7 -16 7t-19 3q-2 4 -22 2
q-21 -1 -33 6q-16 8 -16 4q0 -2 1 -6q3 -8 -2 -17q-6 -11 -6 -15q0 -5 -4 -5q-4 2 -3.5 13.5t4.5 25.5t8 15q5 3 25 -7q11 -6 20 -8t15.5 -1t6.5 5q0 10 -12 59.5t-25 89.5q-17 53 -14 60q3 6 9.5 7.5t11.5 -3.5q5 -7 24.5 -68.5t28.5 -99.5q11 -44 12 -46q2 -2 8 3
q5 4 6 -2v-6q1 -14 0 -29q-1 -11 6 -28t12 -17q17 0 64 183q28 108 37 115zM135 192q26 7 26 3t-10.5 -12.5t-20.5 -11.5q-9 -4 -9.5 -3.5t7.5 6.5q11 8 14 8q2 0 2 3q0 5 -13 0q-12 -3 -14 -2q-1 2 18 9zM340 168q7 7 9 -9q3 -17 -4 -32q-6 -11 -19.5 -19.5t-24.5 -6.5
q-10 3 -14 -6q-5 -7 -10 -7t-7 6.5t1.5 11t3.5 14.5q0 11 5 17q4 4 3 2q0 -1 -1 -5q-3 -9 6 -9q7 0 10 5q2 4 21 12q18 8 18 11q0 2 -10 2.5t-21 -1t-14 -2.5q-6 -4 -2 1q5 4 26 8q21 3 24 7zM341 137q-1 3 -8.5 2.5t-17.5 -4t-15 -8.5q-5 -7 -12 -7q-8 0 -10 -9
q-1 -10 0 -10.5t12 6.5q13 5 23 5q11 0 18 8q5 9 0 9q-6 0 -16 -4l-6 -4l5 6q8 6 17.5 6t9.5 4zM48 163q3 2 5 -4q1 -2 2 -5q5 -27 25 -29.5t34 23.5q5 7 7.5 4.5t-3.5 -12.5q-7 -10 -1 -12q3 -1 -5 -5q-11 -5 -29 -9q-14 -2 -28.5 19t-6.5 30z" />
    <glyph glyph-name="uniFF57" unicode="&#xff57;" horiz-adv-x="486" 
d="M420 425q5 9 11.5 9.5t10.5 -7.5t4 -21q0 -22 -50.5 -158t-65.5 -150q-17 -20 -38 -3q-9 9 -33 95q-22 86 -25 103q-3 23 -8 21q-2 0 -3 -2q-2 -4 -13 -81q-15 -112 -29 -126q-6 -6 -10.5 -6t-16.5 5q-13 8 -23.5 27t-28.5 74q-39 107 -43 121q-19 52 -19 63q0 17 12 26
q3 3 5 1q2 -3 19 -52q59 -169 72 -202q6 -15 13 -11q5 4 8 20t19 107q20 117 32 123q5 3 14 -6t14.5 -26t24.5 -96q33 -127 42 -127q1 0 2 2q12 17 44 102.5t42 125.5q11 40 17 49z" />
    <glyph glyph-name="uniFF58" unicode="&#xff58;" horiz-adv-x="479" 
d="M141 561q20 8 43 -4q15 -9 19.5 -20t4.5 -34l-1 -26l-2 23q-3 22 -10 35t-14 13q-7 -1 -7 -2q0 -2 13 -21q9 -14 9 -23q0 -7 -6 4q-1 1 -2 4q-6 16 -21 29q-10 8 -13 8t-8 -6t-5 -9t4 -8q6 -6 5.5 -11t-9.5 -13q-11 -10 -11 -19q0 -16 18 -28.5t35 -8.5q8 2 5 6
q-3 3 -18 12q-21 14 -22 18q-1 3 17 -7q19 -10 27 -12q6 -2 6 -1q0 2 -12 14q-17 14 -25 21l-4 4q1 0 7 -1q10 -3 26 -17t24 -14q5 0 5.5 -1.5t-3.5 -4.5q-5 -6 0 -6t5 -4t-17.5 -10.5t-29.5 -6.5h-12l12 -10q13 -11 40 -43q29 -33 32 -30q3 2 20 26q14 21 50.5 59.5
t41.5 38.5q4 0 12 -6q5 -3 1 -10.5t-30 -38.5q-71 -88 -71 -107q0 -8 14 -37.5t19 -29.5q2 0 26 20q17 13 23.5 17t20.5 4q32 0 32 -9q0 -1 -1.5 -1.5t-4 0t-4.5 1.5q-19 8 -41 -2.5t-23 -26.5q0 -11 -2 -2l-3 3t-8 -3.5t-16 -12l-27 -22.5l-13 -11h14q15 0 33 18q9 9 14 13
t5 3q0 -14 -29 -33q-12 -10 -17.5 -11.5t-12.5 1.5q-12 4 -12 -2q0 -5 13 -12q19 -10 56 0q14 4 23 10t28 24q28 30 37 30q6 0 7.5 3.5t-3.5 6.5q-2 1 -3.5 5t-0.5 6.5t3 2.5q3 0 13 -13q9 -12 4 -18q-5 -5 -22 -8q-16 -2 -30 -17q-13 -17 -15 -23q-4 -7 -15 -13
q-11 -4 -11.5 -9t7.5 -22q18 -40 0 -49q-11 -7 -19 0t-18 32q-10 24 -13.5 28.5t-17.5 6.5q-17 3 -32 21q-22 26 -10 26h5q8 -1 19 4q6 4 6 7t-6 14q-10 17 -17 23q-4 5 -8 2.5t-13 -15.5q-15 -20 -53 -83q-36 -63 -44 -72q-12 -15 -31 3q-11 11 -19 11q-13 0 -25 19t-4 27
q5 4 5 -3q0 -8 8 -21q18 -30 45 1q13 17 16 12q1 -2 -5 -12q-9 -11 -2 -11q7 1 22 14q23 21 11 20q-3 0 -9 -3q-3 -2 -6 -3t-5 -0.5t-2 1.5q0 3 13 8q10 5 17.5 14t7.5 18q0 5 -2.5 6t-12.5 0q-13 -2 -16 3q-2 2 0.5 3t6.5 1q5 0 12 8.5t22 33.5q28 46 33.5 60t1.5 24
q-6 16 -28.5 41.5t-37.5 32.5q-29 16 -56 3q-18 -8 -26 -0.5t4 21.5q13 14 26 18.5t34 2.5l25 -1l-15 18q-12 13 -14 18t0 19q2 23 2 35q-1 23 18 31zM141 543q2 6 -2 6t-4 -6t2 -6q1 0 4 6zM164 513q-2 5 -2.5 8t0.5 3t7 -11q2 -4 3 -7t1 -4.5t-1 -1.5q-4 0 -8 13z
M53.5 211.5q5.5 4.5 8 4.5t12.5 -6q9 -7 30 -12l20 -5l-20 -1q-21 0 -29 7q-9 6 -13 5t-2 -10q2 -10 -5.5 -18t-3.5 -12q2 -4 -3 -4t-6.5 7t2.5 14q4 6 4 17q0 9 5.5 13.5zM136 179q24 6 23 3v-3q-2 -5 -15.5 -14t-18.5 -9t7 7q11 7 10.5 9t-14.5 -1h-11q2 2 19 8z" />
    <glyph glyph-name="uniFF59" unicode="&#xff59;" horiz-adv-x="415" 
d="M350 476q5 5 12 4t8 -6q5 -13 -24.5 -74.5t-69.5 -122.5q-28 -43 -62 -103q-116 -211 -132 -211q-6 0 -13 4q-6 4 2 21.5t41 74.5q32 52 60.5 104t28.5 57q0 6 -27 33q-38 42 -86 102.5t-48 68.5q0 3 11 3q9 0 24 -14.5t75 -80.5q45 -50 59.5 -62.5t19.5 -9.5
q12 8 50 74.5t57 112.5q10 22 14 25z" />
    <glyph glyph-name="uniFF5A" unicode="&#xff5a;" horiz-adv-x="370" 
d="M138 419q63 3 117 3q58 -1 65 -8q9 -8 2.5 -20.5t-34.5 -44.5q-30 -33 -74 -89.5t-75.5 -100.5t-29.5 -46t59 2q150 12 156 -2q6 -15 -14 -23q-9 -3 -128.5 -5.5t-132.5 0.5q-9 2 -6 7q2 3 15 19q24 30 134 174q12 16 26.5 35t24 31.5t12.5 16.5l14 18l-14 2
q-14 2 -93 -1q-80 -4 -88 -2q-16 4 -18 12.5t10 13.5q13 6 72 8z" />
  </font>
</defs>
</svg>
